<?xml version="1.0" standalone="no"?>
<!DOCTYPE svg PUBLIC "-//W3C//DTD SVG 1.1//EN" "http://www.w3.org/Graphics/SVG/1.1/DTD/svg11.dtd" >
<svg xmlns="http://www.w3.org/2000/svg" xmlns:xlink="http://www.w3.org/1999/xlink" version="1.1">
<metadata>
Created by FontForge 20150913 at Wed Mar 23 12:05:12 2016
 By Jimmy Wärting
Nespresso, designed by Jean Francois Porchez at ZeCraft in 2013-14, is an exclusive sanserif typeface available in 4 weights, with Latin, Greek and Cyrillic scripts support designed solely and exclusively for Nespresso. More details at typofonderie.com. OpenType features include: Dingbats via Stylistic set 1/Ornament; Ligatures; Discretionary ligatures and usual features for 4 sets of figures, superiors, fractions, etc. This font software may not be reproduced, modified, without the express written approval of ZeCraft. Whatever the use is, third parties are not authorized to use this font without a proper license from ZeCraft - Typofonderie.
</metadata>
<defs>
<font id="Nespresso-ExtraBold" horiz-adv-x="630" >
  <font-face 
    font-family="Nespresso ExtraBold"
    font-weight="800"
    font-stretch="normal"
    units-per-em="1000"
    panose-1="2 11 8 3 5 6 3 6 2 9"
    ascent="786"
    descent="-214"
    x-height="537"
    cap-height="720"
    bbox="-208 -235 1506 1044"
    underline-thickness="143"
    underline-position="-150"
    stemh="172"
    stemv="185"
    unicode-range="U+000D-FB06"
  />
<missing-glyph horiz-adv-x="500" 
d="M420 0h-338v675h338v-675zM148 458l203 -411l40 -40v428l-123 123v-53l83 -110v-173l-203 410l-39 38v-380l107 -105v56l-68 93v124z" />
    <glyph glyph-name="f_b" unicode="fb" horiz-adv-x="1037" 
d="M1006 269c0 -159 -86 -283 -239 -283c-72 0 -126 28 -163 71h-4v-57h-181v720h185v-239h1c37 42 89 70 162 70c153 0 239 -123 239 -282zM272 0h-185v383h-76v154h76v7c0 118 70 190 219 190c25 0 54 -2 82 -6l-7 -147c-16 4 -33 6 -55 6c-41 0 -54 -18 -54 -43v-7h102
v-154h-102v-383zM818 269c0 67 -38 120 -108 120c-69 0 -106 -51 -106 -109v-22c0 -59 37 -110 106 -110c70 0 108 53 108 121z" />
    <glyph glyph-name="f_f_b" unicode="ffb" horiz-adv-x="1368" 
d="M273 0h-185v383h-77v154h77v7c0 118 68 190 226 190c26 0 55 -2 82 -6l-7 -147c-15 4 -33 6 -54 6c-48 0 -62 -18 -62 -43v-7h146v7c0 118 70 190 218 190c26 0 55 -2 82 -6l-7 -147c-15 4 -33 6 -54 6c-41 0 -53 -18 -53 -43v-7h100v-154h-100v-383h-186v383h-146v-383z
M1338 269c0 -159 -86 -283 -239 -283c-73 0 -126 28 -163 71h-3v-57h-182v720h185v-239h1c36 42 89 70 162 70c153 0 239 -123 239 -282zM1151 269c0 67 -39 120 -109 120c-69 0 -106 -51 -106 -109v-22c0 -59 37 -110 106 -110c70 0 109 53 109 121z" />
    <glyph glyph-name="f_f" unicode="ff" horiz-adv-x="729" 
d="M274 0h-185v383h-78v154h78v7c0 118 69 190 226 190c27 0 56 -2 84 -6l-8 -147c-15 4 -33 6 -54 6c-49 0 -63 -19 -63 -43v-7h147v7c0 118 70 190 228 190c26 0 55 -2 83 -6l-7 -147c-16 4 -34 6 -55 6c-49 0 -63 -19 -63 -43v-7h102v-154h-102v-383h-186v383h-147v-383z
" />
    <glyph glyph-name="f_h" unicode="fh" horiz-adv-x="1037" 
d="M975 0h-185v281c0 60 -30 108 -90 108c-61 0 -96 -51 -96 -109v-280h-185v720h185v-239h1c36 43 94 70 160 70c141 0 210 -92 210 -221v-330zM272 0h-185v383h-76v154h76v7c0 118 70 190 219 190c25 0 54 -2 82 -6l-7 -147c-16 4 -33 6 -55 6c-41 0 -54 -18 -54 -43v-7
h102v-154h-102v-383z" />
    <glyph glyph-name="f_f_h" unicode="ffh" horiz-adv-x="1369" 
d="M273 0h-185v383h-77v154h77v7c0 118 68 190 226 190c26 0 55 -2 82 -6l-7 -147c-15 4 -33 6 -54 6c-48 0 -62 -18 -62 -43v-7h146v7c0 118 70 190 218 190c26 0 55 -2 82 -6l-7 -147c-15 4 -33 6 -54 6c-41 0 -53 -18 -53 -43v-7h100v-154h-100v-383h-186v383h-146v-383z
M1308 0h-186v281c0 60 -31 108 -91 108s-95 -51 -95 -109v-280h-185v720h185v-239h1c35 43 93 70 159 70c142 0 212 -92 212 -221v-330z" />
    <glyph glyph-name="fi" unicode="fi" horiz-adv-x="676" 
d="M273 0h-185v383h-77v154h77v7c0 112 62 190 264 190c58 0 122 -6 178 -16l-16 -148c-49 12 -98 17 -142 17c-85 0 -99 -18 -99 -43v-7h332v-537h-186v383h-146v-383z" />
    <glyph glyph-name="f_f_i" unicode="ffi" horiz-adv-x="1007" 
d="M273 0h-185v383h-77v154h77v7c0 118 68 190 226 190c26 0 55 -2 82 -6l-7 -147c-15 4 -33 6 -54 6c-48 0 -62 -18 -62 -43v-7h146v7c0 112 63 190 264 190c59 0 122 -6 179 -16l-16 -148c-49 12 -98 17 -142 17c-85 0 -99 -18 -99 -43v-7h331v-537h-185v383h-146v-383
h-186v383h-146v-383z" />
    <glyph glyph-name="f_j" unicode="fj" horiz-adv-x="676" 
d="M272 0h-185v383h-76v154h76v7c0 112 62 190 264 190c58 0 122 -6 178 -16l-15 -148c-49 12 -99 17 -143 17c-85 0 -99 -18 -99 -43v-7h333v-584c0 -128 -68 -185 -194 -185c-35 0 -65 2 -94 5l7 142c13 -3 27 -5 41 -5c41 0 54 27 54 77v396h-147v-383z" />
    <glyph glyph-name="f_f_j" unicode="ffj" horiz-adv-x="1007" 
d="M273 0h-185v383h-77v154h77v7c0 118 68 190 226 190c26 0 55 -2 82 -6l-7 -147c-15 4 -33 6 -54 6c-48 0 -62 -18 -62 -43v-7h145v7c0 112 62 190 264 190c59 0 122 -6 179 -16l-16 -148c-49 12 -98 17 -142 17c-86 0 -99 -18 -99 -43v-7h332v-584
c0 -128 -67 -185 -194 -185c-35 0 -64 2 -94 5l8 142c12 -3 26 -5 40 -5c40 0 55 27 55 77v396h-147v-383h-186v383h-145v-383z" />
    <glyph glyph-name="f_k" unicode="fk" horiz-adv-x="1025" 
d="M604 0h-185v720h185v-365h50l115 182h225l-181 -253l201 -284h-226l-129 202h-55v-202zM272 0h-185v383h-76v154h76v7c0 118 70 190 219 190c25 0 54 -2 82 -6l-7 -147c-16 4 -33 6 -55 6c-41 0 -54 -18 -54 -43v-7h102v-154h-102v-383z" />
    <glyph glyph-name="f_f_k" unicode="ffk" horiz-adv-x="1357" 
d="M273 0h-185v383h-77v154h77v7c0 118 68 190 226 190c26 0 55 -2 82 -6l-7 -147c-15 4 -33 6 -54 6c-48 0 -62 -18 -62 -43v-7h146v7c0 118 70 190 218 190c26 0 55 -2 82 -6l-7 -147c-15 4 -33 6 -54 6c-41 0 -53 -18 -53 -43v-7h100v-154h-100v-383h-186v383h-146v-383z
M936 0h-185v720h185v-365h49l115 182h225l-180 -253l200 -284h-226l-129 202h-54v-202z" />
    <glyph glyph-name="fl" unicode="fl" horiz-adv-x="675" 
d="M272 0h-185v383h-76v154h76v7c0 118 70 190 219 190c25 0 54 -2 82 -6l-7 -147c-16 4 -33 6 -55 6c-41 0 -54 -18 -54 -43v-7h102v-154h-102v-383zM604 0h-185v720h185v-720z" />
    <glyph glyph-name="f_f_l" unicode="ffl" horiz-adv-x="1007" 
d="M273 0h-185v383h-77v154h77v7c0 118 68 190 226 190c26 0 55 -2 82 -6l-7 -147c-15 4 -33 6 -54 6c-48 0 -62 -18 -62 -43v-7h146v7c0 118 70 190 218 190c26 0 55 -2 82 -6l-7 -147c-15 4 -33 6 -54 6c-41 0 -53 -18 -53 -43v-7h100v-154h-100v-383h-186v383h-146v-383z
M936 0h-185v720h185v-720z" />
    <glyph glyph-name="f_t" unicode="ft" horiz-adv-x="723" 
d="M272 0h-185v383h-76v154h76v7c0 118 70 190 219 190c25 0 54 -2 82 -6l-7 -147c-16 4 -33 6 -55 6c-41 0 -54 -18 -54 -43v-7h147v183h185v-183h101v-154h-101v-383h-185v383h-147v-383z" />
    <glyph glyph-name="f_f_t" unicode="fft" horiz-adv-x="1056" 
d="M273 0h-185v383h-77v154h77v7c0 118 68 190 226 190c26 0 55 -2 82 -6l-7 -147c-15 4 -33 6 -54 6c-48 0 -62 -18 -62 -43v-7h146v7c0 118 70 190 218 190c26 0 55 -2 82 -6l-7 -147c-15 4 -33 6 -54 6c-41 0 -53 -18 -53 -43v-7h146v183h185v-183h101v-154h-101v-383
h-185v383h-146v-383h-186v383h-146v-383z" />
    <glyph glyph-name="t_t" unicode="tt" horiz-adv-x="726" 
d="M273 0h-185v383h-77v154h77v183h185v-183h146v183h185v-183h101v-154h-101v-383h-185v383h-146v-383z" />
    <glyph glyph-name="t_f" unicode="tf" horiz-adv-x="730" 
d="M273 0h-185v383h-77v154h77v183h185v-183h146v7c0 118 68 190 226 190c26 0 55 -2 83 -6l-8 -147c-15 4 -32 6 -54 6c-47 0 -62 -18 -62 -43v-7h101v-154h-101v-383h-185v383h-146v-383z" />
    <glyph glyph-name=".notdef" horiz-adv-x="500" 
d="M420 0h-338v675h338v-675zM148 458l203 -411l40 -40v428l-123 123v-53l83 -110v-173l-203 410l-39 38v-380l107 -105v56l-68 93v124z" />
    <glyph glyph-name=".null" horiz-adv-x="0" 
 />
    <glyph glyph-name=".null" horiz-adv-x="0" 
 />
    <glyph glyph-name="CR" unicode="&#xd;" horiz-adv-x="0" 
 />
    <glyph glyph-name="space" unicode=" " horiz-adv-x="315" 
 />
    <glyph glyph-name="space" unicode="&#xa0;" horiz-adv-x="315" 
 />
    <glyph glyph-name="nbspace" 
 />
    <glyph glyph-name="CA" horiz-adv-x="0" 
 />
    <glyph glyph-name="A" unicode="A" horiz-adv-x="796" 
d="M791 0h-214l-33 88h-294l-32 -88h-212l282 720h221zM395 480l-82 -221h167l-83 221h-2z" />
    <glyph glyph-name="B" unicode="B" horiz-adv-x="738" 
d="M701 207c0 -114 -91 -207 -259 -207h-362v720h343c138 0 235 -60 235 -183c0 -69 -32 -118 -90 -148v-2c77 -25 133 -82 133 -180zM504 231c0 43 -34 63 -79 63h-150v-131h148c50 0 81 26 81 68zM462 503c0 36 -25 54 -59 54h-128v-109h129c35 0 58 19 58 55z" />
    <glyph glyph-name="C" unicode="C" horiz-adv-x="715" 
d="M704 116c-75 -88 -173 -130 -297 -130c-232 0 -366 165 -366 373c0 209 134 375 364 375c122 0 216 -41 287 -131l-137 -124c-39 56 -86 83 -150 83c-107 0 -168 -88 -168 -203c0 -113 61 -202 169 -202c68 0 121 23 161 83z" />
    <glyph glyph-name="D" unicode="D" horiz-adv-x="806" 
d="M766 360c0 -214 -135 -360 -363 -360h-323v720h323c228 0 363 -147 363 -360zM569 360c0 114 -67 188 -168 188h-126v-376h126c101 0 168 75 168 188z" />
    <glyph glyph-name="E" unicode="E" horiz-adv-x="649" 
d="M597 0h-517v720h508v-172h-313v-95h266v-171h-266v-110h322v-172z" />
    <glyph glyph-name="F" unicode="F" horiz-adv-x="621" 
d="M275 0h-195v720h499v-172h-304v-115h257v-171h-257v-262z" />
    <glyph glyph-name="G" unicode="G" horiz-adv-x="791" 
d="M411 -14c-234 0 -370 164 -370 373s134 375 369 375c127 0 220 -42 291 -131l-136 -124c-40 56 -88 83 -156 83c-112 0 -172 -88 -172 -203c0 -120 61 -210 174 -210c74 0 125 31 151 89h-156v171h357v-54c0 -213 -129 -369 -352 -369z" />
    <glyph glyph-name="H" unicode="H" horiz-adv-x="824" 
d="M744 0h-195v282h-274v-282h-195v720h195v-267h274v267h195v-720z" />
    <glyph glyph-name="I" unicode="I" horiz-adv-x="355" 
d="M275 0h-195v720h195v-720z" />
    <glyph glyph-name="J" unicode="J" horiz-adv-x="574" 
d="M241 -14c-104 0 -180 27 -231 86l134 123c21 -27 49 -42 84 -42c47 0 82 30 82 84v483h194v-479c0 -147 -98 -255 -263 -255z" />
    <glyph glyph-name="K" unicode="K" horiz-adv-x="788" 
d="M276 0h-196v720h196v-269h61l171 269h241l-246 -354l264 -366h-240l-194 290h-57v-290z" />
    <glyph glyph-name="L" unicode="L" horiz-adv-x="609" 
d="M589 0h-509v720h195v-548h314v-172z" />
    <glyph glyph-name="M" unicode="M" horiz-adv-x="924" 
d="M872 0h-195l-30 369h-2l-182 -298h-10l-182 298h-2l-31 -369h-186l59 720h184l166 -292h3l165 292h184z" />
    <glyph glyph-name="N" unicode="N" horiz-adv-x="824" 
d="M744 0h-184l-293 392h-2v-392h-185v720h184l293 -393h1v393h186v-720z" />
    <glyph glyph-name="O" unicode="O" horiz-adv-x="822" 
d="M782 360c0 -212 -139 -374 -371 -374s-370 162 -370 374c0 211 138 374 370 374s371 -163 371 -374zM585 360c0 113 -62 202 -175 202c-112 0 -173 -89 -173 -202c0 -114 61 -203 173 -203c113 0 175 89 175 203z" />
    <glyph glyph-name="P" unicode="P" horiz-adv-x="732" 
d="M700 458c0 -152 -98 -263 -264 -263h-161v-195h-195v720h356c166 0 264 -105 264 -262zM503 458c0 55 -30 90 -93 90h-135v-182h135c62 0 93 42 93 92z" />
    <glyph glyph-name="Q" unicode="Q" horiz-adv-x="822" 
d="M782 360c0 -131 -55 -240 -153 -303h151v-161h-369v90c-232 0 -370 162 -370 374c0 211 138 374 370 374s371 -163 371 -374zM585 360c0 113 -62 202 -175 202c-112 0 -173 -89 -173 -202c0 -114 61 -203 173 -203c113 0 175 89 175 203z" />
    <glyph glyph-name="R" unicode="R" horiz-adv-x="764" 
d="M738 0h-240l-131 196h-92v-196h-195v720h356c166 0 264 -105 264 -262c0 -101 -44 -185 -123 -229zM503 458c0 55 -30 90 -93 90h-135v-182h135c62 0 93 42 93 92z" />
    <glyph glyph-name="S" unicode="S" horiz-adv-x="693" 
d="M653 225c0 -152 -112 -239 -319 -239c-125 0 -214 39 -288 103l115 147c52 -53 116 -81 197 -81c71 0 100 17 100 47c0 90 -397 27 -397 298c0 151 110 234 287 234c124 0 210 -28 284 -91l-114 -147c-44 44 -102 68 -181 68c-60 0 -83 -17 -83 -44
c0 -86 399 -24 399 -295z" />
    <glyph glyph-name="T" unicode="T" horiz-adv-x="708" 
d="M451 0h-194v548h-238v172h670v-172h-238v-548z" />
    <glyph glyph-name="U" unicode="U" horiz-adv-x="804" 
d="M401 -14c-208 0 -331 138 -331 316v418h195v-411c0 -88 52 -152 140 -152c89 0 143 64 143 152v411h186v-418c0 -178 -125 -316 -333 -316z" />
    <glyph glyph-name="V" unicode="V" horiz-adv-x="771" 
d="M766 720l-270 -720h-221l-269 720h212l169 -479h2l166 479h211z" />
    <glyph glyph-name="W" unicode="W" horiz-adv-x="1070" 
d="M1038 720l-144 -720h-219l-145 260h-3l-144 -260h-211l-140 720h196l82 -431h2l214 407h9l215 -407h3l80 431h205z" />
    <glyph glyph-name="X" unicode="X" horiz-adv-x="819" 
d="M245 0h-239l272 382l-238 338h241l131 -209l136 209h239l-242 -338l268 -382h-240l-162 254z" />
    <glyph glyph-name="Y" unicode="Y" horiz-adv-x="795" 
d="M492 0h-195v280l-291 440h237l151 -245h2l158 245h236l-298 -440v-280z" />
    <glyph glyph-name="Z" unicode="Z" horiz-adv-x="742" 
d="M685 0h-627v168l356 380h-343v172h600v-168l-349 -380h363v-172z" />
    <glyph glyph-name="Agrave" unicode="&#xc0;" horiz-adv-x="796" 
d="M791 0h-214l-33 88h-294l-32 -88h-212l282 720h221zM395 480l-82 -221h167l-83 221h-2zM472 750h-152l-93 100h180z" />
    <glyph glyph-name="Aacute" unicode="&#xc1;" horiz-adv-x="796" 
d="M791 0h-214l-33 88h-294l-32 -88h-212l282 720h221zM395 480l-82 -221h167l-83 221h-2zM469 750h-153l65 100h180z" />
    <glyph glyph-name="Acircumflex" unicode="&#xc2;" horiz-adv-x="796" 
d="M791 0h-214l-33 88h-294l-32 -88h-212l282 720h221zM571 750h-134l-42 26l-40 -26h-134l88 100h174zM395 480l-82 -221h167l-83 221h-2z" />
    <glyph glyph-name="Atilde" unicode="&#xc3;" horiz-adv-x="796" 
d="M791 0h-214l-33 88h-294l-32 -88h-212l282 720h221zM468 751c-51 0 -103 13 -135 13c-12 0 -17 -4 -19 -14h-107c1 61 11 118 84 118c51 0 102 -13 134 -13c13 0 18 3 20 14h106c-1 -61 -11 -118 -83 -118zM395 480l-82 -221h167l-83 221h-2z" />
    <glyph glyph-name="Adieresis" unicode="&#xc4;" horiz-adv-x="796" 
d="M791 0h-214l-33 88h-294l-32 -88h-212l282 720h221zM368 754h-168v111h168v-111zM593 754h-168v111h168v-111zM395 480l-82 -221h167l-83 221h-2z" />
    <glyph glyph-name="Amacron" unicode="&#x100;" horiz-adv-x="796" 
d="M791 0h-214l-33 88h-294l-32 -88h-212l282 720h221zM544 757h-298v107h298v-107zM395 480l-82 -221h167l-83 221h-2z" />
    <glyph glyph-name="Abreve" unicode="&#x102;" horiz-adv-x="796" 
d="M791 0h-214l-33 88h-294l-32 -88h-212l282 720h221zM395 750c-103 0 -164 26 -171 119h108c2 -13 25 -20 63 -20c39 0 60 7 64 20h107c-6 -93 -67 -119 -171 -119zM395 480l-82 -221h167l-83 221h-2z" />
    <glyph glyph-name="Aring" unicode="&#xc5;" horiz-adv-x="796" 
d="M791 0h-214l-33 88h-294l-32 -88h-212l282 720h221zM522 832c0 -50 -41 -82 -126 -82c-81 0 -119 33 -119 82c0 48 38 82 119 82c85 0 126 -34 126 -82zM395 480l-82 -221h167l-83 221h-2zM417 832c0 12 -8 18 -21 18c-16 0 -23 -6 -23 -18c0 -13 7 -18 23 -18
c13 0 21 5 21 18z" />
    <glyph glyph-name="Aringacute" unicode="&#x1fa;" horiz-adv-x="796" 
d="M791 0h-214l-33 88h-294l-32 -88h-212l282 720h221zM522 832c0 -50 -41 -82 -126 -82c-81 0 -119 33 -119 82c0 48 38 82 119 82c85 0 126 -34 126 -82zM395 480l-82 -221h167l-83 221h-2zM468 944h-153l65 100h180zM417 832c0 12 -8 18 -21 18c-16 0 -23 -6 -23 -18
c0 -13 7 -18 23 -18c13 0 21 5 21 18z" />
    <glyph glyph-name="Aogonek" unicode="&#x104;" horiz-adv-x="796" 
d="M764 -142c-27 -26 -74 -42 -129 -42c-73 0 -120 31 -120 85c0 44 31 76 61 99h1l-33 88h-294l-32 -88h-212l282 720h221l282 -720h-89c-37 -26 -54 -41 -54 -58c0 -11 8 -18 24 -18s29 7 36 15zM395 480l-82 -221h167l-83 221h-2z" />
    <glyph glyph-name="AE" unicode="&#xc6;" horiz-adv-x="1051" 
d="M924 270h-233l26 -98h282v-172h-439l-44 168h-237l-62 -168h-211l279 720h667v-172h-333l28 -107h277v-171zM415 538l-72 -196h127l-51 196h-4z" />
    <glyph glyph-name="AEacute" unicode="&#x1fc;" horiz-adv-x="1051" 
d="M924 270h-233l26 -98h282v-172h-439l-44 168h-237l-62 -168h-211l279 720h667v-172h-333l28 -107h277v-171zM565 750h-153l65 100h180zM415 538l-72 -196h127l-51 196h-4z" />
    <glyph glyph-name="Cacute" unicode="&#x106;" horiz-adv-x="715" 
d="M704 116c-75 -88 -173 -130 -297 -130c-232 0 -366 165 -366 373c0 209 134 375 364 375c122 0 216 -41 287 -131l-137 -124c-39 56 -86 83 -150 83c-107 0 -168 -88 -168 -203c0 -113 61 -202 169 -202c68 0 121 23 161 83zM479 750h-153l65 100h180z" />
    <glyph glyph-name="Ccircumflex" unicode="&#x108;" horiz-adv-x="715" 
d="M704 116c-75 -88 -173 -130 -297 -130c-232 0 -366 165 -366 373c0 209 134 375 364 375c122 0 216 -41 287 -131l-137 -124c-39 56 -86 83 -150 83c-107 0 -168 -88 -168 -203c0 -113 61 -202 169 -202c68 0 121 23 161 83zM581 750h-134l-42 26l-40 -26h-134l88 100
h174z" />
    <glyph glyph-name="Ccaron" unicode="&#x10c;" horiz-adv-x="715" 
d="M704 116c-75 -88 -173 -130 -297 -130c-232 0 -366 165 -366 373c0 209 134 375 364 375c122 0 216 -41 287 -131l-137 -124c-39 56 -86 83 -150 83c-107 0 -168 -88 -168 -203c0 -113 61 -202 169 -202c68 0 121 23 161 83zM492 750h-174l-88 100h134l41 -33l41 33h134z
" />
    <glyph glyph-name="Cdotaccent" unicode="&#x10a;" horiz-adv-x="715" 
d="M704 116c-75 -88 -173 -130 -297 -130c-232 0 -366 165 -366 373c0 209 134 375 364 375c122 0 216 -41 287 -131l-137 -124c-39 56 -86 83 -150 83c-107 0 -168 -88 -168 -203c0 -113 61 -202 169 -202c68 0 121 23 161 83zM499 754h-188v111h188v-111z" />
    <glyph glyph-name="Ccedilla" unicode="&#xc7;" horiz-adv-x="715" 
d="M510 -99c0 -54 -47 -85 -120 -85c-54 0 -102 16 -129 42l56 81c7 -8 20 -15 37 -15c15 0 23 7 23 18c0 15 -14 29 -43 50c-187 31 -293 182 -293 367c0 209 134 375 364 375c122 0 216 -41 287 -131l-137 -124c-39 56 -86 83 -150 83c-107 0 -168 -88 -168 -203
c0 -113 61 -202 169 -202c68 0 121 23 161 83l137 -124c-64 -75 -144 -116 -242 -127c25 -22 48 -50 48 -88z" />
    <glyph glyph-name="Ccedilla.fr" unicode="&#xe16a;" horiz-adv-x="715" 
d="M704 116c-75 -88 -173 -130 -297 -130c-232 0 -366 165 -366 373c0 209 134 375 364 375c122 0 216 -41 287 -131l-137 -124c-39 56 -86 83 -150 83c-107 0 -168 -88 -168 -203c0 -113 61 -202 169 -202c68 0 121 23 161 83zM409 -196l-122 41c36 35 50 67 50 114h156
c0 -71 -28 -116 -84 -155z" />
    <glyph glyph-name="Dcaron" unicode="&#x10e;" horiz-adv-x="806" 
d="M766 360c0 -214 -135 -360 -363 -360h-323v720h323c228 0 363 -147 363 -360zM569 360c0 114 -67 188 -168 188h-126v-376h126c101 0 168 75 168 188zM474 750h-174l-88 100h134l41 -33l41 33h134z" />
    <glyph glyph-name="Dcroat" unicode="&#x110;" horiz-adv-x="806" 
d="M766 360c0 -214 -135 -360 -363 -360h-323v296h-71v144h71v280h323c228 0 363 -147 363 -360zM569 360c0 114 -67 188 -168 188h-126v-108h180v-144h-180v-124h126c101 0 168 75 168 188z" />
    <glyph glyph-name="Egrave" unicode="&#xc8;" horiz-adv-x="649" 
d="M597 0h-517v720h508v-172h-313v-95h266v-171h-266v-110h322v-172zM418 750h-152l-93 100h180z" />
    <glyph glyph-name="Eacute" unicode="&#xc9;" horiz-adv-x="649" 
d="M597 0h-517v720h508v-172h-313v-95h266v-171h-266v-110h322v-172zM416 750h-153l65 100h180z" />
    <glyph glyph-name="Ecircumflex" unicode="&#xca;" horiz-adv-x="649" 
d="M597 0h-517v720h508v-172h-313v-95h266v-171h-266v-110h322v-172zM518 750h-134l-42 26l-40 -26h-134l88 100h174z" />
    <glyph glyph-name="Ecaron" unicode="&#x11a;" horiz-adv-x="649" 
d="M597 0h-517v720h508v-172h-313v-95h266v-171h-266v-110h322v-172zM429 750h-174l-88 100h134l41 -33l41 33h134z" />
    <glyph glyph-name="Edieresis" unicode="&#xcb;" horiz-adv-x="649" 
d="M597 0h-517v720h508v-172h-313v-95h266v-171h-266v-110h322v-172zM540 754h-168v111h168v-111zM315 754h-168v111h168v-111z" />
    <glyph glyph-name="Emacron" unicode="&#x112;" horiz-adv-x="649" 
d="M597 0h-517v720h508v-172h-313v-95h266v-171h-266v-110h322v-172zM490 757h-298v107h298v-107z" />
    <glyph glyph-name="Ebreve" unicode="&#x114;" horiz-adv-x="649" 
d="M597 0h-517v720h508v-172h-313v-95h266v-171h-266v-110h322v-172zM342 750c-103 0 -164 26 -171 119h108c2 -13 25 -20 63 -20c39 0 60 7 64 20h107c-6 -93 -67 -119 -171 -119z" />
    <glyph glyph-name="Edotaccent" unicode="&#x116;" horiz-adv-x="649" 
d="M597 0h-517v720h508v-172h-313v-95h266v-171h-266v-110h322v-172zM436 754h-188v111h188v-111z" />
    <glyph glyph-name="Eogonek" unicode="&#x118;" horiz-adv-x="649" 
d="M615 -142c-27 -26 -74 -42 -129 -42c-73 0 -120 31 -120 85c0 44 31 76 61 99h-347v720h508v-172h-313v-95h266v-171h-266v-110h322v-172h-44c-37 -26 -54 -41 -54 -58c0 -11 8 -18 24 -18s29 7 36 15z" />
    <glyph glyph-name="fi.cap" unicode="&#xe09f;" horiz-adv-x="976" 
d="M275 0h-195v720h499v-172h-304v-115h257v-171h-257v-262zM896 0h-195v720h195v-720z" />
    <glyph glyph-name="fl.cap" unicode="&#xe0a0;" horiz-adv-x="1230" 
d="M275 0h-195v720h499v-172h-304v-115h257v-171h-257v-262zM1210 0h-509v720h195v-548h314v-172z" />
    <glyph glyph-name="Gcircumflex" unicode="&#x11c;" horiz-adv-x="791" 
d="M411 -14c-234 0 -370 164 -370 373s134 375 369 375c127 0 220 -42 291 -131l-136 -124c-40 56 -88 83 -156 83c-112 0 -172 -88 -172 -203c0 -120 61 -210 174 -210c74 0 125 31 151 89h-156v171h357v-54c0 -213 -129 -369 -352 -369zM579 750h-134l-42 26l-40 -26h-134
l88 100h174z" />
    <glyph glyph-name="Gbreve" unicode="&#x11e;" horiz-adv-x="791" 
d="M411 -14c-234 0 -370 164 -370 373s134 375 369 375c127 0 220 -42 291 -131l-136 -124c-40 56 -88 83 -156 83c-112 0 -172 -88 -172 -203c0 -120 61 -210 174 -210c74 0 125 31 151 89h-156v171h357v-54c0 -213 -129 -369 -352 -369zM403 750c-103 0 -164 26 -171 119
h108c2 -13 25 -20 63 -20c39 0 60 7 64 20h107c-6 -93 -67 -119 -171 -119z" />
    <glyph glyph-name="Gdotaccent" unicode="&#x120;" horiz-adv-x="791" 
d="M411 -14c-234 0 -370 164 -370 373s134 375 369 375c127 0 220 -42 291 -131l-136 -124c-40 56 -88 83 -156 83c-112 0 -172 -88 -172 -203c0 -120 61 -210 174 -210c74 0 125 31 151 89h-156v171h357v-54c0 -213 -129 -369 -352 -369zM497 754h-188v111h188v-111z" />
    <glyph glyph-name="Gcommaaccent" unicode="&#x122;" horiz-adv-x="791" 
d="M411 -14c-234 0 -370 164 -370 373s134 375 369 375c127 0 220 -42 291 -131l-136 -124c-40 56 -88 83 -156 83c-112 0 -172 -88 -172 -203c0 -120 61 -210 174 -210c74 0 125 31 151 89h-156v171h357v-54c0 -213 -129 -369 -352 -369zM405 -196l-121 41
c36 35 49 67 49 114h156c0 -71 -27 -116 -84 -155z" />
    <glyph glyph-name="Hcircumflex" unicode="&#x124;" horiz-adv-x="824" 
d="M744 0h-195v282h-274v-282h-195v720h195v-267h274v267h195v-720zM588 750h-134l-42 26l-40 -26h-134l88 100h174z" />
    <glyph glyph-name="Hbar" unicode="&#x126;" horiz-adv-x="824" 
d="M744 0h-195v282h-274v-282h-195v488h-71v145h71v87h195v-87h274v87h195v-87h71v-145h-71v-488zM275 453h274v35h-274v-35z" />
    <glyph glyph-name="Igrave" unicode="&#xcc;" horiz-adv-x="355" 
d="M275 0h-195v720h195v-720zM254 750h-152l-93 100h180z" />
    <glyph glyph-name="Iacute" unicode="&#xcd;" horiz-adv-x="355" 
d="M275 0h-195v720h195v-720zM252 750h-153l65 100h180z" />
    <glyph glyph-name="Icircumflex" unicode="&#xce;" horiz-adv-x="355" 
d="M275 0h-195v720h195v-720zM354 750h-134l-42 26l-40 -26h-134l88 100h174z" />
    <glyph glyph-name="Itilde" unicode="&#x128;" horiz-adv-x="355" 
d="M275 0h-195v720h195v-720zM250 751c-51 0 -103 13 -135 13c-12 0 -17 -4 -19 -14h-107c1 61 11 118 84 118c51 0 102 -13 134 -13c13 0 18 3 20 14h106c-1 -61 -11 -118 -83 -118z" />
    <glyph glyph-name="Idieresis" unicode="&#xcf;" horiz-adv-x="355" 
d="M275 0h-195v720h195v-720zM376 754h-168v111h168v-111zM151 754h-168v111h168v-111z" />
    <glyph glyph-name="Imacron" unicode="&#x12a;" horiz-adv-x="355" 
d="M275 0h-195v720h195v-720zM326 757h-298v107h298v-107z" />
    <glyph glyph-name="Ibreve" unicode="&#x12c;" horiz-adv-x="355" 
d="M275 0h-195v720h195v-720zM178 750c-103 0 -164 26 -171 119h108c2 -13 25 -20 63 -20c39 0 60 7 64 20h107c-6 -93 -67 -119 -171 -119z" />
    <glyph glyph-name="Idotaccent" unicode="&#x130;" horiz-adv-x="355" 
d="M275 0h-195v720h195v-720zM272 754h-188v111h188v-111z" />
    <glyph glyph-name="Iogonek" unicode="&#x12e;" horiz-adv-x="355" 
d="M320 -142c-27 -26 -74 -42 -129 -42c-73 0 -120 31 -120 85c0 44 31 76 61 99h-52v720h195v-720h-17c-37 -26 -54 -41 -54 -58c0 -11 8 -18 24 -18s29 7 36 15z" />
    <glyph glyph-name="IJ" unicode="&#x132;" horiz-adv-x="929" 
d="M275 0h-195v720h195v-720zM596 -14c-104 0 -180 27 -231 86l134 123c21 -27 49 -42 84 -42c47 0 82 30 82 84v483h194v-479c0 -147 -98 -255 -263 -255z" />
    <glyph glyph-name="Jcircumflex" unicode="&#x134;" horiz-adv-x="574" 
d="M241 -14c-104 0 -180 27 -231 86l134 123c21 -27 49 -42 84 -42c47 0 82 30 82 84v483h194v-479c0 -147 -98 -255 -263 -255zM582 750h-134l-42 26l-40 -26h-134l88 100h174z" />
    <glyph glyph-name="Kcommaaccent" unicode="&#x136;" horiz-adv-x="788" 
d="M276 0h-196v720h196v-269h61l171 269h241l-246 -354l264 -366h-240l-194 290h-57v-290zM394 -196l-121 41c36 35 49 67 49 114h156c0 -71 -27 -116 -84 -155z" />
    <glyph glyph-name="Lacute" unicode="&#x139;" horiz-adv-x="609" 
d="M589 0h-509v720h195v-548h314v-172zM251 750h-153l65 100h180z" />
    <glyph glyph-name="Lcaron" unicode="&#x13d;" horiz-adv-x="609" 
d="M589 0h-509v720h195v-548h314v-172zM491 579h-151l41 141h170z" />
    <glyph glyph-name="Lcommaaccent" unicode="&#x13b;" horiz-adv-x="609" 
d="M589 0h-509v720h195v-548h314v-172zM349 -196l-121 41c36 35 49 67 49 114h156c0 -71 -27 -116 -84 -155z" />
    <glyph glyph-name="Lslash" unicode="&#x141;" horiz-adv-x="609" 
d="M589 0h-509v259l-36 -13l-44 137l80 28v309h195v-240l176 63l44 -136l-220 -79v-156h314v-172z" />
    <glyph glyph-name="Ldot" unicode="&#x13f;" horiz-adv-x="616" 
d="M589 -3h-509v720h195v-548h314v-172zM585 356h-198v191h198v-191z" />
    <glyph glyph-name="Nacute" unicode="&#x143;" horiz-adv-x="824" 
d="M744 0h-184l-293 392h-2v-392h-185v720h184l293 -393h1v393h186v-720zM492 750h-153l65 100h180z" />
    <glyph glyph-name="Ncaron" unicode="&#x147;" horiz-adv-x="824" 
d="M744 0h-184l-293 392h-2v-392h-185v720h184l293 -393h1v393h186v-720zM505 750h-174l-88 100h134l41 -33l41 33h134z" />
    <glyph glyph-name="Ntilde" unicode="&#xd1;" horiz-adv-x="824" 
d="M744 0h-184l-293 392h-2v-392h-185v720h184l293 -393h1v393h186v-720zM490 751c-51 0 -103 13 -135 13c-12 0 -17 -4 -19 -14h-107c1 61 11 118 84 118c51 0 102 -13 134 -13c13 0 18 3 20 14h106c-1 -61 -11 -118 -83 -118z" />
    <glyph glyph-name="Ncommaaccent" unicode="&#x145;" horiz-adv-x="824" 
d="M744 0h-184l-293 392h-2v-392h-185v720h184l293 -393h1v393h186v-720zM415 -196l-121 41c36 35 49 67 49 114h156c0 -71 -27 -116 -84 -155z" />
    <glyph glyph-name="Ograve" unicode="&#xd2;" horiz-adv-x="822" 
d="M782 360c0 -212 -139 -374 -371 -374s-370 162 -370 374c0 211 138 374 370 374s371 -163 371 -374zM585 360c0 113 -62 202 -175 202c-112 0 -173 -89 -173 -202c0 -114 61 -203 173 -203c113 0 175 89 175 203zM486 750h-152l-93 100h180z" />
    <glyph glyph-name="Oacute" unicode="&#xd3;" horiz-adv-x="822" 
d="M782 360c0 -212 -139 -374 -371 -374s-370 162 -370 374c0 211 138 374 370 374s371 -163 371 -374zM585 360c0 113 -62 202 -175 202c-112 0 -173 -89 -173 -202c0 -114 61 -203 173 -203c113 0 175 89 175 203zM484 750h-153l65 100h180z" />
    <glyph glyph-name="Ocircumflex" unicode="&#xd4;" horiz-adv-x="822" 
d="M782 360c0 -212 -139 -374 -371 -374s-370 162 -370 374c0 211 138 374 370 374s371 -163 371 -374zM585 360c0 113 -62 202 -175 202c-112 0 -173 -89 -173 -202c0 -114 61 -203 173 -203c113 0 175 89 175 203zM586 750h-134l-42 26l-40 -26h-134l88 100h174z" />
    <glyph glyph-name="Otilde" unicode="&#xd5;" horiz-adv-x="822" 
d="M782 360c0 -212 -139 -374 -371 -374s-370 162 -370 374c0 211 138 374 370 374s371 -163 371 -374zM585 360c0 113 -62 202 -175 202c-112 0 -173 -89 -173 -202c0 -114 61 -203 173 -203c113 0 175 89 175 203zM483 751c-51 0 -103 13 -135 13c-12 0 -17 -4 -19 -14
h-107c1 61 11 118 84 118c51 0 102 -13 134 -13c13 0 18 3 20 14h106c-1 -61 -11 -118 -83 -118z" />
    <glyph glyph-name="Odieresis" unicode="&#xd6;" horiz-adv-x="822" 
d="M782 360c0 -212 -139 -374 -371 -374s-370 162 -370 374c0 211 138 374 370 374s371 -163 371 -374zM585 360c0 113 -62 202 -175 202c-112 0 -173 -89 -173 -202c0 -114 61 -203 173 -203c113 0 175 89 175 203zM383 754h-168v111h168v-111zM608 754h-168v111h168v-111z
" />
    <glyph glyph-name="Omacron" unicode="&#x14c;" horiz-adv-x="822" 
d="M782 360c0 -212 -139 -374 -371 -374s-370 162 -370 374c0 211 138 374 370 374s371 -163 371 -374zM585 360c0 113 -62 202 -175 202c-112 0 -173 -89 -173 -202c0 -114 61 -203 173 -203c113 0 175 89 175 203zM558 757h-298v107h298v-107z" />
    <glyph glyph-name="Obreve" unicode="&#x14e;" horiz-adv-x="822" 
d="M782 360c0 -212 -139 -374 -371 -374s-370 162 -370 374c0 211 138 374 370 374s371 -163 371 -374zM585 360c0 113 -62 202 -175 202c-112 0 -173 -89 -173 -202c0 -114 61 -203 173 -203c113 0 175 89 175 203zM410 750c-103 0 -164 26 -171 119h108
c2 -13 25 -20 63 -20c39 0 60 7 64 20h107c-6 -93 -67 -119 -171 -119z" />
    <glyph glyph-name="Ohungarumlaut" unicode="&#x150;" horiz-adv-x="822" 
d="M782 360c0 -212 -139 -374 -371 -374s-370 162 -370 374c0 211 138 374 370 374s371 -163 371 -374zM585 360c0 113 -62 202 -175 202c-112 0 -173 -89 -173 -202c0 -114 61 -203 173 -203c113 0 175 89 175 203zM384 750h-150l65 100h178zM580 750h-150l64 100h178z" />
    <glyph glyph-name="Oslash" unicode="&#xd8;" horiz-adv-x="822" 
d="M782 360c0 -212 -139 -374 -371 -374c-94 0 -173 26 -233 72l-82 -72l-96 112l84 73c-28 55 -43 119 -43 189c0 211 138 374 370 374c93 0 171 -27 231 -72l83 73l97 -112l-84 -74c29 -55 44 -119 44 -189zM585 360c0 17 -2 35 -5 51l-261 -229c25 -16 55 -25 91 -25
c113 0 175 89 175 203zM237 360c0 -18 1 -35 4 -51l259 228c-25 16 -55 25 -90 25c-112 0 -173 -89 -173 -202z" />
    <glyph glyph-name="Oslashacute" unicode="&#x1fe;" horiz-adv-x="822" 
d="M782 360c0 -212 -139 -374 -371 -374c-94 0 -173 26 -233 72l-82 -72l-96 112l84 73c-28 55 -43 119 -43 189c0 211 138 374 370 374c93 0 171 -27 231 -72l83 73l97 -112l-84 -74c29 -55 44 -119 44 -189zM585 360c0 17 -2 35 -5 51l-261 -229c25 -16 55 -25 91 -25
c113 0 175 89 175 203zM237 360c0 -18 1 -35 4 -51l259 228c-25 16 -55 25 -90 25c-112 0 -173 -89 -173 -202zM484 750h-153l65 100h180z" />
    <glyph glyph-name="OE" unicode="&#x152;" horiz-adv-x="1056" 
d="M1004 0h-595c-227 0 -362 147 -362 360c0 214 135 360 362 360h586v-172h-279v-95h232v-171h-232v-110h288v-172zM521 172v376h-109c-101 0 -168 -75 -168 -188c0 -114 67 -188 168 -188h109z" />
    <glyph glyph-name="Racute" unicode="&#x154;" horiz-adv-x="764" 
d="M738 0h-240l-131 196h-92v-196h-195v720h356c166 0 264 -105 264 -262c0 -101 -44 -185 -123 -229zM503 458c0 55 -30 90 -93 90h-135v-182h135c62 0 93 42 93 92zM418 750h-153l65 100h180z" />
    <glyph glyph-name="Rcaron" unicode="&#x158;" horiz-adv-x="764" 
d="M738 0h-240l-131 196h-92v-196h-195v720h356c166 0 264 -105 264 -262c0 -101 -44 -185 -123 -229zM503 458c0 55 -30 90 -93 90h-135v-182h135c62 0 93 42 93 92zM431 750h-174l-88 100h134l41 -33l41 33h134z" />
    <glyph glyph-name="Rcommaaccent" unicode="&#x156;" horiz-adv-x="764" 
d="M738 0h-240l-131 196h-92v-196h-195v720h356c166 0 264 -105 264 -262c0 -101 -44 -185 -123 -229zM503 458c0 55 -30 90 -93 90h-135v-182h135c62 0 93 42 93 92zM374 -196l-121 41c36 35 49 67 49 114h156c0 -71 -27 -116 -84 -155z" />
    <glyph glyph-name="germandbls.cap" unicode="&#xe0aa;" horiz-adv-x="1386" 
d="M653 225c0 -152 -112 -239 -319 -239c-125 0 -214 39 -288 103l115 147c52 -53 116 -81 197 -81c71 0 100 17 100 47c0 90 -397 27 -397 298c0 151 110 234 287 234c124 0 210 -28 284 -91l-114 -147c-44 44 -102 68 -181 68c-60 0 -83 -17 -83 -44
c0 -86 399 -24 399 -295zM1346 225c0 -152 -112 -239 -319 -239c-125 0 -214 39 -288 103l115 147c52 -53 116 -81 197 -81c71 0 100 17 100 47c0 90 -397 27 -397 298c0 151 110 234 287 234c124 0 210 -28 284 -91l-114 -147c-44 44 -102 68 -181 68
c-60 0 -83 -17 -83 -44c0 -86 399 -24 399 -295z" />
    <glyph glyph-name="Sacute" unicode="&#x15a;" horiz-adv-x="693" 
d="M653 225c0 -152 -112 -239 -319 -239c-125 0 -214 39 -288 103l115 147c52 -53 116 -81 197 -81c71 0 100 17 100 47c0 90 -397 27 -397 298c0 151 110 234 287 234c124 0 210 -28 284 -91l-114 -147c-44 44 -102 68 -181 68c-60 0 -83 -17 -83 -44
c0 -86 399 -24 399 -295zM430 750h-153l65 100h180z" />
    <glyph glyph-name="Scircumflex" unicode="&#x15c;" horiz-adv-x="693" 
d="M653 225c0 -152 -112 -239 -319 -239c-125 0 -214 39 -288 103l115 147c52 -53 116 -81 197 -81c71 0 100 17 100 47c0 90 -397 27 -397 298c0 151 110 234 287 234c124 0 210 -28 284 -91l-114 -147c-44 44 -102 68 -181 68c-60 0 -83 -17 -83 -44
c0 -86 399 -24 399 -295zM532 750h-134l-42 26l-40 -26h-134l88 100h174z" />
    <glyph glyph-name="Scaron" unicode="&#x160;" horiz-adv-x="693" 
d="M653 225c0 -152 -112 -239 -319 -239c-125 0 -214 39 -288 103l115 147c52 -53 116 -81 197 -81c71 0 100 17 100 47c0 90 -397 27 -397 298c0 151 110 234 287 234c124 0 210 -28 284 -91l-114 -147c-44 44 -102 68 -181 68c-60 0 -83 -17 -83 -44
c0 -86 399 -24 399 -295zM443 750h-174l-88 100h134l41 -33l41 33h134z" />
    <glyph glyph-name="Scedilla" unicode="&#x15e;" horiz-adv-x="693" 
d="M457 -99c0 -54 -47 -85 -120 -85c-54 0 -102 16 -129 42l56 81c7 -8 20 -15 37 -15c15 0 23 7 23 18c0 14 -12 27 -37 46c-101 9 -177 45 -241 101l115 147c52 -53 116 -81 197 -81c71 0 100 17 100 47c0 90 -397 27 -397 298c0 151 110 234 287 234
c124 0 210 -28 284 -91l-114 -147c-44 44 -102 68 -181 68c-60 0 -83 -17 -83 -44c0 -86 399 -24 399 -295c0 -133 -86 -216 -245 -235c25 -22 49 -51 49 -89z" />
    <glyph glyph-name="Scommaaccent" unicode="&#x218;" horiz-adv-x="693" 
d="M653 225c0 -152 -112 -239 -319 -239c-125 0 -214 39 -288 103l115 147c52 -53 116 -81 197 -81c71 0 100 17 100 47c0 90 -397 27 -397 298c0 151 110 234 287 234c124 0 210 -28 284 -91l-114 -147c-44 44 -102 68 -181 68c-60 0 -83 -17 -83 -44
c0 -86 399 -24 399 -295zM340 -196l-121 41c36 35 49 67 49 114h156c0 -71 -27 -116 -84 -155z" />
    <glyph glyph-name="Tcaron" unicode="&#x164;" horiz-adv-x="708" 
d="M451 0h-194v548h-238v172h670v-172h-238v-548zM444 750h-174l-88 100h134l41 -33l41 33h134z" />
    <glyph glyph-name="Tcommaaccent" unicode="&#x162;" horiz-adv-x="708" 
d="M451 0h-194v548h-238v172h670v-172h-238v-548zM353 -196l-121 41c36 35 49 67 49 114h156c0 -71 -27 -116 -84 -155z" />
    <glyph glyph-name="Tcommaaccent" unicode="&#x21a;" horiz-adv-x="708" 
d="M451 0h-194v548h-238v172h670v-172h-238v-548zM353 -196l-121 41c36 35 49 67 49 114h156c0 -71 -27 -116 -84 -155z" />
    <glyph glyph-name="Tbar" unicode="&#x166;" horiz-adv-x="708" 
d="M451 0h-194v232h-179v145h179v171h-238v172h670v-172h-238v-171h179v-145h-179v-232z" />
    <glyph glyph-name="Ugrave" unicode="&#xd9;" horiz-adv-x="804" 
d="M401 -14c-208 0 -331 138 -331 316v418h195v-411c0 -88 52 -152 140 -152c89 0 143 64 143 152v411h186v-418c0 -178 -125 -316 -333 -316zM481 750h-152l-93 100h180z" />
    <glyph glyph-name="Uacute" unicode="&#xda;" horiz-adv-x="804" 
d="M401 -14c-208 0 -331 138 -331 316v418h195v-411c0 -88 52 -152 140 -152c89 0 143 64 143 152v411h186v-418c0 -178 -125 -316 -333 -316zM478 750h-153l65 100h180z" />
    <glyph glyph-name="Ucircumflex" unicode="&#xdb;" horiz-adv-x="804" 
d="M401 -14c-208 0 -331 138 -331 316v418h195v-411c0 -88 52 -152 140 -152c89 0 143 64 143 152v411h186v-418c0 -178 -125 -316 -333 -316zM580 750h-134l-42 26l-40 -26h-134l88 100h174z" />
    <glyph glyph-name="Utilde" unicode="&#x168;" horiz-adv-x="804" 
d="M401 -14c-208 0 -331 138 -331 316v418h195v-411c0 -88 52 -152 140 -152c89 0 143 64 143 152v411h186v-418c0 -178 -125 -316 -333 -316zM477 751c-51 0 -103 13 -135 13c-12 0 -17 -4 -19 -14h-107c1 61 11 118 84 118c51 0 102 -13 134 -13c13 0 18 3 20 14h106
c-1 -61 -11 -118 -83 -118z" />
    <glyph glyph-name="Udieresis" unicode="&#xdc;" horiz-adv-x="804" 
d="M401 -14c-208 0 -331 138 -331 316v418h195v-411c0 -88 52 -152 140 -152c89 0 143 64 143 152v411h186v-418c0 -178 -125 -316 -333 -316zM602 754h-168v111h168v-111zM377 754h-168v111h168v-111z" />
    <glyph glyph-name="Umacron" unicode="&#x16a;" horiz-adv-x="804" 
d="M401 -14c-208 0 -331 138 -331 316v418h195v-411c0 -88 52 -152 140 -152c89 0 143 64 143 152v411h186v-418c0 -178 -125 -316 -333 -316zM553 757h-298v107h298v-107z" />
    <glyph glyph-name="Ubreve" unicode="&#x16c;" horiz-adv-x="804" 
d="M401 -14c-208 0 -331 138 -331 316v418h195v-411c0 -88 52 -152 140 -152c89 0 143 64 143 152v411h186v-418c0 -178 -125 -316 -333 -316zM404 750c-103 0 -164 26 -171 119h108c2 -13 25 -20 63 -20c39 0 60 7 64 20h107c-6 -93 -67 -119 -171 -119z" />
    <glyph glyph-name="Uring" unicode="&#x16e;" horiz-adv-x="804" 
d="M401 -14c-208 0 -331 138 -331 316v418h195v-411c0 -88 52 -152 140 -152c89 0 143 64 143 152v411h186v-418c0 -178 -125 -316 -333 -316zM426 832c0 12 -8 18 -21 18c-16 0 -23 -6 -23 -18c0 -13 7 -18 23 -18c13 0 21 5 21 18zM531 832c0 -50 -41 -82 -126 -82
c-81 0 -119 33 -119 82c0 48 38 82 119 82c85 0 126 -34 126 -82z" />
    <glyph glyph-name="Uhungarumlaut" unicode="&#x170;" horiz-adv-x="804" 
d="M401 -14c-208 0 -331 138 -331 316v418h195v-411c0 -88 52 -152 140 -152c89 0 143 64 143 152v411h186v-418c0 -178 -125 -316 -333 -316zM574 750h-150l64 100h178zM378 750h-150l65 100h178z" />
    <glyph glyph-name="Uogonek" unicode="&#x172;" horiz-adv-x="804" 
d="M545 -142c-27 -26 -74 -42 -129 -42c-73 0 -120 31 -120 85c0 38 22 67 48 89c-174 22 -274 151 -274 312v418h195v-411c0 -88 52 -152 140 -152c89 0 143 64 143 152v411h186v-418c0 -157 -97 -283 -263 -310c-29 -21 -42 -35 -42 -50c0 -11 8 -18 24 -18s29 7 36 15z
" />
    <glyph glyph-name="Wgrave" unicode="&#x1e80;" horiz-adv-x="1070" 
d="M1038 720l-144 -720h-219l-145 260h-3l-144 -260h-211l-140 720h196l82 -431h2l214 407h9l215 -407h3l80 431h205zM608 750h-152l-93 100h180z" />
    <glyph glyph-name="Wacute" unicode="&#x1e82;" horiz-adv-x="1070" 
d="M1038 720l-144 -720h-219l-145 260h-3l-144 -260h-211l-140 720h196l82 -431h2l214 407h9l215 -407h3l80 431h205zM605 750h-153l65 100h180z" />
    <glyph glyph-name="Wcircumflex" unicode="&#x174;" horiz-adv-x="1070" 
d="M1038 720l-144 -720h-219l-145 260h-3l-144 -260h-211l-140 720h196l82 -431h2l214 407h9l215 -407h3l80 431h205zM707 750h-134l-42 26l-40 -26h-134l88 100h174z" />
    <glyph glyph-name="Wdieresis" unicode="&#x1e84;" horiz-adv-x="1070" 
d="M1038 720l-144 -720h-219l-145 260h-3l-144 -260h-211l-140 720h196l82 -431h2l214 407h9l215 -407h3l80 431h205zM730 754h-168v111h168v-111zM505 754h-168v111h168v-111z" />
    <glyph glyph-name="Ygrave" unicode="&#x1ef2;" horiz-adv-x="795" 
d="M492 0h-195v280l-291 440h237l151 -245h2l158 245h236l-298 -440v-280zM471 750h-152l-93 100h180z" />
    <glyph glyph-name="Yacute" unicode="&#xdd;" horiz-adv-x="795" 
d="M492 0h-195v280l-291 440h237l151 -245h2l158 245h236l-298 -440v-280zM469 750h-153l65 100h180z" />
    <glyph glyph-name="Ycircumflex" unicode="&#x176;" horiz-adv-x="795" 
d="M492 0h-195v280l-291 440h237l151 -245h2l158 245h236l-298 -440v-280zM571 750h-134l-42 26l-40 -26h-134l88 100h174z" />
    <glyph glyph-name="Ydieresis" unicode="&#x178;" horiz-adv-x="795" 
d="M492 0h-195v280l-291 440h237l151 -245h2l158 245h236l-298 -440v-280zM593 754h-168v111h168v-111zM368 754h-168v111h168v-111z" />
    <glyph glyph-name="Zacute" unicode="&#x179;" horiz-adv-x="742" 
d="M685 0h-627v168l356 380h-343v172h600v-168l-349 -380h363v-172zM437 750h-153l65 100h180z" />
    <glyph glyph-name="Zcaron" unicode="&#x17d;" horiz-adv-x="742" 
d="M685 0h-627v168l356 380h-343v172h600v-168l-349 -380h363v-172zM450 750h-174l-88 100h134l41 -33l41 33h134z" />
    <glyph glyph-name="Zdotaccent" unicode="&#x17b;" horiz-adv-x="742" 
d="M685 0h-627v168l356 380h-343v172h600v-168l-349 -380h363v-172zM457 754h-188v111h188v-111z" />
    <glyph glyph-name="Eng" unicode="&#x14a;" horiz-adv-x="824" 
d="M551 -232c-36 0 -66 2 -95 5l8 142c12 -3 26 -5 40 -5c41 0 54 27 54 76v13l-291 391h-1v-390h-186v720h184l293 -393h1v393h186v-767c0 -128 -68 -185 -193 -185z" />
    <glyph glyph-name="Eth" unicode="&#xd0;" horiz-adv-x="806" 
d="M766 360c0 -214 -135 -360 -363 -360h-323v296h-71v144h71v280h323c228 0 363 -147 363 -360zM569 360c0 114 -67 188 -168 188h-126v-108h180v-144h-180v-124h126c101 0 168 75 168 188z" />
    <glyph glyph-name="Thorn" unicode="&#xde;" horiz-adv-x="741" 
d="M707 397c0 -152 -99 -263 -264 -263h-168v-134h-195v720h195v-61h168c165 0 264 -105 264 -262zM509 397c0 56 -29 91 -92 91h-142v-182h142c62 0 92 41 92 91z" />
    <glyph glyph-name="a" unicode="a" horiz-adv-x="631" 
d="M306 126c52 0 78 18 78 40v5c0 22 -27 39 -79 39c-53 0 -80 -14 -80 -42s28 -42 81 -42zM570 0h-183v30h-2c-22 -22 -63 -44 -149 -44c-119 0 -196 73 -196 181c0 101 70 179 209 179c67 0 107 -15 134 -36h1v14c0 37 -35 77 -137 77c-41 0 -82 -3 -119 -10l-8 152
c50 6 100 8 152 8c187 0 298 -71 298 -227v-324z" />
    <glyph glyph-name="b" unicode="b" horiz-adv-x="689" 
d="M471 269c0 67 -38 120 -108 120s-107 -52 -107 -109v-22c0 -58 37 -110 107 -110s108 53 108 121zM658 269c0 -165 -97 -283 -245 -283c-68 0 -126 25 -157 61h-3v-47h-182v720h185v-229h2c29 36 87 60 155 60c148 0 245 -117 245 -282z" />
    <glyph glyph-name="c" unicode="c" horiz-adv-x="560" 
d="M546 78c-56 -61 -135 -92 -230 -92c-173 0 -285 116 -285 283c0 163 110 282 285 282c93 0 165 -31 221 -92l-116 -109c-23 29 -52 51 -93 51c-67 0 -110 -47 -110 -132c0 -86 44 -133 110 -133c45 0 79 22 103 51z" />
    <glyph glyph-name="d" unicode="d" horiz-adv-x="689" 
d="M326 148c70 0 107 52 107 110v22c0 57 -37 109 -107 109s-108 -53 -108 -120c0 -68 38 -121 108 -121zM618 0h-182v47h-3c-31 -36 -88 -61 -156 -61c-150 0 -246 118 -246 283s96 282 246 282c68 0 125 -24 155 -60h1v229h185v-720z" />
    <glyph glyph-name="e" unicode="e" horiz-adv-x="615" 
d="M327 -14c-180 0 -296 116 -296 283c0 162 112 282 290 282c143 0 248 -93 271 -223l-330 -169c21 -16 48 -23 80 -23c56 0 94 20 119 50l115 -108c-58 -61 -143 -92 -249 -92zM323 412c-60 0 -103 -35 -109 -116l172 88c-14 17 -38 28 -63 28z" />
    <glyph glyph-name="f" unicode="f" horiz-adv-x="393" 
d="M273 0h-185v383h-77v154h77v7c0 118 68 190 226 190c26 0 55 -2 82 -6l-7 -147c-15 4 -33 6 -54 6c-48 0 -62 -18 -62 -43v-7h101v-154h-101v-383z" />
    <glyph glyph-name="g" unicode="g" horiz-adv-x="673" 
d="M317 170c65 0 99 50 99 100v19c0 50 -34 100 -99 100c-64 0 -99 -49 -99 -109c0 -61 35 -110 99 -110zM291 -214c-29 0 -69 2 -107 7l8 151c25 -6 58 -9 86 -9c83 0 138 31 138 100v31h-1c-27 -35 -82 -59 -147 -59c-145 0 -237 114 -237 273c0 156 92 271 237 271
c65 0 120 -24 148 -59h4v45h181v-502c0 -157 -118 -249 -310 -249z" />
    <glyph glyph-name="h" unicode="h" horiz-adv-x="689" 
d="M627 0h-185v281c0 60 -29 108 -90 108c-60 0 -96 -52 -96 -109v-280h-185v720h185v-229h1c29 34 84 60 149 60c145 0 221 -90 221 -221v-330z" />
    <glyph glyph-name="i" unicode="i" horiz-adv-x="328" 
d="M256 0h-185v537h185v-537zM258 592h-189v128h189v-128z" />
    <glyph glyph-name="j" unicode="j" horiz-adv-x="328" 
d="M259 592h-190v128h190v-128zM63 -214c-36 0 -65 0 -94 6l7 144c12 -5 24 -7 37 -7c41 0 58 27 58 77v531h187v-542c0 -135 -68 -209 -195 -209z" />
    <glyph glyph-name="k" unicode="k" horiz-adv-x="679" 
d="M258 0h-187v720h187v-365h49l115 182h225l-181 -253l200 -284h-225l-129 202h-54v-202z" />
    <glyph glyph-name="l" unicode="l" horiz-adv-x="328" 
d="M256 0h-185v720h185v-720z" />
    <glyph glyph-name="m" unicode="m" horiz-adv-x="1060" 
d="M997 0h-184v281c0 60 -30 108 -91 108c-58 0 -95 -49 -95 -103v-286h-185v281c0 60 -29 108 -91 108c-59 0 -95 -52 -95 -109v-280h-185v537h182v-48h3c30 37 85 62 150 62c81 0 139 -30 174 -79h5c45 52 106 79 191 79c145 0 221 -90 221 -221v-330z" />
    <glyph glyph-name="n" unicode="n" horiz-adv-x="704" 
d="M642 0h-185v281c0 60 -32 108 -98 108s-103 -52 -103 -109v-280h-185v537h182v-47h3c31 35 87 61 156 61c150 0 230 -90 230 -221v-330z" />
    <glyph glyph-name="o" unicode="o" horiz-adv-x="654" 
d="M435 269c0 68 -38 121 -108 121c-71 0 -109 -53 -109 -121c0 -69 38 -122 109 -122c70 0 108 53 108 122zM622 269c0 -161 -111 -283 -295 -283c-185 0 -296 122 -296 283c0 160 111 282 296 282c184 0 295 -122 295 -282z" />
    <glyph glyph-name="p" unicode="p" horiz-adv-x="689" 
d="M471 269c0 67 -38 120 -108 120s-107 -52 -107 -109v-22c0 -58 37 -110 107 -110s108 53 108 121zM658 269c0 -165 -97 -283 -245 -283c-68 0 -126 25 -156 60h-1v-246h-185v737h182v-47h3c31 37 89 61 157 61c148 0 245 -117 245 -282z" />
    <glyph glyph-name="q" unicode="q" horiz-adv-x="689" 
d="M326 148c70 0 107 52 107 110v22c0 57 -37 109 -107 109s-108 -53 -108 -120c0 -68 38 -121 108 -121zM618 -200h-185v246h-1c-30 -35 -87 -60 -155 -60c-150 0 -246 118 -246 283s96 282 246 282c68 0 125 -24 156 -61h3v47h182v-737z" />
    <glyph glyph-name="r" unicode="r" horiz-adv-x="457" 
d="M256 0h-185v537h182v-49h3c31 37 85 63 148 63c14 0 28 -1 42 -4l-11 -185c-23 5 -43 7 -61 7c-81 0 -118 -45 -118 -99v-270z" />
    <glyph glyph-name="s" unicode="s" horiz-adv-x="551" 
d="M522 167c0 -116 -107 -181 -257 -181c-103 0 -172 29 -235 78l99 124c40 -35 85 -56 150 -56c45 0 65 8 65 26c0 55 -300 2 -300 216c0 116 100 177 233 177c102 0 168 -22 228 -69l-98 -124c-31 30 -75 48 -125 48c-43 0 -61 -9 -61 -24c0 -52 301 0 301 -215z" />
    <glyph glyph-name="t" unicode="t" horiz-adv-x="393" 
d="M273 0h-185v383h-77v154h77v183h185v-183h101v-154h-101v-383z" />
    <glyph glyph-name="u" unicode="u" horiz-adv-x="680" 
d="M340 -14c-182 0 -278 105 -278 241v310h185v-283c0 -62 32 -107 93 -107s93 45 93 107v283h185v-310c0 -136 -96 -241 -278 -241z" />
    <glyph glyph-name="v" unicode="v" horiz-adv-x="635" 
d="M629 537l-209 -537h-205l-208 537h199l113 -335h1l111 335h198z" />
    <glyph glyph-name="w" unicode="w" horiz-adv-x="901" 
d="M876 537l-127 -537h-180l-118 183h-2l-120 -183h-179l-125 537h190l56 -286h1l174 275h8l177 -275h2l53 286h190z" />
    <glyph glyph-name="x" unicode="x" horiz-adv-x="663" 
d="M228 0h-221l201 285l-175 252h223l78 -132l82 132h221l-179 -252l199 -285h-224l-101 165z" />
    <glyph glyph-name="y" unicode="y" horiz-adv-x="635" 
d="M201 -214c-35 0 -64 1 -92 6l7 146c12 -4 29 -7 47 -7c44 0 62 18 75 53l6 16l-237 537h199l123 -296h2l100 296h198l-221 -569c-44 -111 -92 -182 -207 -182z" />
    <glyph glyph-name="z" unicode="z" horiz-adv-x="598" 
d="M549 0h-484v151l220 232h-211v154h466v-151l-210 -232h219v-154z" />
    <glyph glyph-name="agrave" unicode="&#xe0;" horiz-adv-x="631" 
d="M306 126c52 0 78 18 78 40v5c0 22 -27 39 -79 39c-53 0 -80 -14 -80 -42s28 -42 81 -42zM570 0h-183v30h-2c-22 -22 -63 -44 -149 -44c-119 0 -196 73 -196 181c0 101 70 179 209 179c67 0 107 -15 134 -36h1v14c0 37 -35 77 -137 77c-41 0 -82 -3 -119 -10l-8 152
c50 6 100 8 152 8c187 0 298 -71 298 -227v-324zM375 579h-152l-87 141h179z" />
    <glyph glyph-name="aacute" unicode="&#xe1;" horiz-adv-x="631" 
d="M306 126c52 0 78 18 78 40v5c0 22 -27 39 -79 39c-53 0 -80 -14 -80 -42s28 -42 81 -42zM570 0h-183v30h-2c-22 -22 -63 -44 -149 -44c-119 0 -196 73 -196 181c0 101 70 179 209 179c67 0 107 -15 134 -36h1v14c0 37 -35 77 -137 77c-41 0 -82 -3 -119 -10l-8 152
c50 6 100 8 152 8c187 0 298 -71 298 -227v-324zM377 579h-152l60 141h179z" />
    <glyph glyph-name="acircumflex" unicode="&#xe2;" horiz-adv-x="631" 
d="M306 126c52 0 78 18 78 40v5c0 22 -27 39 -79 39c-53 0 -80 -14 -80 -42s28 -42 81 -42zM570 0h-183v30h-2c-22 -22 -63 -44 -149 -44c-119 0 -196 73 -196 181c0 101 70 179 209 179c67 0 107 -15 134 -36h1v14c0 37 -35 77 -137 77c-41 0 -82 -3 -119 -10l-8 152
c50 6 100 8 152 8c187 0 298 -71 298 -227v-324zM476 579h-133l-42 55l-40 -55h-134l88 141h174z" />
    <glyph glyph-name="atilde" unicode="&#xe3;" horiz-adv-x="631" 
d="M306 126c52 0 78 18 78 40v5c0 22 -27 39 -79 39c-53 0 -80 -14 -80 -42s28 -42 81 -42zM570 0h-183v30h-2c-22 -22 -63 -44 -149 -44c-119 0 -196 73 -196 181c0 101 70 179 209 179c67 0 107 -15 134 -36h1v14c0 37 -35 77 -137 77c-41 0 -82 -3 -119 -10l-8 152
c50 6 100 8 152 8c187 0 298 -71 298 -227v-324zM371 585c-52 0 -92 15 -124 15c-13 0 -19 -4 -22 -17h-107c1 71 20 135 92 135c52 0 92 -16 124 -16c12 0 19 4 22 18h106c-1 -72 -20 -135 -91 -135z" />
    <glyph glyph-name="adieresis" unicode="&#xe4;" horiz-adv-x="631" 
d="M570 0h-183v30h-2c-22 -22 -63 -44 -149 -44c-119 0 -196 73 -196 181c0 101 70 179 209 179c67 0 107 -15 134 -36h1v14c0 37 -35 77 -137 77c-41 0 -82 -3 -119 -10l-8 152c50 6 100 8 152 8c187 0 298 -71 298 -227v-324zM497 593h-168v127h168v-127zM272 593h-168
v127h168v-127zM306 126c52 0 78 18 78 40v5c0 22 -27 39 -79 39c-53 0 -80 -14 -80 -42s28 -42 81 -42z" />
    <glyph glyph-name="amacron" unicode="&#x101;" horiz-adv-x="631" 
d="M306 126c52 0 78 18 78 40v5c0 22 -27 39 -79 39c-53 0 -80 -14 -80 -42s28 -42 81 -42zM570 0h-183v30h-2c-22 -22 -63 -44 -149 -44c-119 0 -196 73 -196 181c0 101 70 179 209 179c67 0 107 -15 134 -36h1v14c0 37 -35 77 -137 77c-41 0 -82 -3 -119 -10l-8 152
c50 6 100 8 152 8c187 0 298 -71 298 -227v-324zM449 607h-298v107h298v-107z" />
    <glyph glyph-name="abreve" unicode="&#x103;" horiz-adv-x="631" 
d="M306 126c52 0 78 18 78 40v5c0 22 -27 39 -79 39c-53 0 -80 -14 -80 -42s28 -42 81 -42zM570 0h-183v30h-2c-22 -22 -63 -44 -149 -44c-119 0 -196 73 -196 181c0 101 70 179 209 179c67 0 107 -15 134 -36h1v14c0 37 -35 77 -137 77c-41 0 -82 -3 -119 -10l-8 152
c50 6 100 8 152 8c187 0 298 -71 298 -227v-324zM301 583c-103 0 -164 41 -171 137h108c2 -15 25 -24 63 -24c39 0 60 9 64 24h107c-6 -96 -67 -137 -171 -137z" />
    <glyph glyph-name="aring" unicode="&#xe5;" horiz-adv-x="631" 
d="M306 126c52 0 78 18 78 40v5c0 22 -27 39 -79 39c-53 0 -80 -14 -80 -42s28 -42 81 -42zM570 0h-183v30h-2c-22 -22 -63 -44 -149 -44c-119 0 -196 73 -196 181c0 101 70 179 209 179c67 0 107 -15 134 -36h1v14c0 37 -35 77 -137 77c-41 0 -82 -3 -119 -10l-8 152
c50 6 100 8 152 8c187 0 298 -71 298 -227v-324zM322 652c0 12 -8 18 -21 18c-16 0 -23 -6 -23 -18c0 -13 7 -18 23 -18c13 0 21 5 21 18zM427 652c0 -50 -41 -82 -126 -82c-81 0 -119 33 -119 82c0 48 38 82 119 82c85 0 126 -34 126 -82z" />
    <glyph glyph-name="aringacute" unicode="&#x1fb;" horiz-adv-x="631" 
d="M306 126c52 0 78 18 78 40v5c0 22 -27 39 -79 39c-53 0 -80 -14 -80 -42s28 -42 81 -42zM570 0h-183v30h-2c-22 -22 -63 -44 -149 -44c-119 0 -196 73 -196 181c0 101 70 179 209 179c67 0 107 -15 134 -36h1v14c0 37 -35 77 -137 77c-41 0 -82 -3 -119 -10l-8 152
c50 6 100 8 152 8c187 0 298 -71 298 -227v-324zM336 652c0 12 -8 18 -21 18c-16 0 -23 -6 -23 -18c0 -13 7 -18 23 -18c13 0 21 5 21 18zM441 652c0 -50 -41 -82 -126 -82c-81 0 -119 33 -119 82c0 48 38 82 119 82c85 0 126 -34 126 -82zM392 750h-152l60 141h179z" />
    <glyph glyph-name="aogonek" unicode="&#x105;" horiz-adv-x="631" 
d="M576 -142c-27 -26 -74 -42 -129 -42c-73 0 -120 31 -120 85c0 44 31 76 61 99h-1v30h-2c-22 -22 -63 -44 -149 -44c-119 0 -196 73 -196 181c0 101 70 179 209 179c67 0 107 -15 134 -36h1v14c0 37 -35 77 -137 77c-41 0 -82 -3 -119 -10l-8 152c50 6 100 8 152 8
c187 0 298 -71 298 -227v-324h-56c-37 -26 -54 -41 -54 -58c0 -11 8 -18 24 -18s29 7 36 15zM306 126c52 0 78 18 78 40v5c0 22 -27 39 -79 39c-53 0 -80 -14 -80 -42s28 -42 81 -42z" />
    <glyph glyph-name="ae" unicode="&#xe6;" horiz-adv-x="960" 
d="M672 -14c-88 0 -155 25 -202 70c-41 -46 -108 -70 -204 -70c-158 0 -226 79 -226 181c0 101 70 179 209 179c67 0 107 -15 134 -36h1v14c0 37 -35 77 -137 77c-41 0 -82 -3 -119 -10l-8 152c50 6 100 8 152 8c95 0 169 -18 218 -57c45 36 104 57 176 57
c142 0 248 -93 271 -223l-327 -168c20 -16 47 -24 77 -24c56 0 93 20 119 50l115 -108c-58 -61 -143 -92 -249 -92zM306 126c52 0 78 18 78 40v5c0 22 -27 39 -79 39c-53 0 -80 -14 -80 -42s28 -42 81 -42zM668 412c-54 0 -98 -33 -104 -114l165 85c-13 17 -36 29 -61 29z
" />
    <glyph glyph-name="aeacute" unicode="&#x1fd;" horiz-adv-x="960" 
d="M672 -14c-88 0 -155 25 -202 70c-41 -46 -108 -70 -204 -70c-158 0 -226 79 -226 181c0 101 70 179 209 179c67 0 107 -15 134 -36h1v14c0 37 -35 77 -137 77c-41 0 -82 -3 -119 -10l-8 152c50 6 100 8 152 8c95 0 169 -18 218 -57c45 36 104 57 176 57
c142 0 248 -93 271 -223l-327 -168c20 -16 47 -24 77 -24c56 0 93 20 119 50l115 -108c-58 -61 -143 -92 -249 -92zM589 579h-152l60 141h179zM306 126c52 0 78 18 78 40v5c0 22 -27 39 -79 39c-53 0 -80 -14 -80 -42s28 -42 81 -42zM668 412c-54 0 -98 -33 -104 -114
l165 85c-13 17 -36 29 -61 29z" />
    <glyph glyph-name="cacute" unicode="&#x107;" horiz-adv-x="560" 
d="M546 78c-56 -61 -135 -92 -230 -92c-173 0 -285 116 -285 283c0 163 110 282 285 282c93 0 165 -31 221 -92l-116 -109c-23 29 -52 51 -93 51c-67 0 -110 -47 -110 -132c0 -86 44 -133 110 -133c45 0 79 22 103 51zM391 579h-152l60 141h179z" />
    <glyph glyph-name="ccircumflex" unicode="&#x109;" horiz-adv-x="560" 
d="M546 78c-56 -61 -135 -92 -230 -92c-173 0 -285 116 -285 283c0 163 110 282 285 282c93 0 165 -31 221 -92l-116 -109c-23 29 -52 51 -93 51c-67 0 -110 -47 -110 -132c0 -86 44 -133 110 -133c45 0 79 22 103 51zM490 579h-133l-42 55l-40 -55h-134l88 141h174z" />
    <glyph glyph-name="ccaron" unicode="&#x10d;" horiz-adv-x="560" 
d="M546 78c-56 -61 -135 -92 -230 -92c-173 0 -285 116 -285 283c0 163 110 282 285 282c93 0 165 -31 221 -92l-116 -109c-23 29 -52 51 -93 51c-67 0 -110 -47 -110 -132c0 -86 44 -133 110 -133c45 0 79 22 103 51zM403 579h-174l-88 141h134l41 -56l41 56h133z" />
    <glyph glyph-name="cdotaccent" unicode="&#x10b;" horiz-adv-x="560" 
d="M546 78c-56 -61 -135 -92 -230 -92c-173 0 -285 116 -285 283c0 163 110 282 285 282c93 0 165 -31 221 -92l-116 -109c-23 29 -52 51 -93 51c-67 0 -110 -47 -110 -132c0 -86 44 -133 110 -133c45 0 79 22 103 51zM411 593h-190v127h190v-127z" />
    <glyph glyph-name="ccedilla" unicode="&#xe7;" horiz-adv-x="560" 
d="M429 -99c0 -54 -47 -85 -120 -85c-54 0 -102 16 -129 42l56 81c7 -8 20 -15 37 -15c15 0 23 7 23 18c0 15 -14 29 -42 50c-138 24 -223 131 -223 277c0 163 110 282 285 282c93 0 165 -31 221 -92l-116 -109c-23 29 -52 51 -93 51c-67 0 -110 -47 -110 -132
c0 -86 44 -133 110 -133c45 0 79 22 103 51l115 -109c-43 -47 -100 -76 -167 -87c26 -22 50 -51 50 -90z" />
    <glyph glyph-name="ccedilla.fr" unicode="&#xe16b;" horiz-adv-x="560" 
d="M546 78c-56 -61 -135 -92 -230 -92c-173 0 -285 116 -285 283c0 163 110 282 285 282c93 0 165 -31 221 -92l-116 -109c-23 29 -52 51 -93 51c-67 0 -110 -47 -110 -132c0 -86 44 -133 110 -133c45 0 79 22 103 51zM315 -196l-122 41c37 35 50 67 50 114h156
c0 -71 -27 -116 -84 -155z" />
    <glyph glyph-name="dcaron" unicode="&#x10f;" horiz-adv-x="843" 
d="M326 148c70 0 107 52 107 110v22c0 57 -37 109 -107 109s-108 -53 -108 -120c0 -68 38 -121 108 -121zM618 0h-182v47h-3c-31 -36 -88 -61 -156 -61c-150 0 -246 118 -246 283s96 282 246 282c68 0 125 -24 155 -60h1v229h185v-720zM812 579h-151l41 141h170z" />
    <glyph glyph-name="dcroat" unicode="&#x111;" horiz-adv-x="689" 
d="M618 0h-182v47h-3c-31 -36 -88 -61 -156 -61c-150 0 -246 118 -246 283s96 282 246 282c68 0 125 -24 155 -60h1v84h-162v127h162v18h185v-18h69v-127h-69v-575zM326 148c70 0 107 52 107 110v22c0 57 -37 109 -107 109s-108 -53 -108 -120c0 -68 38 -121 108 -121z" />
    <glyph glyph-name="egrave" unicode="&#xe8;" horiz-adv-x="615" 
d="M327 -14c-180 0 -296 116 -296 283c0 162 112 282 290 282c143 0 248 -93 271 -223l-330 -169c21 -16 48 -23 80 -23c56 0 94 20 119 50l115 -108c-58 -61 -143 -92 -249 -92zM395 579h-152l-87 141h179zM323 412c-60 0 -103 -35 -109 -116l172 88c-14 17 -38 28 -63 28z
" />
    <glyph glyph-name="eacute" unicode="&#xe9;" horiz-adv-x="615" 
d="M327 -14c-180 0 -296 116 -296 283c0 162 112 282 290 282c143 0 248 -93 271 -223l-330 -169c21 -16 48 -23 80 -23c56 0 94 20 119 50l115 -108c-58 -61 -143 -92 -249 -92zM397 579h-152l60 141h179zM323 412c-60 0 -103 -35 -109 -116l172 88c-14 17 -38 28 -63 28z
" />
    <glyph glyph-name="ecircumflex" unicode="&#xea;" horiz-adv-x="615" 
d="M327 -14c-180 0 -296 116 -296 283c0 162 112 282 290 282c143 0 248 -93 271 -223l-330 -169c21 -16 48 -23 80 -23c56 0 94 20 119 50l115 -108c-58 -61 -143 -92 -249 -92zM496 579h-133l-42 55l-40 -55h-134l88 141h174zM323 412c-60 0 -103 -35 -109 -116l172 88
c-14 17 -38 28 -63 28z" />
    <glyph glyph-name="ecaron" unicode="&#x11b;" horiz-adv-x="615" 
d="M327 -14c-180 0 -296 116 -296 283c0 162 112 282 290 282c143 0 248 -93 271 -223l-330 -169c21 -16 48 -23 80 -23c56 0 94 20 119 50l115 -108c-58 -61 -143 -92 -249 -92zM409 579h-174l-88 141h134l41 -56l41 56h133zM323 412c-60 0 -103 -35 -109 -116l172 88
c-14 17 -38 28 -63 28z" />
    <glyph glyph-name="edieresis" unicode="&#xeb;" horiz-adv-x="615" 
d="M327 -14c-180 0 -296 116 -296 283c0 162 112 282 290 282c143 0 248 -93 271 -223l-330 -169c21 -16 48 -23 80 -23c56 0 94 20 119 50l115 -108c-58 -61 -143 -92 -249 -92zM518 593h-168v127h168v-127zM293 593h-168v127h168v-127zM323 412c-60 0 -103 -35 -109 -116
l172 88c-14 17 -38 28 -63 28z" />
    <glyph glyph-name="emacron" unicode="&#x113;" horiz-adv-x="615" 
d="M327 -14c-180 0 -296 116 -296 283c0 162 112 282 290 282c143 0 248 -93 271 -223l-330 -169c21 -16 48 -23 80 -23c56 0 94 20 119 50l115 -108c-58 -61 -143 -92 -249 -92zM470 607h-298v107h298v-107zM323 412c-60 0 -103 -35 -109 -116l172 88c-14 17 -38 28 -63 28
z" />
    <glyph glyph-name="ebreve" unicode="&#x115;" horiz-adv-x="615" 
d="M327 -14c-180 0 -296 116 -296 283c0 162 112 282 290 282c143 0 248 -93 271 -223l-330 -169c21 -16 48 -23 80 -23c56 0 94 20 119 50l115 -108c-58 -61 -143 -92 -249 -92zM321 583c-103 0 -164 41 -171 137h108c2 -15 25 -24 63 -24c39 0 60 9 64 24h107
c-6 -96 -67 -137 -171 -137zM323 412c-60 0 -103 -35 -109 -116l172 88c-14 17 -38 28 -63 28z" />
    <glyph glyph-name="edotaccent" unicode="&#x117;" horiz-adv-x="615" 
d="M327 -14c-180 0 -296 116 -296 283c0 162 112 282 290 282c143 0 248 -93 271 -223l-330 -169c21 -16 48 -23 80 -23c56 0 94 20 119 50l115 -108c-58 -61 -143 -92 -249 -92zM417 593h-190v127h190v-127zM323 412c-60 0 -103 -35 -109 -116l172 88c-14 17 -38 28 -63 28
z" />
    <glyph glyph-name="eogonek" unicode="&#x119;" horiz-adv-x="615" 
d="M581 -142c-27 -26 -74 -42 -129 -42c-73 0 -120 34 -120 88c0 30 8 58 25 83c-10 0 -20 -1 -30 -1c-180 0 -296 116 -296 283c0 162 112 282 290 282c143 0 248 -93 271 -223l-330 -169c21 -16 48 -23 80 -23c56 0 94 20 119 50l115 -108c-15 -15 -30 -28 -48 -40
c-51 -37 -63 -66 -63 -94c0 -11 8 -20 24 -20s29 7 36 15zM323 412c-60 0 -103 -35 -109 -116l172 88c-14 17 -38 28 -63 28z" />
    <glyph glyph-name="gcircumflex" unicode="&#x11d;" horiz-adv-x="673" 
d="M317 170c65 0 99 50 99 100v19c0 50 -34 100 -99 100c-64 0 -99 -49 -99 -109c0 -61 35 -110 99 -110zM291 -214c-29 0 -69 2 -107 7l8 151c25 -6 58 -9 86 -9c83 0 138 31 138 100v31h-1c-27 -35 -82 -59 -147 -59c-145 0 -237 114 -237 273c0 156 92 271 237 271
c65 0 120 -24 148 -59h4v45h181v-502c0 -157 -118 -249 -310 -249zM504 579h-133l-42 55l-40 -55h-134l88 141h174z" />
    <glyph glyph-name="gbreve" unicode="&#x11f;" horiz-adv-x="673" 
d="M317 170c65 0 99 50 99 100v19c0 50 -34 100 -99 100c-64 0 -99 -49 -99 -109c0 -61 35 -110 99 -110zM291 -214c-29 0 -69 2 -107 7l8 151c25 -6 58 -9 86 -9c83 0 138 31 138 100v31h-1c-27 -35 -82 -59 -147 -59c-145 0 -237 114 -237 273c0 156 92 271 237 271
c65 0 120 -24 148 -59h4v45h181v-502c0 -157 -118 -249 -310 -249zM329 583c-103 0 -164 41 -171 137h108c2 -15 25 -24 63 -24c39 0 60 9 64 24h107c-6 -96 -67 -137 -171 -137z" />
    <glyph glyph-name="gdotaccent" unicode="&#x121;" horiz-adv-x="673" 
d="M317 170c65 0 99 50 99 100v19c0 50 -34 100 -99 100c-64 0 -99 -49 -99 -109c0 -61 35 -110 99 -110zM291 -214c-29 0 -69 2 -107 7l8 151c25 -6 58 -9 86 -9c83 0 138 31 138 100v31h-1c-27 -35 -82 -59 -147 -59c-145 0 -237 114 -237 273c0 156 92 271 237 271
c65 0 120 -24 148 -59h4v45h181v-502c0 -157 -118 -249 -310 -249zM425 593h-190v127h190v-127z" />
    <glyph glyph-name="gcommaaccent" unicode="&#x123;" horiz-adv-x="673" 
d="M317 170c65 0 99 50 99 100v19c0 50 -34 100 -99 100c-64 0 -99 -49 -99 -109c0 -61 35 -110 99 -110zM291 -214c-29 0 -69 2 -107 7l8 151c25 -6 58 -9 86 -9c83 0 138 31 138 100v31h-1c-27 -35 -82 -59 -147 -59c-145 0 -237 114 -237 273c0 156 92 271 237 271
c65 0 120 -24 148 -59h4v45h181v-502c0 -157 -118 -249 -310 -249zM408 579h-156c0 71 28 117 84 156l123 -41c-37 -36 -51 -68 -51 -115z" />
    <glyph glyph-name="hcircumflex" unicode="&#x125;" horiz-adv-x="689" 
d="M627 0h-185v281c0 60 -29 108 -90 108c-60 0 -96 -52 -96 -109v-280h-185v720h185v-229h1c29 34 84 60 149 60c145 0 221 -90 221 -221v-330zM337 762h-133l-42 55l-40 -55h-134l88 141h174z" />
    <glyph glyph-name="hbar" unicode="&#x127;" horiz-adv-x="689" 
d="M627 0h-185v281c0 60 -29 108 -90 108c-60 0 -96 -52 -96 -109v-280h-185v575h-62v127h62v18h185v-18h161v-127h-161v-84h1c29 34 84 60 149 60c145 0 221 -90 221 -221v-330z" />
    <glyph glyph-name="igrave" unicode="&#xec;" horiz-adv-x="328" 
d="M239 579h-152l-87 141h179zM256 0h-185v537h185v-537z" />
    <glyph glyph-name="iacute" unicode="&#xed;" horiz-adv-x="328" 
d="M241 579h-152l60 141h179zM256 0h-185v537h185v-537z" />
    <glyph glyph-name="icircumflex" unicode="&#xee;" horiz-adv-x="328" 
d="M256 0h-185v537h185v-537zM340 579h-133l-42 55l-40 -55h-134l88 141h174z" />
    <glyph glyph-name="itilde" unicode="&#x129;" horiz-adv-x="328" 
d="M235 585c-52 0 -92 15 -124 15c-13 0 -19 -4 -22 -17h-107c1 71 20 135 92 135c52 0 92 -16 124 -16c12 0 19 4 22 18h106c-1 -72 -20 -135 -91 -135zM256 0h-185v537h185v-537z" />
    <glyph glyph-name="idieresis" unicode="&#xef;" horiz-adv-x="328" 
d="M256 0h-185v537h185v-537zM136 593h-168v127h168v-127zM361 593h-168v127h168v-127z" />
    <glyph glyph-name="imacron" unicode="&#x12b;" horiz-adv-x="328" 
d="M313 607h-298v107h298v-107zM256 0h-185v537h185v-537z" />
    <glyph glyph-name="ibreve" unicode="&#x12d;" horiz-adv-x="328" 
d="M165 583c-103 0 -164 41 -171 137h108c2 -15 25 -24 63 -24c39 0 60 9 64 24h107c-6 -96 -67 -137 -171 -137zM256 0h-185v537h185v-537z" />
    <glyph glyph-name="iogonek" unicode="&#x12f;" horiz-adv-x="328" 
d="M288 -142c-27 -26 -74 -42 -129 -42c-73 0 -120 31 -120 85c0 44 31 76 61 99h-29v537h185v-537h-30c-37 -26 -54 -41 -54 -58c0 -11 8 -18 24 -18s29 7 36 15zM258 592h-189v128h189v-128z" />
    <glyph glyph-name="dotlessi" unicode="&#x131;" horiz-adv-x="328" 
d="M256 0h-185v537h185v-537z" />
    <glyph glyph-name="i.TRK" unicode="&#xe84b;" horiz-adv-x="328" 
d="M256 0h-185v537h185v-537zM258 592h-189v128h189v-128z" />
    <glyph glyph-name="ij" unicode="&#x133;" horiz-adv-x="656" 
d="M391 -214c-36 0 -65 0 -94 6l7 144c12 -5 24 -7 37 -7c41 0 58 27 58 77v531h187v-542c0 -135 -68 -209 -195 -209zM256 0h-185v537h185v-537zM587 592h-190v128h190v-128zM258 592h-189v128h189v-128z" />
    <glyph glyph-name="jcircumflex" unicode="&#x135;" horiz-adv-x="328" 
d="M63 -235c-36 0 -65 2 -94 6l7 141c12 -3 26 -5 41 -5c41 0 54 28 54 77v553h185v-587c0 -128 -67 -185 -193 -185zM339 579h-133l-42 55l-41 -55h-134l89 141h172z" />
    <glyph glyph-name="kcommaaccent" unicode="&#x137;" horiz-adv-x="679" 
d="M258 0h-187v720h187v-365h49l115 182h225l-181 -253l200 -284h-225l-129 202h-54v-202zM346 -196l-121 41c36 35 49 67 49 114h156c0 -71 -27 -116 -84 -155z" />
    <glyph glyph-name="lacute" unicode="&#x13a;" horiz-adv-x="328" 
d="M256 0h-185v720h185v-720zM239 762h-152l60 141h179z" />
    <glyph glyph-name="lcaron" unicode="&#x13e;" horiz-adv-x="482" 
d="M256 0h-185v720h185v-720zM450 579h-151l41 141h170z" />
    <glyph glyph-name="lcommaaccent" unicode="&#x13c;" horiz-adv-x="328" 
d="M256 0h-185v720h185v-720zM160 -196l-121 41c36 35 49 67 49 114h156c0 -71 -27 -116 -84 -155z" />
    <glyph glyph-name="lslash" unicode="&#x142;" horiz-adv-x="328" 
d="M256 0h-185v349l-28 -11l-44 119l72 30v233h185v-156l27 11l45 -119l-72 -30v-426z" />
    <glyph glyph-name="ldot" unicode="&#x140;" horiz-adv-x="521" 
d="M256 0h-185v720h185v-720zM524 174h-198v191h198v-191z" />
    <glyph glyph-name="nacute" unicode="&#x144;" horiz-adv-x="704" 
d="M642 0h-185v281c0 60 -32 108 -98 108s-103 -52 -103 -109v-280h-185v537h182v-47h3c31 35 87 61 156 61c150 0 230 -90 230 -221v-330zM460 579h-152l60 141h179z" />
    <glyph glyph-name="ncaron" unicode="&#x148;" horiz-adv-x="704" 
d="M642 0h-185v281c0 60 -32 108 -98 108s-103 -52 -103 -109v-280h-185v537h182v-47h3c31 35 87 61 156 61c150 0 230 -90 230 -221v-330zM472 579h-174l-88 141h134l41 -56l41 56h133z" />
    <glyph glyph-name="ntilde" unicode="&#xf1;" horiz-adv-x="704" 
d="M642 0h-185v281c0 60 -32 108 -98 108s-103 -52 -103 -109v-280h-185v537h182v-47h3c31 35 87 61 156 61c150 0 230 -90 230 -221v-330zM454 585c-52 0 -92 15 -124 15c-13 0 -19 -4 -22 -17h-107c1 71 20 135 92 135c52 0 92 -16 124 -16c12 0 19 4 22 18h106
c-1 -72 -20 -135 -91 -135z" />
    <glyph glyph-name="ncommaaccent" unicode="&#x146;" horiz-adv-x="704" 
d="M642 0h-185v281c0 60 -32 108 -98 108s-103 -52 -103 -109v-280h-185v537h182v-47h3c31 35 87 61 156 61c150 0 230 -90 230 -221v-330zM353 -196l-121 41c36 35 49 67 49 114h156c0 -71 -27 -116 -84 -155z" />
    <glyph glyph-name="ograve" unicode="&#xf2;" horiz-adv-x="654" 
d="M435 269c0 68 -38 121 -108 121c-71 0 -109 -53 -109 -121c0 -69 38 -122 109 -122c70 0 108 53 108 122zM622 269c0 -161 -111 -283 -295 -283c-185 0 -296 122 -296 283c0 160 111 282 296 282c184 0 295 -122 295 -282zM401 579h-152l-87 141h179z" />
    <glyph glyph-name="oacute" unicode="&#xf3;" horiz-adv-x="654" 
d="M435 269c0 68 -38 121 -108 121c-71 0 -109 -53 -109 -121c0 -69 38 -122 109 -122c70 0 108 53 108 122zM622 269c0 -161 -111 -283 -295 -283c-185 0 -296 122 -296 283c0 160 111 282 296 282c184 0 295 -122 295 -282zM402 579h-152l60 141h179z" />
    <glyph glyph-name="ocircumflex" unicode="&#xf4;" horiz-adv-x="654" 
d="M435 269c0 68 -38 121 -108 121c-71 0 -109 -53 -109 -121c0 -69 38 -122 109 -122c70 0 108 53 108 122zM622 269c0 -161 -111 -283 -295 -283c-185 0 -296 122 -296 283c0 160 111 282 296 282c184 0 295 -122 295 -282zM502 579h-133l-42 55l-40 -55h-134l88 141h174z
" />
    <glyph glyph-name="otilde" unicode="&#xf5;" horiz-adv-x="654" 
d="M435 269c0 68 -38 121 -108 121c-71 0 -109 -53 -109 -121c0 -69 38 -122 109 -122c70 0 108 53 108 122zM622 269c0 -161 -111 -283 -295 -283c-185 0 -296 122 -296 283c0 160 111 282 296 282c184 0 295 -122 295 -282zM396 585c-52 0 -92 15 -124 15
c-13 0 -19 -4 -22 -17h-107c1 71 20 135 92 135c52 0 92 -16 124 -16c12 0 19 4 22 18h106c-1 -72 -20 -135 -91 -135z" />
    <glyph glyph-name="odieresis" unicode="&#xf6;" horiz-adv-x="654" 
d="M622 269c0 -161 -111 -283 -295 -283c-185 0 -296 122 -296 283c0 160 111 282 296 282c184 0 295 -122 295 -282zM435 269c0 68 -38 121 -108 121c-71 0 -109 -53 -109 -121c0 -69 38 -122 109 -122c70 0 108 53 108 122zM298 593h-168v127h168v-127zM523 593h-168v127
h168v-127z" />
    <glyph glyph-name="omacron" unicode="&#x14d;" horiz-adv-x="654" 
d="M435 269c0 68 -38 121 -108 121c-71 0 -109 -53 -109 -121c0 -69 38 -122 109 -122c70 0 108 53 108 122zM622 269c0 -161 -111 -283 -295 -283c-185 0 -296 122 -296 283c0 160 111 282 296 282c184 0 295 -122 295 -282zM475 607h-298v107h298v-107z" />
    <glyph glyph-name="obreve" unicode="&#x14f;" horiz-adv-x="654" 
d="M435 269c0 68 -38 121 -108 121c-71 0 -109 -53 -109 -121c0 -69 38 -122 109 -122c70 0 108 53 108 122zM622 269c0 -161 -111 -283 -295 -283c-185 0 -296 122 -296 283c0 160 111 282 296 282c184 0 295 -122 295 -282zM327 583c-103 0 -164 41 -171 137h108
c2 -15 25 -24 63 -24c39 0 60 9 64 24h107c-6 -96 -67 -137 -171 -137z" />
    <glyph glyph-name="ohungarumlaut" unicode="&#x151;" horiz-adv-x="654" 
d="M622 269c0 -161 -111 -283 -295 -283c-185 0 -296 122 -296 283c0 160 111 282 296 282c184 0 295 -122 295 -282zM435 269c0 68 -38 121 -108 121c-71 0 -109 -53 -109 -121c0 -69 38 -122 109 -122c70 0 108 53 108 122zM303 579h-150l60 141h177zM498 579h-150l60 141
h177z" />
    <glyph glyph-name="oslash" unicode="&#xf8;" horiz-adv-x="654" 
d="M622 269c0 -161 -111 -283 -295 -283c-72 0 -133 18 -180 50l-64 -51l-82 107l58 47c-19 38 -28 82 -28 130c0 160 111 282 296 282c71 0 132 -19 179 -51l64 52l83 -107l-59 -48c18 -38 28 -81 28 -128zM218 269v-2l145 118c-11 3 -23 5 -36 5c-71 0 -109 -53 -109 -121
zM435 269l-145 -117c11 -3 23 -5 37 -5c70 0 108 53 108 122z" />
    <glyph glyph-name="oslashacute" unicode="&#x1ff;" horiz-adv-x="654" 
d="M622 269c0 -161 -111 -283 -295 -283c-72 0 -133 18 -180 50l-64 -51l-82 107l58 47c-19 38 -28 82 -28 130c0 160 111 282 296 282c71 0 132 -19 179 -51l64 52l83 -107l-59 -48c18 -38 28 -81 28 -128zM403 579h-152l60 141h179zM218 269v-2l145 118c-11 3 -23 5 -36 5
c-71 0 -109 -53 -109 -121zM435 269l-145 -117c11 -3 23 -5 37 -5c70 0 108 53 108 122z" />
    <glyph glyph-name="oe" unicode="&#x153;" horiz-adv-x="1011" 
d="M723 -14c-85 0 -150 27 -194 71c-48 -45 -116 -71 -202 -71c-185 0 -296 122 -296 283c0 160 111 282 296 282c84 0 149 -29 195 -75c47 47 113 75 195 75c142 0 248 -93 271 -223l-328 -168c21 -16 47 -24 78 -24c56 0 93 20 118 50l116 -108c-59 -61 -143 -92 -249 -92
zM435 269c0 68 -38 121 -108 121c-71 0 -109 -53 -109 -121c0 -69 38 -122 109 -122c70 0 108 53 108 122zM718 412c-53 0 -97 -32 -103 -114l165 85c-13 17 -37 29 -62 29z" />
    <glyph glyph-name="racute" unicode="&#x155;" horiz-adv-x="457" 
d="M256 0h-185v537h182v-49h3c31 37 85 63 148 63c14 0 28 -1 42 -4l-11 -185c-23 5 -43 7 -61 7c-81 0 -118 -45 -118 -99v-270zM339 579h-152l60 141h179z" />
    <glyph glyph-name="rcaron" unicode="&#x159;" horiz-adv-x="457" 
d="M256 0h-185v537h182v-49h3c31 37 85 63 148 63c14 0 28 -1 42 -4l-11 -185c-23 5 -43 7 -61 7c-81 0 -118 -45 -118 -99v-270zM350 579h-174l-88 141h134l41 -56l41 56h133z" />
    <glyph glyph-name="rcommaaccent" unicode="&#x157;" horiz-adv-x="457" 
d="M256 0h-185v537h182v-49h3c31 37 85 63 148 63c14 0 28 -1 42 -4l-11 -185c-23 5 -43 7 -61 7c-81 0 -118 -45 -118 -99v-270zM158 -196l-121 41c36 35 49 67 49 114h156c0 -71 -27 -116 -84 -155z" />
    <glyph glyph-name="sacute" unicode="&#x15b;" horiz-adv-x="551" 
d="M522 167c0 -116 -107 -181 -257 -181c-103 0 -172 29 -235 78l99 124c40 -35 85 -56 150 -56c45 0 65 8 65 26c0 55 -300 2 -300 216c0 116 100 177 233 177c102 0 168 -22 228 -69l-98 -124c-31 30 -75 48 -125 48c-43 0 -61 -9 -61 -24c0 -52 301 0 301 -215zM360 579
h-152l60 141h179z" />
    <glyph glyph-name="scircumflex" unicode="&#x15d;" horiz-adv-x="551" 
d="M522 167c0 -116 -107 -181 -257 -181c-103 0 -172 29 -235 78l99 124c40 -35 85 -56 150 -56c45 0 65 8 65 26c0 55 -300 2 -300 216c0 116 100 177 233 177c102 0 168 -22 228 -69l-98 -124c-31 30 -75 48 -125 48c-43 0 -61 -9 -61 -24c0 -52 301 0 301 -215zM459 579
h-133l-42 55l-40 -55h-134l88 141h174z" />
    <glyph glyph-name="scaron" unicode="&#x161;" horiz-adv-x="551" 
d="M522 167c0 -116 -107 -181 -257 -181c-103 0 -172 29 -235 78l99 124c40 -35 85 -56 150 -56c45 0 65 8 65 26c0 55 -300 2 -300 216c0 116 100 177 233 177c102 0 168 -22 228 -69l-98 -124c-31 30 -75 48 -125 48c-43 0 -61 -9 -61 -24c0 -52 301 0 301 -215zM371 579
h-174l-88 141h134l41 -56l41 56h133z" />
    <glyph glyph-name="scedilla" unicode="&#x15f;" horiz-adv-x="551" 
d="M390 -99c0 -54 -47 -85 -120 -85c-54 0 -102 16 -129 42l56 81c7 -8 20 -15 37 -15c15 0 23 7 23 18c0 14 -12 27 -38 46c-78 8 -136 34 -189 76l99 124c40 -35 85 -56 150 -56c45 0 65 8 65 26c0 55 -300 2 -300 216c0 116 100 177 233 177c102 0 168 -22 228 -69
l-98 -124c-31 30 -75 48 -125 48c-43 0 -61 -9 -61 -24c0 -52 301 0 301 -215c0 -96 -73 -157 -183 -175c26 -22 51 -52 51 -91z" />
    <glyph glyph-name="scommaaccent" unicode="&#x219;" horiz-adv-x="551" 
d="M522 167c0 -116 -107 -181 -257 -181c-103 0 -172 29 -235 78l99 124c40 -35 85 -56 150 -56c45 0 65 8 65 26c0 55 -300 2 -300 216c0 116 100 177 233 177c102 0 168 -22 228 -69l-98 -124c-31 30 -75 48 -125 48c-43 0 -61 -9 -61 -24c0 -52 301 0 301 -215zM273 -196
l-121 41c36 35 49 67 49 114h156c0 -71 -27 -116 -84 -155z" />
    <glyph glyph-name="germandbls" unicode="&#xdf;" horiz-adv-x="809" 
d="M784 167c0 -116 -107 -181 -257 -181c-103 0 -173 29 -235 78l99 124c40 -35 84 -56 149 -56c45 0 65 8 65 25c0 56 -299 2 -299 215c0 180 232 142 232 191c0 17 -23 28 -113 28c-134 0 -168 -34 -168 -98v-493h-186v493c0 159 95 241 347 241c191 0 299 -53 299 -170
c0 -163 -234 -133 -234 -184s301 2 301 -213z" />
    <glyph glyph-name="tcaron" unicode="&#x165;" horiz-adv-x="507" 
d="M273 0h-185v383h-77v154h77v183h185v-183h101v-154h-101v-383zM466 579h-151l41 141h170z" />
    <glyph glyph-name="tcommaaccent" unicode="&#x163;" horiz-adv-x="393" 
d="M273 0h-185v383h-77v154h77v183h185v-183h101v-154h-101v-383zM176 -196l-121 41c36 35 49 67 49 114h156c0 -71 -27 -116 -84 -155z" />
    <glyph glyph-name="tcommaaccent" unicode="&#x21b;" horiz-adv-x="393" 
d="M273 0h-185v383h-77v154h77v183h185v-183h101v-154h-101v-383zM176 -196l-121 41c36 35 49 67 49 114h156c0 -71 -27 -116 -84 -155z" />
    <glyph glyph-name="tbar" unicode="&#x167;" horiz-adv-x="393" 
d="M273 0h-185v151h-67v129h67v103h-77v154h77v183h185v-183h101v-154h-101v-103h90v-129h-90v-151z" />
    <glyph glyph-name="ugrave" unicode="&#xf9;" horiz-adv-x="680" 
d="M340 -14c-182 0 -278 105 -278 241v310h185v-283c0 -62 32 -107 93 -107s93 45 93 107v283h185v-310c0 -136 -96 -241 -278 -241zM414 579h-152l-87 141h179z" />
    <glyph glyph-name="uacute" unicode="&#xfa;" horiz-adv-x="680" 
d="M340 -14c-182 0 -278 105 -278 241v310h185v-283c0 -62 32 -107 93 -107s93 45 93 107v283h185v-310c0 -136 -96 -241 -278 -241zM416 579h-152l60 141h179z" />
    <glyph glyph-name="ucircumflex" unicode="&#xfb;" horiz-adv-x="680" 
d="M340 -14c-182 0 -278 105 -278 241v310h185v-283c0 -62 32 -107 93 -107s93 45 93 107v283h185v-310c0 -136 -96 -241 -278 -241zM515 579h-133l-42 55l-40 -55h-134l88 141h174z" />
    <glyph glyph-name="utilde" unicode="&#x169;" horiz-adv-x="680" 
d="M340 -14c-182 0 -278 105 -278 241v310h185v-283c0 -62 32 -107 93 -107s93 45 93 107v283h185v-310c0 -136 -96 -241 -278 -241zM410 585c-52 0 -92 15 -124 15c-13 0 -19 -4 -22 -17h-107c1 71 20 135 92 135c52 0 92 -16 124 -16c12 0 19 4 22 18h106
c-1 -72 -20 -135 -91 -135z" />
    <glyph glyph-name="udieresis" unicode="&#xfc;" horiz-adv-x="680" 
d="M340 -14c-182 0 -278 105 -278 241v310h185v-283c0 -62 32 -107 93 -107s93 45 93 107v283h185v-310c0 -136 -96 -241 -278 -241zM536 593h-168v127h168v-127zM311 593h-168v127h168v-127z" />
    <glyph glyph-name="umacron" unicode="&#x16b;" horiz-adv-x="680" 
d="M340 -14c-182 0 -278 105 -278 241v310h185v-283c0 -62 32 -107 93 -107s93 45 93 107v283h185v-310c0 -136 -96 -241 -278 -241zM488 607h-298v107h298v-107z" />
    <glyph glyph-name="ubreve" unicode="&#x16d;" horiz-adv-x="680" 
d="M340 -14c-182 0 -278 105 -278 241v310h185v-283c0 -62 32 -107 93 -107s93 45 93 107v283h185v-310c0 -136 -96 -241 -278 -241zM340 583c-103 0 -164 41 -171 137h108c2 -15 25 -24 63 -24c39 0 60 9 64 24h107c-6 -96 -67 -137 -171 -137z" />
    <glyph glyph-name="uring" unicode="&#x16f;" horiz-adv-x="680" 
d="M340 -14c-182 0 -278 105 -278 241v310h185v-283c0 -62 32 -107 93 -107s93 45 93 107v283h185v-310c0 -136 -96 -241 -278 -241zM362 652c0 12 -8 18 -21 18c-16 0 -23 -6 -23 -18c0 -13 7 -18 23 -18c13 0 21 5 21 18zM467 652c0 -50 -41 -82 -126 -82
c-81 0 -119 33 -119 82c0 48 38 82 119 82c85 0 126 -34 126 -82z" />
    <glyph glyph-name="uhungarumlaut" unicode="&#x171;" horiz-adv-x="680" 
d="M340 -14c-182 0 -278 105 -278 241v310h185v-283c0 -62 32 -107 93 -107s93 45 93 107v283h185v-310c0 -136 -96 -241 -278 -241zM511 579h-150l60 141h177zM316 579h-150l60 141h177z" />
    <glyph glyph-name="uogonek" unicode="&#x173;" horiz-adv-x="680" 
d="M482 -142c-27 -26 -74 -42 -129 -42c-73 0 -120 31 -120 85c0 38 23 67 48 89c-144 20 -219 116 -219 237v310h185v-283c0 -62 32 -107 93 -107s93 45 93 107v283h185v-310c0 -118 -73 -213 -210 -235c-29 -21 -42 -35 -42 -50c0 -11 8 -18 24 -18s29 7 36 15z" />
    <glyph glyph-name="wgrave" unicode="&#x1e81;" horiz-adv-x="901" 
d="M876 537l-127 -537h-180l-118 183h-2l-120 -183h-179l-125 537h190l56 -286h1l174 275h8l177 -275h2l53 286h190zM526 579h-152l-87 141h179z" />
    <glyph glyph-name="wacute" unicode="&#x1e83;" horiz-adv-x="901" 
d="M876 537l-127 -537h-180l-118 183h-2l-120 -183h-179l-125 537h190l56 -286h1l174 275h8l177 -275h2l53 286h190zM528 579h-152l60 141h179z" />
    <glyph glyph-name="wcircumflex" unicode="&#x175;" horiz-adv-x="901" 
d="M876 537l-127 -537h-180l-118 183h-2l-120 -183h-179l-125 537h190l56 -286h1l174 275h8l177 -275h2l53 286h190zM627 579h-133l-42 55l-40 -55h-134l88 141h174z" />
    <glyph glyph-name="wdieresis" unicode="&#x1e85;" horiz-adv-x="901" 
d="M876 537l-127 -537h-180l-118 183h-2l-120 -183h-179l-125 537h190l56 -286h1l174 275h8l177 -275h2l53 286h190zM648 593h-168v127h168v-127zM423 593h-168v127h168v-127z" />
    <glyph glyph-name="ygrave" unicode="&#x1ef3;" horiz-adv-x="635" 
d="M201 -214c-35 0 -64 1 -92 6l7 146c12 -4 29 -7 47 -7c44 0 62 18 75 53l6 16l-237 537h199l123 -296h2l100 296h198l-221 -569c-44 -111 -92 -182 -207 -182zM402 579h-152l-87 141h179z" />
    <glyph glyph-name="yacute" unicode="&#xfd;" horiz-adv-x="635" 
d="M201 -214c-35 0 -64 1 -92 6l7 146c12 -4 29 -7 47 -7c44 0 62 18 75 53l6 16l-237 537h199l123 -296h2l100 296h198l-221 -569c-44 -111 -92 -182 -207 -182zM404 579h-152l60 141h179z" />
    <glyph glyph-name="ycircumflex" unicode="&#x177;" horiz-adv-x="635" 
d="M201 -214c-35 0 -64 1 -92 6l7 146c12 -4 29 -7 47 -7c44 0 62 18 75 53l6 16l-237 537h199l123 -296h2l100 296h198l-221 -569c-44 -111 -92 -182 -207 -182zM503 579h-133l-42 55l-40 -55h-134l88 141h174z" />
    <glyph glyph-name="ydieresis" unicode="&#xff;" horiz-adv-x="635" 
d="M201 -214c-35 0 -64 1 -92 6l7 146c12 -4 29 -7 47 -7c44 0 62 18 75 53l6 16l-237 537h199l123 -296h2l100 296h198l-221 -569c-44 -111 -92 -182 -207 -182zM524 593h-168v127h168v-127zM299 593h-168v127h168v-127z" />
    <glyph glyph-name="zacute" unicode="&#x17a;" horiz-adv-x="590" 
d="M540 0h-484v151l220 232h-211v154h466v-151l-210 -232h219v-154zM374 579h-152l60 141h179z" />
    <glyph glyph-name="zcaron" unicode="&#x17e;" horiz-adv-x="590" 
d="M540 0h-484v151l220 232h-211v154h466v-151l-210 -232h219v-154zM385 579h-174l-88 141h134l41 -56l41 56h133z" />
    <glyph glyph-name="zdotaccent" unicode="&#x17c;" horiz-adv-x="590" 
d="M540 0h-484v151l220 232h-211v154h466v-151l-210 -232h219v-154zM394 593h-190v127h190v-127z" />
    <glyph glyph-name="eng" unicode="&#x14b;" horiz-adv-x="705" 
d="M450 -214c-35 0 -66 2 -94 6l8 141c12 -3 26 -5 39 -5c41 0 54 28 54 77v276c0 60 -32 108 -98 108s-103 -52 -103 -109v-280h-185v537h182v-50h3c34 38 91 64 156 64c151 0 230 -90 230 -221v-338c0 -136 -66 -206 -192 -206z" />
    <glyph glyph-name="eth" unicode="&#xf0;" horiz-adv-x="653" 
d="M539 595l-61 -8l71 -111c47 -79 72 -133 72 -216c0 -159 -110 -274 -295 -274c-184 0 -295 115 -295 274c0 122 66 217 182 252c26 8 50 12 79 13l1 1l-23 33l-128 -17l-16 125l66 9l-30 44h232l10 -16l120 16zM434 260c0 70 -38 113 -108 113s-108 -43 -108 -113
s38 -113 108 -113c71 0 108 43 108 113z" />
    <glyph glyph-name="thorn" unicode="&#xfe;" horiz-adv-x="689" 
d="M471 269c0 67 -38 120 -108 120s-107 -52 -107 -109v-22c0 -58 37 -110 107 -110s108 53 108 121zM658 269c0 -165 -97 -283 -245 -283c-65 0 -123 26 -156 63h-1v-250h-185v934h185v-245h1c33 38 91 63 156 63c148 0 245 -117 245 -282z" />
    <glyph glyph-name="Alpha" unicode="&#x391;" horiz-adv-x="796" 
d="M791 0h-214l-33 88h-294l-32 -88h-212l282 720h221zM395 480l-82 -221h167l-83 221h-2z" />
    <glyph glyph-name="Beta" unicode="&#x392;" horiz-adv-x="738" 
d="M701 207c0 -114 -91 -207 -259 -207h-362v720h343c138 0 235 -60 235 -183c0 -69 -32 -118 -90 -148v-2c77 -25 133 -82 133 -180zM504 231c0 43 -34 63 -79 63h-150v-131h148c50 0 81 26 81 68zM462 503c0 36 -25 54 -59 54h-128v-109h129c35 0 58 19 58 55z" />
    <glyph glyph-name="Gamma" unicode="&#x393;" horiz-adv-x="608" 
d="M275 0h-195v720h508v-172h-313v-548z" />
    <glyph glyph-name="uni0394" unicode="&#x394;" horiz-adv-x="796" 
d="M791 0h-785l282 720h221zM515 172l-118 306h-2l-116 -306h236z" />
    <glyph glyph-name="Epsilon" unicode="&#x395;" horiz-adv-x="649" 
d="M597 0h-517v720h508v-172h-313v-95h266v-171h-266v-110h322v-172z" />
    <glyph glyph-name="Zeta" unicode="&#x396;" horiz-adv-x="742" 
d="M685 0h-627v168l356 380h-343v172h600v-168l-349 -380h363v-172z" />
    <glyph glyph-name="Eta" unicode="&#x397;" horiz-adv-x="824" 
d="M744 0h-195v282h-274v-282h-195v720h195v-267h274v267h195v-720z" />
    <glyph glyph-name="Theta" unicode="&#x398;" horiz-adv-x="822" 
d="M782 360c0 -212 -139 -374 -371 -374s-370 162 -370 374c0 211 138 374 370 374s371 -163 371 -374zM585 360c0 113 -62 202 -175 202c-112 0 -173 -89 -173 -202c0 -114 61 -203 173 -203c113 0 175 89 175 203zM533 275v172h-245v-172h245z" />
    <glyph glyph-name="Iota" unicode="&#x399;" horiz-adv-x="355" 
d="M275 0h-195v720h195v-720z" />
    <glyph glyph-name="Kappa" unicode="&#x39a;" horiz-adv-x="788" 
d="M276 0h-196v720h196v-269h61l171 269h241l-246 -354l264 -366h-240l-194 290h-57v-290z" />
    <glyph glyph-name="Lambda" unicode="&#x39b;" horiz-adv-x="796" 
d="M791 0h-214l-180 480h-2l-177 -480h-212l282 720h221z" />
    <glyph glyph-name="Mu" unicode="&#x39c;" horiz-adv-x="924" 
d="M872 0h-195l-30 369h-2l-182 -298h-10l-182 298h-2l-31 -369h-186l59 720h184l166 -292h3l165 292h184z" />
    <glyph glyph-name="Nu" unicode="&#x39d;" horiz-adv-x="824" 
d="M741 0h-184l-293 392h-2v-392h-185v720h184l293 -393h1v393h186v-720z" />
    <glyph glyph-name="Xi" unicode="&#x39e;" horiz-adv-x="643" 
d="M591 172v-172h-539v172h539zM581 720v-172h-520v172h520zM534 453v-171h-426v171h426z" />
    <glyph glyph-name="Omicron" unicode="&#x39f;" horiz-adv-x="822" 
d="M782 360c0 -212 -139 -374 -371 -374s-370 162 -370 374c0 211 138 374 370 374s371 -163 371 -374zM585 360c0 113 -62 202 -175 202c-112 0 -173 -89 -173 -202c0 -114 61 -203 173 -203c113 0 175 89 175 203z" />
    <glyph glyph-name="Pi" unicode="&#x3a0;" horiz-adv-x="817" 
d="M737 0h-195v548h-267v-548h-195v720h657v-720z" />
    <glyph glyph-name="Rho" unicode="&#x3a1;" horiz-adv-x="732" 
d="M700 458c0 -152 -98 -263 -264 -263h-161v-195h-195v720h356c166 0 264 -105 264 -262zM503 458c0 55 -30 90 -93 90h-135v-182h135c62 0 93 42 93 92z" />
    <glyph glyph-name="Sigma" unicode="&#x3a3;" horiz-adv-x="674" 
d="M643 0h-596v172l225 192l-216 184v172h578v-172h-308l194 -180v-10l-202 -186h325v-172z" />
    <glyph glyph-name="Tau" unicode="&#x3a4;" horiz-adv-x="708" 
d="M451 0h-194v548h-238v172h670v-172h-238v-548z" />
    <glyph glyph-name="Upsilon" unicode="&#x3a5;" horiz-adv-x="795" 
d="M492 0h-195v280l-291 440h237l151 -245h2l158 245h236l-298 -440v-280z" />
    <glyph glyph-name="Phi" unicode="&#x3a6;" horiz-adv-x="898" 
d="M548 -3h-195v65c-199 18 -319 136 -319 298c0 160 120 279 319 297v66h195v-66c197 -19 316 -137 316 -297c0 -161 -119 -279 -316 -298v-65zM230 360c0 -71 44 -113 123 -125v249c-79 -13 -123 -55 -123 -124zM668 360c0 68 -44 110 -120 123v-248c76 14 120 56 120 125
z" />
    <glyph glyph-name="Chi" unicode="&#x3a7;" horiz-adv-x="819" 
d="M245 0h-239l272 382l-238 338h241l131 -209l136 209h239l-242 -338l268 -382h-240l-162 254z" />
    <glyph glyph-name="Psi" unicode="&#x3a8;" horiz-adv-x="882" 
d="M539 0h-195v154c-196 29 -284 150 -284 305v261h186v-254c0 -65 26 -114 98 -135v389h195v-389c71 21 97 70 97 135v254h186v-261c0 -154 -91 -274 -283 -304v-155z" />
    <glyph glyph-name="uni03A9" unicode="&#x3a9;" horiz-adv-x="824" 
d="M793 0h-356v149c76 61 134 127 134 253c0 102 -57 174 -159 174c-103 0 -159 -72 -159 -174c0 -126 58 -192 133 -253v-149h-354v162h141v2c-69 63 -117 151 -117 262c0 180 128 308 356 308c229 0 356 -128 356 -308c0 -111 -47 -200 -117 -262v-2h142v-162z" />
    <glyph glyph-name="Alphatonos" unicode="&#x386;" horiz-adv-x="796" 
d="M791 0h-214l-33 88h-294l-32 -88h-212l282 720h221zM172 579h-142l18 141h171zM395 480l-82 -221h167l-83 221h-2z" />
    <glyph glyph-name="Epsilontonos" unicode="&#x388;" horiz-adv-x="649" 
d="M-5 579h-142l18 141h171zM597 0h-517v720h508v-172h-313v-95h266v-171h-266v-110h322v-172z" />
    <glyph glyph-name="Etatonos" unicode="&#x389;" horiz-adv-x="824" 
d="M744 0h-195v282h-274v-282h-195v720h195v-267h274v267h195v-720zM-5 579h-142l18 141h171z" />
    <glyph glyph-name="Iotadieresis" unicode="&#x3aa;" horiz-adv-x="355" 
d="M275 0h-195v720h195v-720zM374 754h-168v111h168v-111zM149 754h-168v111h168v-111z" />
    <glyph glyph-name="Iotatonos" unicode="&#x38a;" horiz-adv-x="355" 
d="M275 0h-195v720h195v-720zM-5 579h-142l18 141h171z" />
    <glyph glyph-name="Omicrontonos" unicode="&#x38c;" horiz-adv-x="822" 
d="M39 579h-142l18 141h171zM782 360c0 -212 -139 -374 -371 -374s-370 162 -370 374c0 211 138 374 370 374s371 -163 371 -374zM585 360c0 113 -62 202 -175 202c-112 0 -173 -89 -173 -202c0 -114 61 -203 173 -203c113 0 175 89 175 203z" />
    <glyph glyph-name="Upsilondieresis" unicode="&#x3ab;" horiz-adv-x="795" 
d="M492 0h-195v280l-291 440h237l151 -245h2l158 245h236l-298 -440v-280zM593 754h-168v111h168v-111zM368 754h-168v111h168v-111z" />
    <glyph glyph-name="Upsilontonos" unicode="&#x38e;" horiz-adv-x="795" 
d="M-66 579h-142l18 141h171zM492 0h-195v280l-291 440h237l151 -245h2l158 245h236l-298 -440v-280z" />
    <glyph glyph-name="Omegatonos" unicode="&#x38f;" horiz-adv-x="824" 
d="M39 579h-142l18 141h171zM793 0h-356v149c76 61 134 127 134 253c0 102 -57 174 -159 174c-103 0 -159 -72 -159 -174c0 -126 58 -192 133 -253v-149h-354v162h141v2c-69 63 -117 151 -117 262c0 180 128 308 356 308c229 0 356 -128 356 -308c0 -111 -47 -200 -117 -262
v-2h142v-162z" />
    <glyph glyph-name="alpha" unicode="&#x3b1;" horiz-adv-x="679" 
d="M321 148c67 0 102 52 102 110v22c0 57 -35 109 -102 109c-66 0 -103 -53 -103 -120c0 -68 37 -121 103 -121zM609 0h-183v47h-3c-30 -35 -85 -61 -151 -61c-146 0 -241 118 -241 283s95 282 241 282c66 0 121 -25 150 -60h1v46h186v-537z" />
    <glyph glyph-name="beta" unicode="&#x3b2;" horiz-adv-x="699" 
d="M656 222c0 -133 -84 -236 -240 -236c-69 0 -128 24 -159 60h-1v-246h-185v685c0 159 77 249 273 249c181 0 268 -78 268 -179c0 -67 -35 -114 -102 -145v-1c77 -23 146 -87 146 -187zM468 234c0 55 -42 81 -108 81h-52v154h23c68 0 96 21 96 58c0 34 -25 57 -82 57
c-60 0 -89 -25 -89 -87v-239c0 -58 39 -110 116 -110c59 0 96 34 96 86z" />
    <glyph glyph-name="gamma" unicode="&#x3b3;" horiz-adv-x="633" 
d="M410 -200h-185v200l-218 537h199l113 -310h1l111 310h198l-219 -537v-200z" />
    <glyph glyph-name="delta" unicode="&#x3b4;" horiz-adv-x="654" 
d="M613 246c0 -149 -108 -260 -286 -260c-180 0 -288 107 -288 250c0 83 42 143 111 186c-46 31 -65 70 -65 129c0 106 77 183 238 183c94 0 188 -32 247 -90l-117 -110c-27 28 -74 50 -128 50c-37 0 -53 -10 -53 -28c0 -23 13 -30 103 -52c129 -31 238 -103 238 -258z
M321 355c-2 0 -5 1 -7 2c-58 -24 -87 -57 -87 -111c0 -57 35 -99 100 -99c64 0 100 42 100 99c0 56 -34 89 -106 109z" />
    <glyph glyph-name="epsilon" unicode="&#x3b5;" horiz-adv-x="539" 
d="M526 64c-47 -46 -115 -78 -244 -78c-173 0 -251 71 -251 165c0 78 40 115 99 134v1c-43 21 -77 59 -77 112c0 92 81 153 229 153c120 0 185 -27 230 -69l-85 -112c-29 24 -73 35 -111 35c-54 0 -71 -12 -71 -30c0 -20 17 -27 58 -27h101v-143h-112c-50 0 -69 -12 -69 -34
s16 -38 84 -38c62 0 103 14 135 41z" />
    <glyph glyph-name="zeta" unicode="&#x3b6;" horiz-adv-x="540" 
d="M533 8c0 -64 -25 -130 -39 -158h-183c17 26 34 63 34 97c0 29 -10 44 -50 52c-158 36 -264 90 -264 253c0 116 61 208 204 313v1h-185v154h455v-151c-216 -139 -286 -209 -286 -295c0 -72 38 -98 160 -127c112 -26 154 -62 154 -139z" />
    <glyph glyph-name="eta" unicode="&#x3b7;" horiz-adv-x="704" 
d="M642 -200h-185v481c0 60 -32 108 -98 108s-103 -52 -103 -109v-280h-185v537h182v-47h3c31 35 87 61 156 61c150 0 230 -90 230 -221v-530z" />
    <glyph glyph-name="theta" unicode="&#x3b8;" horiz-adv-x="652" 
d="M619 360c0 -231 -109 -374 -293 -374c-185 0 -294 143 -294 374c0 232 109 374 294 374c184 0 293 -142 293 -374zM326 147c56 0 90 42 102 133h-204c11 -92 45 -133 102 -133zM326 573c-57 0 -90 -42 -102 -132h203c-11 91 -45 132 -101 132z" />
    <glyph glyph-name="iota" unicode="&#x3b9;" horiz-adv-x="328" 
d="M256 0h-185v537h185v-537z" />
    <glyph glyph-name="kappa" unicode="&#x3ba;" horiz-adv-x="679" 
d="M258 0h-187v537h187v-182h49l115 182h225l-181 -253l200 -284h-225l-129 202h-54v-202z" />
    <glyph glyph-name="lambda" unicode="&#x3bb;" horiz-adv-x="635" 
d="M629 1h-198l-120 306h-2l-103 -306h-199l214 536l-72 183h198z" />
    <glyph glyph-name="uni03BC" unicode="&#x3bc;" horiz-adv-x="699" 
d="M629 0h-182v57h-4c-30 -40 -76 -68 -132 -68c-23 -1 -43 7 -52 17h-1v-188h-186v719h186v-281c0 -59 31 -108 90 -108c60 0 95 51 95 110v279h186v-537z" />
    <glyph glyph-name="nu" unicode="&#x3bd;" horiz-adv-x="635" 
d="M629 537l-209 -537h-205l-208 537h199l113 -335h1l111 335h198z" />
    <glyph glyph-name="xi" unicode="&#x3be;" horiz-adv-x="569" 
d="M547 8c0 -64 -25 -130 -39 -158h-183c17 26 33 63 33 97c0 30 -10 46 -58 54c-185 31 -275 83 -275 225c0 100 63 158 134 179v1c-59 31 -93 77 -93 145c0 100 68 183 257 183c109 0 179 -32 234 -85l-107 -112c-24 28 -64 47 -114 47c-62 0 -85 -25 -85 -61
c0 -35 23 -58 96 -58h90v-155h-117c-74 0 -108 -23 -108 -69c0 -54 49 -67 162 -89c132 -26 173 -64 173 -144z" />
    <glyph glyph-name="omicron" unicode="&#x3bf;" horiz-adv-x="654" 
d="M435 269c0 68 -38 121 -108 121c-71 0 -109 -53 -109 -121c0 -69 38 -122 109 -122c70 0 108 53 108 122zM622 269c0 -161 -111 -283 -295 -283c-185 0 -296 122 -296 283c0 160 111 282 296 282c184 0 295 -122 295 -282z" />
    <glyph glyph-name="pi" unicode="&#x3c0;" horiz-adv-x="713" 
d="M642 0h-185v383h-201v-383h-185v537h571v-537z" />
    <glyph glyph-name="rho" unicode="&#x3c1;" horiz-adv-x="682" 
d="M650 269c0 -165 -97 -283 -245 -283c-68 0 -125 25 -156 60h-1v-246h-185v469c0 157 82 282 292 282s295 -125 295 -282zM463 269c0 68 -38 120 -108 120s-107 -52 -107 -120v-11c0 -58 37 -110 107 -110s108 53 108 121z" />
    <glyph glyph-name="sigma1" unicode="&#x3c2;" horiz-adv-x="538" 
d="M516 8c0 -64 -25 -130 -39 -158h-183c17 26 33 63 33 97c0 29 -8 42 -49 52c-144 39 -247 97 -247 275c0 158 106 277 274 277c92 0 165 -29 221 -89l-117 -109c-21 29 -48 48 -92 48c-60 0 -99 -52 -99 -117c0 -78 41 -113 125 -132c131 -32 173 -64 173 -144z" />
    <glyph glyph-name="sigma" unicode="&#x3c3;" horiz-adv-x="675" 
d="M435 268c0 70 -39 120 -108 120h-4c-67 0 -105 -52 -105 -120s38 -121 109 -121c70 0 108 53 108 121zM622 243c0 -127 -96 -257 -295 -257c-185 0 -296 122 -296 282c0 154 112 269 296 269h329v-149h-87v-2c26 -26 53 -71 53 -143z" />
    <glyph glyph-name="tau" unicode="&#x3c4;" horiz-adv-x="547" 
d="M366 0h-185v376h-168v161h521v-161h-168v-376z" />
    <glyph glyph-name="upsilon" unicode="&#x3c5;" horiz-adv-x="680" 
d="M340 -14c-182 0 -278 105 -278 241v310h185v-283c0 -62 32 -107 93 -107s93 45 93 107v283h185v-310c0 -136 -96 -241 -278 -241z" />
    <glyph glyph-name="phi" unicode="&#x3c6;" horiz-adv-x="809" 
d="M497 -200h-185v193c-181 25 -282 130 -282 276c0 145 101 249 282 275v176h185v-175c180 -26 282 -131 282 -276c0 -146 -102 -251 -282 -277v-192zM217 269c0 -61 27 -102 95 -120v240c-68 -18 -95 -60 -95 -120zM591 269c0 59 -27 101 -94 119v-239c67 18 94 59 94 120
z" />
    <glyph glyph-name="chi" unicode="&#x3c7;" horiz-adv-x="663" 
d="M228 -200h-221l202 386l-176 351h223l78 -201l82 201h221l-179 -351l199 -386h-224l-101 240z" />
    <glyph glyph-name="psi" unicode="&#x3c8;" horiz-adv-x="839" 
d="M512 -200h-185v192c-188 26 -265 136 -265 272v273h185v-246c0 -64 19 -111 80 -132v561h185v-560c60 21 80 67 80 131v246h185v-273c0 -136 -78 -246 -265 -272v-192z" />
    <glyph glyph-name="omega" unicode="&#x3c9;" horiz-adv-x="870" 
d="M839 259c0 -172 -85 -272 -222 -272c-97 0 -158 42 -182 106h-1c-27 -64 -76 -106 -181 -106c-138 0 -222 100 -222 272c0 122 36 216 116 289l135 -119c-42 -41 -63 -82 -63 -161c0 -88 26 -121 64 -121c43 0 63 40 63 124v120h176v-120c0 -84 20 -124 64 -124
c39 0 64 33 64 121c0 79 -20 120 -63 161l136 119c72 -66 116 -168 116 -289z" />
    <glyph glyph-name="alphatonos" unicode="&#x3ac;" horiz-adv-x="679" 
d="M321 148c67 0 102 52 102 110v22c0 57 -35 109 -102 109c-66 0 -103 -53 -103 -120c0 -68 37 -121 103 -121zM609 0h-183v47h-3c-30 -35 -85 -61 -151 -61c-146 0 -241 118 -241 283s95 282 241 282c66 0 121 -25 150 -60h1v46h186v-537zM409 579h-142l18 141h171z" />
    <glyph glyph-name="epsilontonos" unicode="&#x3ad;" horiz-adv-x="539" 
d="M353 579h-142l18 141h171zM526 64c-47 -46 -115 -78 -244 -78c-173 0 -251 71 -251 165c0 78 40 115 99 134v1c-43 21 -77 59 -77 112c0 92 81 153 229 153c120 0 185 -27 230 -69l-85 -112c-29 24 -73 35 -111 35c-54 0 -71 -12 -71 -30c0 -20 17 -27 58 -27h101v-143
h-112c-50 0 -69 -12 -69 -34s16 -38 84 -38c62 0 103 14 135 41z" />
    <glyph glyph-name="etatonos" unicode="&#x3ae;" horiz-adv-x="704" 
d="M642 -200h-185v481c0 60 -32 108 -98 108s-103 -52 -103 -109v-280h-185v537h182v-47h3c31 35 87 61 156 61c150 0 230 -90 230 -221v-530zM430 579h-142l18 141h171z" />
    <glyph glyph-name="iotadieresis" unicode="&#x3ca;" horiz-adv-x="328" 
d="M256 0h-185v537h185v-537zM360 593h-168v127h168v-127zM135 593h-168v127h168v-127z" />
    <glyph glyph-name="iotadieresistonos" unicode="&#x390;" horiz-adv-x="328" 
d="M256 0h-185v537h185v-537zM220 579h-143l18 141h171zM55 585h-168v127h168v-127zM445 585h-168v127h168v-127z" />
    <glyph glyph-name="iotatonos" unicode="&#x3af;" horiz-adv-x="328" 
d="M256 0h-185v537h185v-537zM231 579h-142l18 141h171z" />
    <glyph glyph-name="omicrontonos" unicode="&#x3cc;" horiz-adv-x="654" 
d="M383 579h-142l18 141h171zM435 269c0 68 -38 121 -108 121c-71 0 -109 -53 -109 -121c0 -69 38 -122 109 -122c70 0 108 53 108 122zM622 269c0 -161 -111 -283 -295 -283c-185 0 -296 122 -296 283c0 160 111 282 296 282c184 0 295 -122 295 -282z" />
    <glyph glyph-name="upsilondieresis" unicode="&#x3cb;" horiz-adv-x="680" 
d="M340 -14c-182 0 -278 105 -278 241v310h185v-283c0 -62 32 -107 93 -107s93 45 93 107v283h185v-310c0 -136 -96 -241 -278 -241zM537 593h-168v127h168v-127zM312 593h-168v127h168v-127z" />
    <glyph glyph-name="upsilondieresistonos" unicode="&#x3b0;" horiz-adv-x="680" 
d="M340 -14c-182 0 -278 105 -278 241v310h185v-283c0 -62 32 -107 93 -107s93 45 93 107v283h185v-310c0 -136 -96 -241 -278 -241zM395 579h-143l18 141h171zM230 585h-168v127h168v-127zM620 585h-168v127h168v-127z" />
    <glyph glyph-name="upsilontonos" unicode="&#x3cd;" horiz-adv-x="680" 
d="M410 579h-142l18 141h171zM340 -14c-182 0 -278 105 -278 241v310h185v-283c0 -62 32 -107 93 -107s93 45 93 107v283h185v-310c0 -136 -96 -241 -278 -241z" />
    <glyph glyph-name="omegatonos" unicode="&#x3ce;" horiz-adv-x="870" 
d="M839 259c0 -172 -85 -272 -222 -272c-97 0 -158 42 -182 106h-1c-27 -64 -76 -106 -181 -106c-138 0 -222 100 -222 272c0 122 36 216 116 289l135 -119c-42 -41 -63 -82 -63 -161c0 -88 26 -121 64 -121c43 0 63 40 63 124v120h176v-120c0 -84 20 -124 64 -124
c39 0 64 33 64 121c0 79 -20 120 -63 161l136 119c72 -66 116 -168 116 -289zM501 579h-142l18 141h171z" />
    <glyph glyph-name="uni0410" unicode="&#x410;" horiz-adv-x="796" 
d="M791 0h-214l-33 88h-294l-32 -88h-212l282 720h221zM395 480l-82 -221h167l-83 221h-2z" />
    <glyph glyph-name="uni0411" unicode="&#x411;" horiz-adv-x="727" 
d="M700 230c0 -138 -90 -230 -254 -230h-366v720h458v-172h-263v-92h171c164 0 254 -92 254 -226zM503 230c0 43 -30 64 -85 64h-143v-131h143c57 0 85 25 85 67z" />
    <glyph glyph-name="uni0412" unicode="&#x412;" horiz-adv-x="736" 
d="M701 207c0 -114 -91 -207 -259 -207h-362v720h343c138 0 235 -60 235 -183c0 -69 -32 -118 -90 -148v-2c77 -25 133 -82 133 -180zM504 231c0 43 -34 63 -79 63h-150v-131h148c50 0 81 26 81 68zM462 503c0 36 -25 54 -59 54h-128v-109h129c35 0 58 19 58 55z" />
    <glyph glyph-name="uni0413" unicode="&#x413;" horiz-adv-x="608" 
d="M275 0h-195v720h508v-172h-313v-548z" />
    <glyph glyph-name="uni0414" unicode="&#x414;" horiz-adv-x="851" 
d="M817 -150h-176v150h-451v-150h-168v322h95c35 67 49 147 58 271l20 277h533v-548h89v-322zM534 172v376h-158l-7 -130c-7 -115 -20 -182 -46 -246h211z" />
    <glyph glyph-name="uni0415" unicode="&#x415;" horiz-adv-x="649" 
d="M597 0h-517v720h508v-172h-313v-95h266v-171h-266v-110h322v-172z" />
    <glyph glyph-name="uni0416" unicode="&#x416;" horiz-adv-x="1166" 
d="M252 0h-231l242 366l-223 354h234l155 -269h56v269h196v-269h56l155 269h235l-224 -354l242 -366h-231l-179 290h-54v-290h-196v290h-54z" />
    <glyph glyph-name="uni0417" unicode="&#x417;" horiz-adv-x="653" 
d="M294 -14c-134 0 -222 32 -283 94l119 139c38 -40 84 -62 162 -62c93 0 129 27 129 66c0 45 -36 64 -106 64h-170v165h144c68 0 91 22 91 55c0 35 -31 56 -105 56c-57 0 -107 -18 -141 -50l-109 135c63 55 147 86 268 86c204 0 282 -84 282 -191c0 -75 -31 -124 -91 -155
v-1c78 -25 134 -79 134 -186c0 -125 -113 -215 -324 -215z" />
    <glyph glyph-name="uni0418" unicode="&#x418;" horiz-adv-x="824" 
d="M744 720v-720h-195v411h-1l-286 -411h-182v720h195v-412h1l286 412h182z" />
    <glyph glyph-name="uni0419" unicode="&#x419;" horiz-adv-x="824" 
d="M744 720v-720h-195v411h-1l-286 -411h-182v720h195v-412h1l286 412h182zM432 750c-103 0 -164 26 -171 119h108c4 -17 25 -25 63 -25c39 0 59 8 64 25h107c-6 -93 -67 -119 -171 -119z" />
    <glyph glyph-name="uni041A" unicode="&#x41a;" horiz-adv-x="788" 
d="M276 0h-196v720h196v-269h61l171 269h241l-246 -354l264 -366h-240l-194 290h-57v-290z" />
    <glyph glyph-name="uni041B" unicode="&#x41b;" horiz-adv-x="762" 
d="M682 0h-195v548h-156l-13 -223c-16 -260 -96 -335 -306 -335l9 190c86 0 94 39 106 224l23 316h532v-720z" />
    <glyph glyph-name="uni041C" unicode="&#x41c;" horiz-adv-x="924" 
d="M872 0h-195l-30 369h-2l-182 -298h-10l-182 298h-2l-31 -369h-186l59 720h184l166 -292h3l165 292h184z" />
    <glyph glyph-name="uni041D" unicode="&#x41d;" horiz-adv-x="824" 
d="M744 0h-195v282h-274v-282h-195v720h195v-267h274v267h195v-720z" />
    <glyph glyph-name="uni041E" unicode="&#x41e;" horiz-adv-x="822" 
d="M782 360c0 -212 -139 -374 -371 -374s-370 162 -370 374c0 211 138 374 370 374s371 -163 371 -374zM585 360c0 113 -62 202 -175 202c-112 0 -173 -89 -173 -202c0 -114 61 -203 173 -203c113 0 175 89 175 203z" />
    <glyph glyph-name="uni041F" unicode="&#x41f;" horiz-adv-x="820" 
d="M739 0h-194v548h-270v-548h-195v720h659v-720z" />
    <glyph glyph-name="uni0420" unicode="&#x420;" horiz-adv-x="735" 
d="M700 458c0 -152 -98 -263 -264 -263h-161v-195h-195v720h356c166 0 264 -105 264 -262zM503 458c0 55 -30 90 -93 90h-135v-182h135c62 0 93 42 93 92z" />
    <glyph glyph-name="uni0421" unicode="&#x421;" horiz-adv-x="715" 
d="M704 116c-75 -88 -173 -130 -297 -130c-232 0 -366 165 -366 373c0 209 134 375 364 375c122 0 216 -41 287 -131l-137 -124c-39 56 -86 83 -150 83c-107 0 -168 -88 -168 -203c0 -113 61 -202 169 -202c68 0 121 23 161 83z" />
    <glyph glyph-name="uni0422" unicode="&#x422;" horiz-adv-x="707" 
d="M451 0h-194v548h-238v172h669v-172h-237v-548z" />
    <glyph glyph-name="uni0423" unicode="&#x423;" horiz-adv-x="795" 
d="M345 0h-229l165 259l-275 461h228l161 -279h2l162 279h231z" />
    <glyph glyph-name="uni0424" unicode="&#x424;" horiz-adv-x="898" 
d="M548 -3h-195v65c-199 18 -319 136 -319 298c0 160 120 279 319 297v66h195v-66c197 -19 316 -137 316 -297c0 -161 -119 -279 -316 -298v-65zM230 360c0 -71 44 -113 123 -125v249c-79 -13 -123 -55 -123 -124zM668 360c0 68 -44 110 -120 123v-248c76 14 120 56 120 125
z" />
    <glyph glyph-name="uni0425" unicode="&#x425;" horiz-adv-x="819" 
d="M245 0h-239l272 382l-238 338h241l131 -209l136 209h239l-242 -338l268 -382h-240l-162 254z" />
    <glyph glyph-name="uni0426" unicode="&#x426;" horiz-adv-x="854" 
d="M819 172v-322h-175v150h-564v720h195v-548h261v548h195v-548h88z" />
    <glyph glyph-name="uni0427" unicode="&#x427;" horiz-adv-x="731" 
d="M651 0h-194v195h-139c-174 0 -273 88 -273 263v262h194v-252c0 -72 38 -102 102 -102h116v354h194v-720z" />
    <glyph glyph-name="uni0428" unicode="&#x428;" horiz-adv-x="1161" 
d="M1081 0h-1001v720h195v-548h208v548h195v-548h208v548h195v-720z" />
    <glyph glyph-name="uni0429" unicode="&#x429;" horiz-adv-x="1204" 
d="M1169 -150h-175v150h-914v720h195v-548h208v548h195v-548h208v548h195v-548h88v-322z" />
    <glyph glyph-name="uni042A" unicode="&#x42a;" horiz-adv-x="904" 
d="M877 262c0 -157 -99 -262 -264 -262h-356v548h-238v172h432v-195h162c165 0 264 -111 264 -263zM680 262c0 50 -31 92 -93 92h-136v-182h136c63 0 93 35 93 90z" />
    <glyph glyph-name="uni042B" unicode="&#x42b;" horiz-adv-x="1017" 
d="M691 262c0 -157 -98 -262 -264 -262h-347v720h195v-195h152c166 0 264 -111 264 -263zM495 262c0 50 -31 92 -93 92h-127v-182h127c63 0 93 35 93 90zM937 0h-195v720h195v-720z" />
    <glyph glyph-name="uni042C" unicode="&#x42c;" horiz-adv-x="719" 
d="M691 262c0 -157 -98 -262 -264 -262h-347v720h195v-195h152c166 0 264 -111 264 -263zM495 262c0 50 -31 92 -93 92h-127v-182h127c63 0 93 35 93 90z" />
    <glyph glyph-name="uni042D" unicode="&#x42d;" horiz-adv-x="715" 
d="M675 359c0 -208 -134 -373 -367 -373c-124 0 -222 42 -297 130l137 124c40 -60 94 -83 161 -83c83 0 138 52 159 127h-319v166h314c-24 67 -76 112 -152 112c-64 0 -112 -27 -151 -83l-136 124c70 90 164 131 286 131c230 0 365 -166 365 -375z" />
    <glyph glyph-name="uni042E" unicode="&#x42e;" horiz-adv-x="1126" 
d="M1085 360c0 -212 -138 -374 -371 -374c-202 0 -334 123 -364 296h-75v-282h-195v720h195v-267h78c35 164 165 281 361 281c233 0 371 -163 371 -374zM889 360c0 113 -62 202 -176 202c-111 0 -172 -89 -172 -202c0 -114 61 -203 172 -203c114 0 176 89 176 203z" />
    <glyph glyph-name="uni042F" unicode="&#x42f;" horiz-adv-x="764" 
d="M266 0h-239l160 230c-79 44 -123 127 -123 228c0 157 99 262 264 262h356v-720h-194v196h-92zM261 458c0 -50 31 -92 93 -92h136v182h-136c-63 0 -93 -35 -93 -90z" />
    <glyph glyph-name="uni0403" unicode="&#x403;" horiz-adv-x="608" 
d="M275 0h-195v720h508v-172h-313v-548zM410 750h-153l65 100h180z" />
    <glyph glyph-name="uni0490" unicode="&#x490;" horiz-adv-x="608" 
d="M275 0h-195v720h333v130h175v-302h-313v-548z" />
    <glyph glyph-name="uni0402" unicode="&#x402;" horiz-adv-x="858" 
d="M830 233c0 -143 -89 -236 -253 -236c-25 0 -63 2 -85 7l6 162c15 -4 31 -6 52 -6c48 0 84 24 84 69c0 51 -36 72 -93 72h-116v-301h-194v548h-212v172h667v-172h-261v-84h152c161 0 253 -94 253 -231z" />
    <glyph glyph-name="uni0404" unicode="&#x404;" horiz-adv-x="715" 
d="M41 359c0 209 134 375 364 375c122 0 216 -41 287 -131l-137 -124c-39 56 -86 83 -150 83c-77 0 -130 -45 -154 -112h316v-166h-320c21 -75 76 -127 159 -127c68 0 121 23 161 83l137 -124c-75 -88 -173 -130 -297 -130c-232 0 -366 165 -366 373z" />
    <glyph glyph-name="uni0405" unicode="&#x405;" horiz-adv-x="693" 
d="M653 225c0 -152 -112 -239 -319 -239c-125 0 -214 39 -288 103l115 147c52 -53 116 -81 197 -81c71 0 100 17 100 47c0 90 -397 27 -397 298c0 151 110 234 287 234c124 0 210 -28 284 -91l-114 -147c-44 44 -102 68 -181 68c-60 0 -83 -17 -83 -44
c0 -86 399 -24 399 -295z" />
    <glyph glyph-name="uni0400" unicode="&#x400;" horiz-adv-x="649" 
d="M597 0h-517v720h508v-172h-313v-95h266v-171h-266v-110h322v-172zM418 750h-152l-93 100h180z" />
    <glyph glyph-name="uni0401" unicode="&#x401;" horiz-adv-x="649" 
d="M597 0h-517v720h508v-172h-313v-95h266v-171h-266v-110h322v-172zM540 754h-168v111h168v-111zM315 754h-168v111h168v-111z" />
    <glyph glyph-name="uni0406" unicode="&#x406;" horiz-adv-x="355" 
d="M275 0h-195v720h195v-720z" />
    <glyph glyph-name="uni0407" unicode="&#x407;" horiz-adv-x="355" 
d="M275 0h-195v720h195v-720zM376 754h-168v111h168v-111zM151 754h-168v111h168v-111z" />
    <glyph glyph-name="uni0408" unicode="&#x408;" horiz-adv-x="574" 
d="M241 -14c-104 0 -180 27 -231 86l134 123c21 -27 49 -42 84 -42c47 0 82 30 82 84v483h194v-479c0 -147 -98 -255 -263 -255z" />
    <glyph glyph-name="uni040D" unicode="&#x40d;" horiz-adv-x="824" 
d="M744 720v-720h-195v411h-1l-286 -411h-182v720h195v-412h1l286 412h182zM514 750h-152l-93 100h180z" />
    <glyph glyph-name="uni040C" unicode="&#x40c;" horiz-adv-x="788" 
d="M276 0h-196v720h196v-269h61l171 269h241l-246 -354l264 -366h-240l-194 290h-57v-290zM463 750h-153l65 100h180z" />
    <glyph glyph-name="uni0409" unicode="&#x409;" horiz-adv-x="1102" 
d="M878 229c0 42 -28 62 -81 62h-125v-128h125c54 0 81 24 81 66zM1075 229c0 -138 -88 -229 -250 -229h-347v548h-148l-13 -223c-16 -260 -92 -335 -306 -335l9 190c86 0 94 39 106 224l23 316h523v-267h153c162 0 250 -91 250 -224z" />
    <glyph glyph-name="uni040A" unicode="&#x40a;" horiz-adv-x="1174" 
d="M1146 229c0 -138 -88 -229 -249 -229h-348v282h-274v-282h-195v720h195v-267h274v267h195v-267h153c161 0 249 -91 249 -224zM950 229c0 42 -29 62 -81 62h-125v-128h125c54 0 81 24 81 66z" />
    <glyph glyph-name="uni040B" unicode="&#x40b;" horiz-adv-x="908" 
d="M863 0h-194v191c0 72 -38 102 -102 102h-116v-293h-194v548h-238v172h693v-172h-261v-84h139c174 0 273 -88 273 -263v-201z" />
    <glyph glyph-name="uni040E" unicode="&#x40e;" horiz-adv-x="795" 
d="M345 0h-229l165 259l-275 461h228l161 -279h2l162 279h231zM397 750c-103 0 -164 26 -171 119h108c4 -17 25 -25 63 -25c39 0 59 8 64 25h107c-6 -93 -67 -119 -171 -119z" />
    <glyph glyph-name="uni040F" unicode="&#x40f;" horiz-adv-x="811" 
d="M731 0h-239v-150h-175v150h-237v720h195v-548h261v548h195v-720z" />
    <glyph glyph-name="uni0462" unicode="&#x462;" horiz-adv-x="860" 
d="M833 230c0 -138 -90 -230 -253 -230h-349v512h-212v172h212v36h194v-36h264v-172h-264v-56h155c163 0 253 -92 253 -226zM636 230c0 43 -30 64 -85 64h-126v-131h126c57 0 85 25 85 67z" />
    <glyph glyph-name="uni0472" unicode="&#x472;" horiz-adv-x="822" 
d="M782 360c0 -212 -139 -374 -371 -374s-370 162 -370 374c0 211 138 374 370 374s371 -163 371 -374zM410 157c83 0 139 48 162 120h-323c23 -72 78 -120 161 -120zM410 562c-80 0 -135 -46 -159 -113h319c-25 67 -79 113 -160 113z" />
    <glyph glyph-name="uni0474" unicode="&#x474;" horiz-adv-x="783" 
d="M496 0h-221l-269 720h212l169 -479h1l81 260c26 88 52 159 92 219h217c-57 -78 -86 -152 -120 -250z" />
    <glyph glyph-name="uni0492" unicode="&#x492;" horiz-adv-x="689" 
d="M12 390h158v330h499v-172h-305v-158h219v-171h-219v-219h-194v219h-158v171z" />
    <glyph glyph-name="uni0496" unicode="&#x496;" horiz-adv-x="1166" 
d="M256 0h-235l242 366l-223 354h234l155 -269h56v269h196v-269h56l155 269h235l-224 -354l133 -194h89v-322h-175v150h-39l-177 290h-53v-290h-196v290h-53z" />
    <glyph glyph-name="uni049A" unicode="&#x49a;" horiz-adv-x="765" 
d="M276 0h-196v720h196v-269h56l158 269h235l-227 -354l136 -194h90v-322h-175v150h-39h-1l-179 290h-54v-290z" />
    <glyph glyph-name="uni04A2" unicode="&#x4a2;" horiz-adv-x="867" 
d="M832 -150h-175v150h-108v282h-274v-282h-195v720h195v-267h274v267h195v-548h88v-322z" />
    <glyph glyph-name="uni04AE" unicode="&#x4ae;" horiz-adv-x="795" 
d="M493 0h-195v280l-292 440h237l152 -245h2l157 245h236l-297 -440v-280z" />
    <glyph glyph-name="uni04B0" unicode="&#x4b0;" horiz-adv-x="795" 
d="M493 0h-195v215h-214v171h143l-221 334h237l152 -245h2l157 245h236l-226 -334h144v-171h-215v-215z" />
    <glyph glyph-name="uni04B2" unicode="&#x4b2;" horiz-adv-x="819" 
d="M245 0h-239l272 382l-238 338h241l131 -209l136 209h239l-242 -338l150 -210h92v-322h-175v150h-38v1l-1 -1l-162 254z" />
    <glyph glyph-name="uni04B6" unicode="&#x4b6;" horiz-adv-x="774" 
d="M740 -150h-176v150h-107v195h-150c-166 0 -262 111 -262 263v262h194v-262c0 -50 31 -92 93 -92h125v354h194v-548h89v-322z" />
    <glyph glyph-name="uni04BA" unicode="&#x4ba;" horiz-adv-x="724" 
d="M679 0h-195v262c0 50 -31 92 -92 92h-125v-354h-195v720h195v-195h150c165 0 262 -111 262 -263v-262z" />
    <glyph glyph-name="uni04C0" unicode="&#x4c0;" horiz-adv-x="355" 
d="M275 0h-195v720h195v-720z" />
    <glyph glyph-name="uni04D8" unicode="&#x4d8;" horiz-adv-x="819" 
d="M778 361c0 -213 -138 -375 -371 -375c-242 0 -373 167 -373 371v64h541c-20 82 -85 141 -195 141c-83 0 -141 -32 -187 -85l-136 124c78 88 190 133 336 133c237 0 385 -158 385 -373zM400 149c82 0 135 38 162 101h-310c20 -59 73 -101 148 -101z" />
    <glyph glyph-name="uni04E2" unicode="&#x4e2;" horiz-adv-x="824" 
d="M744 720v-720h-195v411h-1l-286 -411h-182v720h195v-412h1l286 412h182zM580 757h-298v107h298v-107z" />
    <glyph glyph-name="uni04E8" unicode="&#x4e8;" horiz-adv-x="822" 
d="M782 360c0 -212 -139 -374 -371 -374s-370 162 -370 374c0 211 138 374 370 374s371 -163 371 -374zM410 157c83 0 139 48 162 120h-323c23 -72 78 -120 161 -120zM410 562c-80 0 -135 -46 -159 -113h319c-25 67 -79 113 -160 113z" />
    <glyph glyph-name="uni04EE" unicode="&#x4ee;" horiz-adv-x="795" 
d="M345 0h-229l165 259l-275 461h228l161 -279h2l162 279h231zM545 757h-298v107h298v-107z" />
    <glyph glyph-name="uni0430" unicode="&#x430;" horiz-adv-x="631" 
d="M306 126c52 0 78 18 78 40v5c0 22 -27 39 -79 39c-53 0 -80 -14 -80 -42s28 -42 81 -42zM570 0h-183v30h-2c-22 -22 -63 -44 -149 -44c-119 0 -196 73 -196 181c0 101 70 179 209 179c67 0 107 -15 134 -36h1v14c0 37 -35 77 -137 77c-41 0 -82 -3 -119 -10l-8 152
c50 6 100 8 152 8c187 0 298 -71 298 -227v-324z" />
    <glyph glyph-name="uni0431" unicode="&#x431;" horiz-adv-x="645" 
d="M427 249c0 63 -38 111 -103 111s-104 -50 -104 -109c0 -65 39 -113 104 -113s103 48 103 111zM614 255c0 -153 -104 -269 -284 -269c-204 0 -298 131 -298 339c0 211 57 352 259 385c91 15 169 22 247 51l16 -155c-39 -19 -106 -34 -216 -46c-94 -12 -120 -51 -127 -108
h1c34 40 93 60 153 60c157 0 249 -107 249 -257z" />
    <glyph glyph-name="uni0432" unicode="&#x432;" horiz-adv-x="609" 
d="M584 155c0 -84 -70 -155 -200 -155h-313v537h294c109 0 186 -44 186 -140c0 -45 -22 -89 -72 -108v-2c71 -18 105 -67 105 -132zM397 175c0 22 -18 31 -37 31h-104v-63h103c21 0 38 11 38 32zM365 366c0 19 -15 28 -33 28h-76v-57h76c19 0 33 10 33 29z" />
    <glyph glyph-name="uni0433" unicode="&#x433;" horiz-adv-x="488" 
d="M256 0h-185v537h402v-161h-217v-376z" />
    <glyph glyph-name="uni0434" unicode="&#x434;" horiz-adv-x="708" 
d="M683 -135h-171v135h-319v-135h-171v289h66c18 44 27 99 32 176l15 207h481v-383h67v-289zM431 154v229h-124l-5 -81c-3 -60 -12 -108 -25 -148h154z" />
    <glyph glyph-name="uni0435" unicode="&#x435;" horiz-adv-x="615" 
d="M327 -14c-180 0 -296 116 -296 283c0 162 112 282 290 282c143 0 248 -93 271 -223l-330 -169c21 -16 48 -23 80 -23c56 0 94 20 119 50l115 -108c-58 -61 -143 -92 -249 -92zM323 412c-60 0 -103 -35 -109 -116l172 88c-14 17 -38 28 -63 28z" />
    <glyph glyph-name="uni0436" unicode="&#x436;" horiz-adv-x="949" 
d="M219 0h-207l170 284l-151 253h216l93 -183h41v183h187v-183h40l94 183h216l-151 -253l170 -284h-207l-114 202h-48v-202h-187v203h-47z" />
    <glyph glyph-name="uni0437" unicode="&#x437;" horiz-adv-x="538" 
d="M507 151c0 -94 -79 -165 -252 -165c-128 0 -195 32 -242 78l84 110c31 -26 72 -41 133 -41c68 0 84 16 84 38s-20 34 -69 34h-112v143h101c41 0 58 7 58 27c0 18 -16 30 -70 30c-39 0 -83 -11 -112 -35l-85 112c45 42 111 69 231 69c147 0 228 -61 228 -153
c0 -53 -35 -91 -78 -112v-1c59 -19 101 -56 101 -134z" />
    <glyph glyph-name="uni0438" unicode="&#x438;" horiz-adv-x="713" 
d="M642 0h-185v275h-1l-213 -275h-172v537h185v-275h1l213 275h172v-537z" />
    <glyph glyph-name="uni0439" unicode="&#x439;" horiz-adv-x="713" 
d="M642 0h-185v275h-1l-213 -275h-172v537h185v-275h1l213 275h172v-537zM358 583c-103 0 -164 41 -171 137h108c4 -19 25 -27 63 -27c39 0 58 8 64 27h107c-6 -96 -67 -137 -171 -137z" />
    <glyph glyph-name="uni043A" unicode="&#x43a;" horiz-adv-x="679" 
d="M258 0h-187v537h187v-182h49l115 182h225l-181 -253l200 -284h-225l-129 202h-54v-202z" />
    <glyph glyph-name="uni043B" unicode="&#x43b;" horiz-adv-x="673" 
d="M602 0h-185v383h-114l-8 -141c-12 -194 -81 -249 -268 -249l7 142c64 0 71 29 80 166l16 236h472v-537z" />
    <glyph glyph-name="uni043C" unicode="&#x43c;" horiz-adv-x="772" 
d="M720 0h-185l-22 243h-3l-123 -185h-10l-123 185h-2l-23 -243h-177l45 537h174l114 -172h3l113 172h174z" />
    <glyph glyph-name="uni043D" unicode="&#x43d;" horiz-adv-x="714" 
d="M643 0h-185v197h-202v-197h-185v537h185v-186h202v186h185v-537z" />
    <glyph glyph-name="uni043E" unicode="&#x43e;" horiz-adv-x="654" 
d="M435 269c0 68 -38 121 -108 121c-71 0 -109 -53 -109 -121c0 -69 38 -122 109 -122c70 0 108 53 108 122zM622 269c0 -161 -111 -283 -295 -283c-185 0 -296 122 -296 283c0 160 111 282 296 282c184 0 295 -122 295 -282z" />
    <glyph glyph-name="uni043F" unicode="&#x43f;" horiz-adv-x="714" 
d="M643 0h-185v383h-202v-383h-185v537h572v-537z" />
    <glyph glyph-name="uni0440" unicode="&#x440;" horiz-adv-x="689" 
d="M471 269c0 67 -38 120 -108 120s-107 -52 -107 -109v-22c0 -58 37 -110 107 -110s108 53 108 121zM658 269c0 -165 -97 -283 -245 -283c-68 0 -126 25 -156 60h-1v-246h-185v737h182v-47h3c31 37 89 61 157 61c148 0 245 -117 245 -282z" />
    <glyph glyph-name="uni0441" unicode="&#x441;" horiz-adv-x="560" 
d="M546 78c-56 -61 -135 -92 -230 -92c-173 0 -285 116 -285 283c0 163 110 282 285 282c93 0 165 -31 221 -92l-116 -109c-23 29 -52 51 -93 51c-67 0 -110 -47 -110 -132c0 -86 44 -133 110 -133c45 0 79 22 103 51z" />
    <glyph glyph-name="uni0442" unicode="&#x442;" horiz-adv-x="554" 
d="M370 0h-185v376h-171v161h526v-161h-170v-376z" />
    <glyph glyph-name="uni0443" unicode="&#x443;" horiz-adv-x="635" 
d="M201 -214c-35 0 -64 1 -92 6l7 146c12 -4 29 -7 47 -7c44 0 62 18 75 53l6 16l-237 537h199l123 -296h2l100 296h198l-221 -569c-44 -111 -92 -182 -207 -182z" />
    <glyph glyph-name="uni0444" unicode="&#x444;" horiz-adv-x="809" 
d="M497 -200h-185v193c-181 25 -282 130 -282 276c0 145 101 249 282 275v176h185v-175c180 -26 282 -131 282 -276c0 -146 -102 -251 -282 -277v-192zM217 269c0 -61 27 -102 95 -120v240c-68 -18 -95 -60 -95 -120zM591 269c0 59 -27 101 -94 119v-239c67 18 94 59 94 120
z" />
    <glyph glyph-name="uni0445" unicode="&#x445;" horiz-adv-x="663" 
d="M228 0h-221l201 285l-175 252h223l78 -132l82 132h221l-179 -252l199 -285h-224l-101 165z" />
    <glyph glyph-name="uni0446" unicode="&#x446;" horiz-adv-x="727" 
d="M701 -135h-171v135h-459v537h185v-383h193v383h185v-383h67v-289z" />
    <glyph glyph-name="uni0447" unicode="&#x447;" horiz-adv-x="652" 
d="M582 0h-185v134h-139c-128 0 -203 79 -203 202v201h184v-179c0 -36 17 -63 63 -63h95v242h185v-537z" />
    <glyph glyph-name="uni0448" unicode="&#x448;" horiz-adv-x="1004" 
d="M933 0h-862v537h185v-383h154v383h185v-383h154v383h184v-537z" />
    <glyph glyph-name="uni0449" unicode="&#x449;" horiz-adv-x="1026" 
d="M1000 -135h-171v135h-758v537h185v-383h154v383h185v-383h154v383h184v-383h67v-289z" />
    <glyph glyph-name="uni044A" unicode="&#x44a;" horiz-adv-x="726" 
d="M700 202c0 -123 -74 -202 -203 -202h-308v376h-168v161h353v-134h123c129 0 203 -86 203 -201zM513 202c0 24 -15 42 -45 42h-94v-83h94c29 0 45 17 45 41z" />
    <glyph glyph-name="uni044B" unicode="&#x44b;" horiz-adv-x="870" 
d="M386 202c0 24 -15 42 -44 42h-86v-83h86c28 0 44 17 44 41zM573 202c0 -123 -74 -202 -202 -202h-300v537h185v-134h115c128 0 202 -86 202 -201zM799 0h-185v537h185v-537z" />
    <glyph glyph-name="uni044C" unicode="&#x44c;" horiz-adv-x="608" 
d="M395 202c0 24 -15 42 -45 42h-94v-83h94c29 0 45 17 45 41zM582 202c0 -123 -74 -202 -203 -202h-308v537h185v-134h123c129 0 203 -86 203 -201z" />
    <glyph glyph-name="uni044D" unicode="&#x44d;" horiz-adv-x="588" 
d="M557 269c0 -167 -116 -283 -295 -283c-108 0 -190 31 -249 92l107 105c26 -31 63 -51 120 -51c59 0 98 24 118 65h-241v144h243c-18 38 -54 65 -114 65c-58 0 -92 -22 -116 -53l-108 106c56 61 129 92 245 92c177 0 290 -120 290 -282z" />
    <glyph glyph-name="uni044E" unicode="&#x44e;" horiz-adv-x="935" 
d="M903 269c0 -161 -111 -283 -295 -283c-155 0 -258 85 -287 207h-65v-193h-185v537h185v-182h67c33 116 135 196 285 196c184 0 295 -122 295 -282zM717 269c0 68 -38 121 -109 121s-109 -53 -109 -121c0 -69 38 -122 109 -122s109 53 109 122z" />
    <glyph glyph-name="uni044F" unicode="&#x44f;" horiz-adv-x="626" 
d="M243 0h-226l109 169c-52 36 -80 96 -80 167c0 122 74 201 203 201h306v-537h-185v134h-53zM230 336c0 -24 15 -42 45 -42h95v82h-95c-29 0 -45 -15 -45 -40z" />
    <glyph glyph-name="uni0453" unicode="&#x453;" horiz-adv-x="488" 
d="M348 579h-152l60 141h179zM256 0h-185v537h402v-161h-217v-376z" />
    <glyph glyph-name="uni0491" unicode="&#x491;" horiz-adv-x="488" 
d="M256 0h-185v537h232v135h170v-296h-217v-376z" />
    <glyph glyph-name="uni0452" unicode="&#x452;" horiz-adv-x="688" 
d="M447 571h-191v-80h1c29 34 84 60 149 60c145 0 221 -90 221 -221v-338c0 -133 -67 -206 -193 -206c-35 0 -65 0 -94 6l8 144c12 -5 23 -7 36 -7c41 0 58 27 58 76v276c0 60 -29 108 -90 108c-60 0 -96 -52 -96 -109v-280h-185v571h-60v128h60v21h185v-21h191v-128z" />
    <glyph glyph-name="uni0454" unicode="&#x454;" horiz-adv-x="588" 
d="M471 197h-242c20 -41 59 -65 119 -65c56 0 94 20 120 51l106 -105c-58 -61 -140 -92 -248 -92c-179 0 -295 116 -295 283c0 162 112 282 290 282c116 0 188 -31 244 -92l-107 -106c-24 31 -58 53 -116 53c-61 0 -97 -27 -114 -65h243v-144z" />
    <glyph glyph-name="uni0455" unicode="&#x455;" horiz-adv-x="551" 
d="M522 167c0 -116 -107 -181 -257 -181c-103 0 -172 29 -235 78l99 124c40 -35 85 -56 150 -56c45 0 65 8 65 26c0 55 -300 2 -300 216c0 116 100 177 233 177c102 0 168 -22 228 -69l-98 -124c-31 30 -75 48 -125 48c-43 0 -61 -9 -61 -24c0 -52 301 0 301 -215z" />
    <glyph glyph-name="uni0450" unicode="&#x450;" horiz-adv-x="615" 
d="M327 -14c-180 0 -296 116 -296 283c0 162 112 282 290 282c143 0 248 -93 271 -223l-330 -169c21 -16 48 -23 80 -23c56 0 94 20 119 50l115 -108c-58 -61 -143 -92 -249 -92zM395 579h-152l-87 141h179zM323 412c-60 0 -103 -35 -109 -116l172 88c-14 17 -38 28 -63 28z
" />
    <glyph glyph-name="uni0451" unicode="&#x451;" horiz-adv-x="615" 
d="M327 -14c-180 0 -296 116 -296 283c0 162 112 282 290 282c143 0 248 -93 271 -223l-330 -169c21 -16 48 -23 80 -23c56 0 94 20 119 50l115 -108c-58 -61 -143 -92 -249 -92zM518 593h-168v127h168v-127zM293 593h-168v127h168v-127zM323 412c-60 0 -103 -35 -109 -116
l172 88c-14 17 -38 28 -63 28z" />
    <glyph glyph-name="uni0456" unicode="&#x456;" horiz-adv-x="328" 
d="M256 0h-185v537h185v-537zM258 592h-189v128h189v-128z" />
    <glyph glyph-name="uni0457" unicode="&#x457;" horiz-adv-x="328" 
d="M256 0h-185v537h185v-537zM136 593h-168v127h168v-127zM361 593h-168v127h168v-127z" />
    <glyph glyph-name="uni0458" unicode="&#x458;" horiz-adv-x="328" 
d="M259 592h-190v128h190v-128zM63 -214c-36 0 -65 0 -94 6l7 144c12 -5 24 -7 37 -7c41 0 58 27 58 77v531h187v-542c0 -135 -68 -209 -195 -209z" />
    <glyph glyph-name="uni045D" unicode="&#x45d;" horiz-adv-x="713" 
d="M434 579h-152l-87 141h179zM642 0h-185v275h-1l-213 -275h-172v537h185v-275h1l213 275h172v-537z" />
    <glyph glyph-name="uni045C" unicode="&#x45c;" horiz-adv-x="679" 
d="M258 0h-187v537h187v-182h49l115 182h225l-181 -253l200 -284h-225l-129 202h-54v-202zM413 579h-152l60 141h179z" />
    <glyph glyph-name="uni0459" unicode="&#x459;" horiz-adv-x="940" 
d="M915 179c0 -108 -66 -179 -187 -179h-311v383h-114l-8 -141c-12 -194 -81 -249 -268 -249l7 142c64 0 71 29 80 166l16 236h472v-182h126c117 0 187 -72 187 -176zM728 181c0 22 -17 32 -37 32h-89v-63h89c20 0 37 11 37 31z" />
    <glyph glyph-name="uni045A" unicode="&#x45a;" horiz-adv-x="930" 
d="M904 179c0 -108 -65 -179 -186 -179h-311v194h-151v-194h-185v537h185v-182h151v182h185v-182h126c117 0 186 -72 186 -176zM718 181c0 22 -17 32 -37 32h-89v-63h89c20 0 37 11 37 31z" />
    <glyph glyph-name="uni045B" unicode="&#x45b;" horiz-adv-x="691" 
d="M627 0h-185v281c0 60 -29 108 -90 108c-60 0 -96 -52 -96 -109v-280h-185v571h-60v128h60v21h185v-21h182v-128h-182v-80h1c29 34 84 60 149 60c145 0 221 -90 221 -221v-330z" />
    <glyph glyph-name="uni045E" unicode="&#x45e;" horiz-adv-x="635" 
d="M201 -214c-35 0 -64 1 -92 6l7 146c12 -4 29 -7 47 -7c44 0 62 18 75 53l6 16l-237 537h199l123 -296h2l100 296h198l-221 -569c-44 -111 -92 -182 -207 -182zM328 583c-103 0 -164 41 -171 137h108c2 -15 25 -24 63 -24c39 0 60 9 64 24h107c-6 -96 -67 -137 -171 -137z
" />
    <glyph glyph-name="uni045F" unicode="&#x45f;" horiz-adv-x="705" 
d="M439 -135h-171v135h-197v537h185v-383h193v383h185v-537h-195v-135z" />
    <glyph glyph-name="uni0463" unicode="&#x463;" horiz-adv-x="675" 
d="M523 389h-191v-27h129c118 0 188 -74 188 -179c0 -110 -66 -183 -188 -183h-314v389h-126v127h126v21h185v-21h191v-127zM463 185c0 23 -18 35 -39 35h-92v-70h92c21 0 39 13 39 35z" />
    <glyph glyph-name="uni0473" unicode="&#x473;" horiz-adv-x="654" 
d="M622 269c0 -161 -111 -283 -295 -283c-185 0 -296 122 -296 283c0 160 111 282 296 282c184 0 295 -122 295 -282zM327 139c42 0 73 21 91 54h-183c17 -33 48 -54 92 -54zM327 399c-43 0 -73 -20 -91 -52h181c-18 32 -49 52 -90 52z" />
    <glyph glyph-name="uni0475" unicode="&#x475;" horiz-adv-x="645" 
d="M420 0h-205l-208 537h199l113 -335h1l54 172c18 66 38 118 67 163h197c-42 -58 -61 -114 -88 -186z" />
    <glyph glyph-name="uni0493" unicode="&#x493;" horiz-adv-x="548" 
d="M316 0h-184v144h-118v161h118v232h402v-161h-218v-71h153v-161h-153v-144z" />
    <glyph glyph-name="uni0497" unicode="&#x497;" horiz-adv-x="949" 
d="M228 0h-216l170 284l-151 253h216l93 -182h41v182h187v-182h41l93 182h216l-151 -253l85 -130h73v-289h-170v135h-32v2l-2 -2l-107 202h-46v-202h-187v202h-46z" />
    <glyph glyph-name="uni049B" unicode="&#x49b;" horiz-adv-x="679" 
d="M258 0h-187v537h187v-182h49l115 182h225l-181 -253l100 -130h79v-289h-171v135h-32v1l-1 -1l-129 202h-54v-202z" />
    <glyph glyph-name="uni04A3" unicode="&#x4a3;" horiz-adv-x="735" 
d="M710 -135h-171v135h-81v197h-202v-197h-185v537h185v-186h202v186h185v-383h67v-289z" />
    <glyph glyph-name="uni04AF" unicode="&#x4af;" horiz-adv-x="635" 
d="M410 -200h-185v200l-218 537h199l113 -309h1l111 309h198l-219 -537v-200z" />
    <glyph glyph-name="uni04B1" unicode="&#x4b1;" horiz-adv-x="635" 
d="M410 -200h-185v69h-143v162h130l-205 506h199l113 -309h1l111 309h198l-207 -506h132v-162h-144v-69z" />
    <glyph glyph-name="uni04B3" unicode="&#x4b3;" horiz-adv-x="663" 
d="M228 0h-221l201 285l-175 252h223l78 -132l82 132h221l-179 -252l94 -131h85v-289h-171v135h-32v1l-1 -1l-101 165z" />
    <glyph glyph-name="uni04B7" unicode="&#x4b7;" horiz-adv-x="677" 
d="M650 -135h-171v135h-81v134h-139c-129 0 -203 79 -203 202v201h184v-179c0 -36 17 -63 63 -63h95v242h185v-383h67v-289z" />
    <glyph glyph-name="uni04BB" unicode="&#x4bb;" horiz-adv-x="689" 
d="M627 0h-185v281c0 60 -29 108 -90 108c-60 0 -96 -52 -96 -109v-280h-185v720h185v-229h1c29 34 84 60 149 60c145 0 221 -90 221 -221v-330z" />
    <glyph glyph-name="uni04D9" unicode="&#x4d9;" horiz-adv-x="625" 
d="M298 551c180 0 296 -116 296 -282c0 -163 -113 -283 -288 -283c-179 0 -284 136 -284 283v56h379c-19 50 -61 76 -119 76c-55 0 -93 -20 -118 -49l-116 107c59 61 143 92 250 92zM307 126c42 0 78 19 94 67h-193c0 -29 34 -67 99 -67z" />
    <glyph glyph-name="uni04E3" unicode="&#x4e3;" horiz-adv-x="713" 
d="M506 607h-298v107h298v-107zM642 0h-185v275h-1l-213 -275h-172v537h185v-275h1l213 275h172v-537z" />
    <glyph glyph-name="uni04E9" unicode="&#x4e9;" horiz-adv-x="654" 
d="M622 269c0 -161 -111 -283 -295 -283c-185 0 -296 122 -296 283c0 160 111 282 296 282c184 0 295 -122 295 -282zM327 139c42 0 73 21 91 54h-183c17 -33 48 -54 92 -54zM327 399c-43 0 -73 -20 -91 -52h181c-18 32 -49 52 -90 52z" />
    <glyph glyph-name="uni04EF" unicode="&#x4ef;" horiz-adv-x="635" 
d="M476 607h-298v107h298v-107zM201 -214c-35 0 -64 1 -92 6l7 146c12 -4 29 -7 47 -7c44 0 62 18 75 53l6 16l-237 537h199l123 -296h2l100 296h198l-221 -569c-44 -111 -92 -182 -207 -182z" />
    <glyph glyph-name="a.superior" unicode="&#xe000;" horiz-adv-x="419" 
d="M208 385c29 0 42 9 42 19v2c0 11 -14 18 -43 18c-30 0 -45 -6 -45 -20c0 -12 16 -19 46 -19zM383 295h-131v15h-2c-14 -12 -39 -24 -94 -24c-76 0 -125 48 -125 117c0 66 44 118 136 118c40 0 65 -7 82 -20h1v3c0 20 -21 44 -84 44c-28 0 -54 -2 -78 -8l-6 109
c35 4 67 5 103 5c123 0 198 -45 198 -150v-209z" />
    <glyph glyph-name="b.superior" unicode="&#xe001;" horiz-adv-x="453" 
d="M300 470c0 39 -21 68 -62 68s-63 -29 -63 -63v-9c0 -34 22 -65 63 -65s62 30 62 69zM433 470c0 -108 -63 -184 -160 -184c-39 0 -76 12 -98 34h-2v-25h-129v468h131v-142h2c20 21 57 33 96 33c97 0 160 -75 160 -184z" />
    <glyph glyph-name="c.superior" unicode="&#xe002;" horiz-adv-x="366" 
d="M359 345c-37 -40 -89 -59 -152 -59c-114 0 -188 76 -188 184c0 107 73 184 188 184c62 0 110 -19 147 -58l-83 -79c-13 18 -32 31 -55 31c-39 0 -64 -27 -64 -78s26 -78 64 -78c26 0 47 14 61 32z" />
    <glyph glyph-name="d.superior" unicode="&#xe003;" horiz-adv-x="458" 
d="M215 401c40 0 62 31 62 65v9c0 34 -22 63 -62 63c-41 0 -63 -29 -63 -68s22 -69 63 -69zM409 295h-130v25h-2c-21 -22 -58 -34 -98 -34c-97 0 -160 76 -160 184c0 109 63 184 160 184c40 0 77 -12 97 -33h1v142h132v-468z" />
    <glyph glyph-name="e.superior" unicode="&#xe004;" horiz-adv-x="403" 
d="M214 286c-118 0 -195 76 -195 184c0 106 75 184 192 184c96 0 166 -63 181 -150l-205 -104c11 -6 23 -8 38 -8c34 0 59 13 72 30l83 -77c-39 -40 -96 -59 -166 -59zM213 555c-33 0 -58 -16 -63 -60l94 47c-7 8 -20 13 -31 13z" />
    <glyph glyph-name="f.superior" unicode="&#xe005;" horiz-adv-x="262" 
d="M188 295h-131v240h-51v110h51v3c0 77 44 124 151 124c18 0 37 -1 56 -4l-6 -104c-10 2 -21 3 -36 3c-27 0 -34 -9 -34 -19v-3h62v-110h-62v-240z" />
    <glyph glyph-name="g.superior" unicode="&#xe006;" horiz-adv-x="442" 
d="M209 416c37 0 57 28 57 58v7c0 29 -20 57 -57 57s-57 -27 -57 -60c0 -35 20 -62 57 -62zM191 156c-20 0 -47 1 -72 4l4 108c17 -4 39 -6 58 -6c53 0 85 17 85 57v13h-1c-18 -20 -52 -32 -92 -32c-94 0 -154 73 -154 178c0 101 60 176 154 176c40 0 74 -12 93 -33h2v24
h130v-324c0 -103 -78 -165 -207 -165z" />
    <glyph glyph-name="h.superior" unicode="&#xe007;" horiz-adv-x="454" 
d="M415 295h-131v180c0 35 -18 63 -53 63s-56 -29 -56 -63v-180h-131v468h131v-143h1c20 22 55 34 96 34c94 0 143 -59 143 -144v-215z" />
    <glyph glyph-name="i.superior" unicode="&#xe008;" horiz-adv-x="220" 
d="M175 295h-131v350h131v-350zM177 673h-134v90h134v-90z" />
    <glyph glyph-name="j.superior" unicode="&#xe009;" horiz-adv-x="221" 
d="M177 673h-134v90h134v-90zM45 156c-24 0 -45 0 -64 4l4 103c8 -5 15 -6 25 -6c24 0 34 17 34 46v342h133v-349c0 -91 -46 -140 -132 -140z" />
    <glyph glyph-name="k.superior" unicode="&#xe00a;" horiz-adv-x="455" 
d="M175 295h-131v468h131v-228h35l66 110h159l-111 -164l124 -186h-160l-78 130h-35v-130z" />
    <glyph glyph-name="l.superior" unicode="&#xe00b;" horiz-adv-x="220" 
d="M175 295h-131v468h131v-468z" />
    <glyph glyph-name="m.superior" unicode="&#xe00c;" horiz-adv-x="693" 
d="M656 295h-133v180c0 35 -16 63 -53 63c-33 0 -52 -27 -55 -58v-185h-131v180c0 35 -18 63 -53 63s-56 -29 -56 -63v-180h-131v350h129v-25h2c21 22 56 34 96 34c50 0 87 -17 111 -46h4c30 31 69 46 124 46c95 0 146 -59 146 -144v-215z" />
    <glyph glyph-name="n.superior" unicode="&#xe00d;" horiz-adv-x="463" 
d="M425 295h-131v180c0 35 -20 63 -58 63c-39 0 -61 -29 -61 -63v-180h-131v350h129v-25h2c22 22 58 34 100 34c98 0 150 -59 150 -144v-215z" />
    <glyph glyph-name="o.superior" unicode="&#xe00e;" horiz-adv-x="430" 
d="M278 470c0 40 -22 69 -63 69s-63 -29 -63 -69s22 -69 63 -69s63 29 63 69zM410 470c0 -105 -74 -184 -195 -184c-123 0 -196 79 -196 184s73 184 196 184c121 0 195 -79 195 -184z" />
    <glyph glyph-name="p.superior" unicode="&#xe00f;" horiz-adv-x="453" 
d="M300 470c0 39 -21 68 -62 68s-63 -29 -63 -63v-9c0 -34 22 -65 63 -65s62 30 62 69zM433 470c0 -108 -63 -184 -160 -184c-39 0 -76 12 -97 33h-1v-154h-131v480h129v-25h2c22 22 59 34 98 34c97 0 160 -75 160 -184z" />
    <glyph glyph-name="q.superior" unicode="&#xe010;" horiz-adv-x="453" 
d="M215 401c40 0 62 31 62 65v9c0 34 -22 63 -62 63c-41 0 -63 -29 -63 -68s22 -69 63 -69zM409 165h-132v154h-1c-20 -21 -57 -33 -97 -33c-97 0 -160 76 -160 184c0 109 63 184 160 184c40 0 77 -12 98 -34h2v25h130v-480z" />
    <glyph glyph-name="r.superior" unicode="&#xe011;" horiz-adv-x="303" 
d="M175 295h-131v350h129v-27h2c21 23 56 36 94 36c9 0 19 -1 28 -3l-8 -131c-16 3 -28 5 -42 5c-50 0 -72 -25 -72 -57v-173z" />
    <glyph glyph-name="s.superior" unicode="&#xe012;" horiz-adv-x="359" 
d="M342 407c0 -78 -70 -121 -171 -121c-65 0 -113 19 -154 50l66 81c24 -20 56 -31 96 -31c27 0 37 6 37 13c0 27 -190 -4 -190 137c0 78 67 118 155 118c64 0 110 -13 151 -43l-67 -82c-20 16 -48 26 -79 26c-26 0 -35 -6 -35 -14c0 -25 191 5 191 -134z" />
    <glyph glyph-name="t.superior" unicode="&#xe013;" horiz-adv-x="262" 
d="M188 295h-131v240h-51v110h51v118h131v-118h62v-110h-62v-240z" />
    <glyph glyph-name="u.superior" unicode="&#xe014;" horiz-adv-x="448" 
d="M224 286c-123 0 -186 69 -186 157v202h132v-182c0 -36 18 -62 54 -62c35 0 54 26 54 62v182h131v-202c0 -88 -63 -157 -185 -157z" />
    <glyph glyph-name="v.superior" unicode="&#xe015;" horiz-adv-x="422" 
d="M419 645l-135 -350h-146l-135 350h142l67 -207h1l66 207h140z" />
    <glyph glyph-name="w.superior" unicode="&#xe016;" horiz-adv-x="592" 
d="M577 645l-80 -350h-127l-73 105h-3l-72 -105h-129l-78 350h136l29 -177h2l110 170h7l115 -170h1l26 177h136z" />
    <glyph glyph-name="x.superior" unicode="&#xe017;" horiz-adv-x="441" 
d="M161 295h-158l129 186l-113 164h160l43 -76l44 76h158l-114 -164l127 -186h-160l-57 98z" />
    <glyph glyph-name="y.superior" unicode="&#xe018;" horiz-adv-x="422" 
d="M137 156c-24 0 -43 1 -63 4l5 104c8 -2 20 -5 31 -5c28 0 39 8 46 28l3 8l-156 350h142l75 -178h1l58 178h140l-141 -368c-29 -74 -62 -121 -141 -121z" />
    <glyph glyph-name="z.superior" unicode="&#xe019;" horiz-adv-x="388" 
d="M357 295h-321v108l129 132h-123v110h309v-108l-125 -132h131v-110z" />
    <glyph glyph-name="grave" unicode="`" horiz-adv-x="472" 
d="M355 579h-152l-87 141h179z" />
    <glyph glyph-name="grave" unicode="&#x300;" horiz-adv-x="472" 
d="M355 579h-152l-87 141h179z" />
    <glyph glyph-name="grave" unicode="&#x2cb;" horiz-adv-x="472" 
d="M355 579h-152l-87 141h179z" />
    <glyph glyph-name="grave.cap" unicode="&#xe01a;" horiz-adv-x="472" 
d="M358 750h-152l-93 100h180z" />
    <glyph glyph-name="acute" unicode="&#xb4;" horiz-adv-x="472" 
d="M268 579h-152l60 141h179z" />
    <glyph glyph-name="acute" unicode="&#x301;" horiz-adv-x="472" 
d="M268 579h-152l60 141h179z" />
    <glyph glyph-name="acute" unicode="&#x2ca;" horiz-adv-x="472" 
d="M268 579h-152l60 141h179z" />
    <glyph glyph-name="acute.cap" unicode="&#xe01b;" horiz-adv-x="472" 
d="M266 750h-153l65 100h180z" />
    <glyph glyph-name="circumflex" unicode="&#x2c6;" horiz-adv-x="472" 
d="M410 579h-133l-42 55l-40 -55h-134l88 141h174z" />
    <glyph glyph-name="circumflex" unicode="&#x302;" horiz-adv-x="472" 
d="M410 579h-133l-42 55l-40 -55h-134l88 141h174z" />
    <glyph glyph-name="circumflex.cap" unicode="&#xe01c;" horiz-adv-x="472" 
d="M411 750h-134l-42 26l-40 -26h-134l88 100h174z" />
    <glyph glyph-name="caron" unicode="&#x2c7;" horiz-adv-x="472" 
d="M323 579h-174l-88 141h134l41 -56l41 56h133z" />
    <glyph glyph-name="caron" unicode="&#x30c;" horiz-adv-x="472" 
d="M323 579h-174l-88 141h134l41 -56l41 56h133z" />
    <glyph glyph-name="caron.cap" unicode="&#xe01d;" horiz-adv-x="472" 
d="M323 750h-174l-88 100h134l41 -33l41 33h134z" />
    <glyph glyph-name="caronSlovak" unicode="&#x315;" horiz-adv-x="472" 
d="M281 579h-151l41 141h170z" />
    <glyph glyph-name="caronSlovak" unicode="&#xe01e;" horiz-adv-x="472" 
d="M281 579h-151l41 141h170z" />
    <glyph glyph-name="tilde" unicode="&#x2dc;" horiz-adv-x="472" 
d="M317 585c-52 0 -92 15 -124 15c-13 0 -19 -4 -22 -17h-107c1 71 20 135 92 135c52 0 92 -16 124 -16c12 0 19 4 22 18h106c-1 -72 -20 -135 -91 -135z" />
    <glyph glyph-name="tilde" unicode="&#x303;" horiz-adv-x="472" 
d="M317 585c-52 0 -92 15 -124 15c-13 0 -19 -4 -22 -17h-107c1 71 20 135 92 135c52 0 92 -16 124 -16c12 0 19 4 22 18h106c-1 -72 -20 -135 -91 -135z" />
    <glyph glyph-name="tilde.cap" unicode="&#xe01f;" horiz-adv-x="472" 
d="M325 751c-51 0 -103 13 -135 13c-12 0 -17 -4 -19 -14h-107c1 61 11 118 84 118c51 0 102 -13 134 -13c13 0 18 3 20 14h106c-1 -61 -11 -118 -83 -118z" />
    <glyph glyph-name="dieresis" unicode="&#xa8;" horiz-adv-x="472" 
d="M207 593h-168v127h168v-127zM432 593h-168v127h168v-127z" />
    <glyph glyph-name="dieresis" unicode="&#x308;" horiz-adv-x="472" 
d="M207 593h-168v127h168v-127zM432 593h-168v127h168v-127z" />
    <glyph glyph-name="dieresis.cap" unicode="&#xe020;" horiz-adv-x="472" 
d="M207 754h-168v111h168v-111zM432 754h-168v111h168v-111z" />
    <glyph glyph-name="macron" unicode="&#xaf;" horiz-adv-x="472" 
d="M385 607h-298v107h298v-107z" />
    <glyph glyph-name="macron" unicode="&#x304;" horiz-adv-x="472" 
d="M385 607h-298v107h298v-107z" />
    <glyph glyph-name="macron" unicode="&#x2c9;" horiz-adv-x="472" 
d="M385 607h-298v107h298v-107z" />
    <glyph glyph-name="macron.cap" unicode="&#xe021;" horiz-adv-x="472" 
d="M385 757h-298v107h298v-107z" />
    <glyph glyph-name="breve" unicode="&#x2d8;" horiz-adv-x="472" 
d="M236 583c-103 0 -164 41 -171 137h108c2 -15 25 -24 63 -24c39 0 60 9 64 24h107c-6 -96 -67 -137 -171 -137z" />
    <glyph glyph-name="breve" unicode="&#x306;" horiz-adv-x="472" 
d="M236 583c-103 0 -164 41 -171 137h108c2 -15 25 -24 63 -24c39 0 60 9 64 24h107c-6 -96 -67 -137 -171 -137z" />
    <glyph glyph-name="breve.cap" unicode="&#xe022;" horiz-adv-x="472" 
d="M236 750c-103 0 -164 26 -171 119h108c2 -13 25 -20 63 -20c39 0 60 7 64 20h107c-6 -93 -67 -119 -171 -119z" />
    <glyph glyph-name="ring" unicode="&#x2da;" horiz-adv-x="472" 
d="M254 652c0 12 -8 18 -21 18c-16 0 -23 -6 -23 -18c0 -13 7 -18 23 -18c13 0 21 5 21 18zM359 652c0 -50 -41 -82 -126 -82c-81 0 -119 33 -119 82c0 48 38 82 119 82c85 0 126 -34 126 -82z" />
    <glyph glyph-name="ring" unicode="&#x30a;" horiz-adv-x="472" 
d="M254 652c0 12 -8 18 -21 18c-16 0 -23 -6 -23 -18c0 -13 7 -18 23 -18c13 0 21 5 21 18zM359 652c0 -50 -41 -82 -126 -82c-81 0 -119 33 -119 82c0 48 38 82 119 82c85 0 126 -34 126 -82z" />
    <glyph glyph-name="ring.cap" unicode="&#xe023;" horiz-adv-x="472" 
d="M254 832c0 12 -8 18 -21 18c-16 0 -23 -6 -23 -18c0 -13 7 -18 23 -18c13 0 21 5 21 18zM359 832c0 -50 -41 -82 -126 -82c-81 0 -119 33 -119 82c0 48 38 82 119 82c85 0 126 -34 126 -82z" />
    <glyph glyph-name="hungarumlaut" unicode="&#x2dd;" horiz-adv-x="472" 
d="M170 579h-150l60 141h177zM365 579h-150l60 141h177z" />
    <glyph glyph-name="hungarumlaut" unicode="&#x30b;" horiz-adv-x="472" 
d="M170 579h-150l60 141h177zM365 579h-150l60 141h177z" />
    <glyph glyph-name="hungarumlaut.cap" unicode="&#xe024;" horiz-adv-x="472" 
d="M167 750h-150l65 100h178zM363 750h-150l64 100h178z" />
    <glyph glyph-name="dotaccent" unicode="&#x2d9;" horiz-adv-x="472" 
d="M331 593h-190v127h190v-127z" />
    <glyph glyph-name="dotaccent" unicode="&#x307;" horiz-adv-x="472" 
d="M331 593h-190v127h190v-127z" />
    <glyph glyph-name="dotaccent.cap" unicode="&#xe025;" horiz-adv-x="472" 
d="M330 754h-188v111h188v-111z" />
    <glyph glyph-name="cedilla" unicode="&#xb8;" horiz-adv-x="472" 
d="M358 -99c0 -54 -47 -85 -120 -85c-54 0 -102 16 -129 42l56 81c7 -8 20 -15 37 -15c15 0 23 7 23 18c0 17 -17 32 -54 58h126c30 -23 61 -55 61 -99z" />
    <glyph glyph-name="cedilla" unicode="&#x327;" horiz-adv-x="472" 
d="M358 -99c0 -54 -47 -85 -120 -85c-54 0 -102 16 -129 42l56 81c7 -8 20 -15 37 -15c15 0 23 7 23 18c0 17 -17 32 -54 58h126c30 -23 61 -55 61 -99z" />
    <glyph glyph-name="cedilla.fr" unicode="&#xe169;" horiz-adv-x="472" 
d="M256 -196l-121 41c36 35 49 67 49 114h156c0 -71 -28 -116 -84 -155z" />
    <glyph glyph-name="ogonek" unicode="&#x2db;" horiz-adv-x="472" 
d="M363 -142c-27 -26 -74 -42 -129 -42c-73 0 -120 31 -120 85c0 44 31 76 61 99h126c-37 -26 -54 -41 -54 -58c0 -11 8 -18 24 -18s29 7 36 15z" />
    <glyph glyph-name="ogonek" unicode="&#x328;" horiz-adv-x="472" 
d="M363 -142c-27 -26 -74 -42 -129 -42c-73 0 -120 31 -120 85c0 44 31 76 61 99h126c-37 -26 -54 -41 -54 -58c0 -11 8 -18 24 -18s29 7 36 15z" />
    <glyph glyph-name="commaaccent" unicode="&#x326;" horiz-adv-x="472" 
d="M256 -196l-121 41c36 35 49 67 49 114h156c0 -71 -27 -116 -84 -155z" />
    <glyph glyph-name="commaaccent.alt" unicode="&#x2bb;" horiz-adv-x="472" 
d="M289 579h-156c0 71 28 117 84 156l123 -41c-37 -36 -51 -68 -51 -115z" />
    <glyph glyph-name="commaaccent.alt" unicode="&#xe026;" horiz-adv-x="472" 
d="M289 579h-156c0 71 28 117 84 156l123 -41c-37 -36 -51 -68 -51 -115z" />
    <glyph glyph-name="commaaccent.alt" unicode="&#x312;" horiz-adv-x="472" 
d="M289 579h-156c0 71 28 117 84 156l123 -41c-37 -36 -51 -68 -51 -115z" />
    <glyph glyph-name="breveCyr" unicode="&#xe91e;" horiz-adv-x="472" 
d="M236 583c-103 0 -164 41 -171 137h108c4 -19 25 -27 63 -27c39 0 58 8 64 27h107c-6 -96 -67 -137 -171 -137z" />
    <glyph glyph-name="breveCyr.cap" unicode="&#xec94;" horiz-adv-x="472" 
d="M236 750c-103 0 -164 26 -171 119h108c4 -17 25 -25 63 -25c39 0 59 8 64 25h107c-6 -93 -67 -119 -171 -119z" />
    <glyph glyph-name="anoteleia" unicode="&#x387;" horiz-adv-x="316" 
d="M257 174h-198v191h198v-191z" />
    <glyph glyph-name="dieresistonos" unicode="&#x385;" horiz-adv-x="472" 
d="M290 579h-143l18 141h171zM515 585h-168v127h168v-127zM125 585h-168v127h168v-127z" />
    <glyph glyph-name="tonos" unicode="&#x384;" horiz-adv-x="477" 
d="M286 579h-142l18 141h171z" />
    <glyph glyph-name="uni037E" unicode="&#x37e;" horiz-adv-x="315" 
d="M256 346h-198v191h198v-191zM110 -226l-52 80c69 40 89 83 89 146h-89v191h198v-191c0 -98 -44 -175 -146 -226z" />
    <glyph glyph-name="comma" unicode="," horiz-adv-x="315" 
d="M110 -226l-52 80c69 40 89 83 89 146h-89v191h198v-191c0 -98 -44 -175 -146 -226z" />
    <glyph glyph-name="semicolon" unicode=";" horiz-adv-x="315" 
d="M256 346h-198v191h198v-191zM110 -226l-52 80c69 40 89 83 89 146h-89v191h198v-191c0 -98 -44 -175 -146 -226z" />
    <glyph glyph-name="colon" unicode=":" horiz-adv-x="315" 
d="M256 346h-198v191h198v-191zM256 0h-198v191h198v-191z" />
    <glyph glyph-name="period" unicode="." horiz-adv-x="315" 
d="M256 0h-198v191h198v-191z" />
    <glyph glyph-name="ellipsis" unicode="&#x2026;" horiz-adv-x="1054" 
d="M937 0h-198v191h198v-191zM268 0h-197v191h197v-191zM602 0h-196v191h196v-191z" />
    <glyph glyph-name="hyphen" unicode="-" horiz-adv-x="315" 
d="M302 201h-290v144h290v-144z" />
    <glyph glyph-name="hyphen.cap" unicode="&#xe027;" horiz-adv-x="315" 
d="M302 297h-290v144h290v-144z" />
    <glyph glyph-name="exclam" unicode="!" horiz-adv-x="364" 
d="M266 254h-169l-16 466h202zM277 0h-188v183h188v-183z" />
    <glyph glyph-name="exclamdown" unicode="&#xa1;" horiz-adv-x="364" 
d="M98 283h169l16 -466h-202zM87 537h188v-183h-188v183z" />
    <glyph glyph-name="exclamdown.cap" unicode="&#xe028;" horiz-adv-x="364" 
d="M97 466h169l17 -466h-202zM89 720h188v-183h-188v183z" />
    <glyph glyph-name="question" unicode="?" horiz-adv-x="535" 
d="M327 254h-169l-3 150c112 55 162 90 162 130c0 30 -24 50 -76 50c-50 0 -84 -14 -114 -47l-115 103c59 63 140 94 242 94c172 0 250 -78 250 -191c0 -101 -67 -153 -175 -211zM338 0h-189v182h189v-182z" />
    <glyph glyph-name="questiondown" unicode="&#xbf;" horiz-adv-x="535" 
d="M208 283h169l3 -150c-112 -55 -162 -90 -162 -130c0 -30 24 -50 76 -50c50 0 84 14 114 47l115 -103c-59 -63 -140 -94 -242 -94c-172 0 -250 78 -250 191c0 101 67 153 175 211zM197 537h189v-182h-189v182z" />
    <glyph glyph-name="questiondown.cap" unicode="&#xe029;" horiz-adv-x="535" 
d="M208 466h169l3 -150c-112 -55 -162 -90 -162 -130c0 -30 24 -50 76 -50c50 0 84 14 114 47l115 -103c-59 -63 -140 -94 -242 -94c-172 0 -250 78 -250 191c0 101 67 153 175 211zM197 720h189v-182h-189v182z" />
    <glyph glyph-name="quoteleft" unicode="&#x2018;" horiz-adv-x="316" 
d="M257 393h-198v191c0 94 45 167 147 216l51 -80c-68 -37 -89 -82 -89 -136h89v-191z" />
    <glyph glyph-name="quoteright" unicode="&#x2019;" horiz-adv-x="316" 
d="M111 313l-52 80c69 37 89 81 89 136h-89v191h198v-191c0 -94 -45 -167 -146 -216z" />
    <glyph glyph-name="quotedblleft" unicode="&#x201c;" horiz-adv-x="560" 
d="M257 393h-198v191c0 94 45 167 147 216l51 -80c-68 -37 -89 -82 -89 -136h89v-191zM502 393h-198v191c0 94 44 167 147 216l51 -80c-68 -37 -90 -82 -90 -136h90v-191z" />
    <glyph glyph-name="quotedblright" unicode="&#x201d;" horiz-adv-x="560" 
d="M356 313l-53 80c69 37 90 81 90 136h-90v191h199v-191c0 -94 -45 -167 -146 -216zM111 313l-52 80c69 37 89 81 89 136h-89v191h198v-191c0 -94 -45 -167 -146 -216z" />
    <glyph glyph-name="quotesinglbase" unicode="&#x201a;" horiz-adv-x="316" 
d="M108 -216l-51 80c68 37 88 82 88 136h-88v191h197v-191c0 -94 -44 -167 -146 -216z" />
    <glyph glyph-name="quotedblbase" unicode="&#x201e;" horiz-adv-x="560" 
d="M356 -216l-53 80c69 37 90 82 90 136h-90v191h199v-191c0 -94 -45 -167 -146 -216zM111 -216l-52 80c69 37 89 82 89 136h-89v191h198v-191c0 -94 -45 -167 -146 -216z" />
    <glyph glyph-name="quotesingle" unicode="'" horiz-adv-x="312" 
d="M212 311h-111l-22 409h155z" />
    <glyph glyph-name="quotedbl" unicode="&#x22;" horiz-adv-x="556" 
d="M212 311h-111l-22 409h155zM456 311h-111l-22 409h155z" />
    <glyph glyph-name="guilsinglleft" unicode="&#x2039;" horiz-adv-x="363" 
d="M323 67h-165l-118 202l118 202h165l-107 -202z" />
    <glyph glyph-name="guilsinglright" unicode="&#x203a;" horiz-adv-x="363" 
d="M205 67h-165l106 202l-106 202h165l118 -202z" />
    <glyph glyph-name="guilsinglleft.cap" unicode="&#xe02a;" horiz-adv-x="363" 
d="M323 187h-165l-118 202l118 202h165l-107 -202z" />
    <glyph glyph-name="guilsinglright.cap" unicode="&#xe02b;" horiz-adv-x="363" 
d="M205 187h-165l106 202l-106 202h165l118 -202z" />
    <glyph glyph-name="guillemotleft" unicode="&#xab;" horiz-adv-x="617" 
d="M323 67h-165l-118 202l118 202h165l-107 -202zM577 67h-164l-119 202l119 202h164l-107 -202z" />
    <glyph glyph-name="guillemotright" unicode="&#xbb;" horiz-adv-x="617" 
d="M205 67h-165l107 202l-107 202h165l118 -202zM459 67h-165l107 202l-107 202h165l118 -202z" />
    <glyph glyph-name="guillemotleft.cap" unicode="&#xe02c;" horiz-adv-x="617" 
d="M323 187h-165l-118 202l118 202h165l-107 -202zM577 187h-164l-119 202l119 202h164l-107 -202z" />
    <glyph glyph-name="guillemotright.cap" unicode="&#xe02d;" horiz-adv-x="617" 
d="M205 187h-165l107 202l-107 202h165l118 -202zM459 187h-165l107 202l-107 202h165l118 -202z" />
    <glyph glyph-name="slash" unicode="/" horiz-adv-x="446" 
d="M171 0h-162l267 720h160z" />
    <glyph glyph-name="backslash" unicode="\" horiz-adv-x="446" 
d="M436 0h-160l-267 720h162z" />
    <glyph glyph-name="bar" unicode="|" horiz-adv-x="312" 
d="M230 -217h-148v980h148v-980z" />
    <glyph glyph-name="brokenbar" unicode="&#xa6;" horiz-adv-x="312" 
d="M230 329h-148v434h148v-434zM230 -217h-148v433h148v-433z" />
    <glyph glyph-name="endash" unicode="&#x2013;" 
d="M614 198h-599v142h599v-142z" />
    <glyph glyph-name="endash.cap" unicode="&#xe02e;" 
d="M614 294h-599v142h599v-142z" />
    <glyph glyph-name="underscore" unicode="_" 
d="M630 -221h-630v143h630v-143z" />
    <glyph glyph-name="emdash" unicode="&#x2014;" horiz-adv-x="1260" 
d="M1239 198h-1218v142h1218v-142z" />
    <glyph glyph-name="emdash.cap" unicode="&#xe02f;" horiz-adv-x="1260" 
d="M1239 294h-1218v142h1218v-142z" />
    <glyph glyph-name="bullet" unicode="&#x2022;" horiz-adv-x="508" 
d="M451 73h-395v392h395v-392z" />
    <glyph glyph-name="periodcentered" unicode="&#xb7;" horiz-adv-x="315" 
d="M256 174h-198v191h198v-191z" />
    <glyph glyph-name="periodcentered" unicode="&#x2219;" horiz-adv-x="315" 
d="M256 174h-198v191h198v-191z" />
    <glyph glyph-name="periodcentered.cap" unicode="&#xe031;" horiz-adv-x="315" 
d="M256 270h-198v191h198v-191z" />
    <glyph glyph-name="parenleft" unicode="(" horiz-adv-x="403" 
d="M388 -141l-128 -76c-125 112 -218 269 -218 477s93 365 218 477l128 -76c-99 -108 -162 -233 -162 -401s63 -293 162 -401z" />
    <glyph glyph-name="parenright" unicode=")" horiz-adv-x="387" 
d="M346 260c0 -208 -90 -364 -209 -477l-124 75c95 108 154 234 154 402s-59 294 -154 402l124 75c119 -113 209 -269 209 -477z" />
    <glyph glyph-name="parenleft.cap" unicode="&#xe032;" horiz-adv-x="387" 
d="M388 -41l-128 -76c-125 112 -218 269 -218 477s93 365 218 477l128 -76c-99 -108 -162 -233 -162 -401s63 -293 162 -401z" />
    <glyph glyph-name="parenright.cap" unicode="&#xe033;" horiz-adv-x="387" 
d="M346 360c0 -208 -90 -364 -209 -477l-124 75c95 108 154 234 154 402s-59 294 -154 402l124 75c119 -113 209 -269 209 -477z" />
    <glyph glyph-name="bracketleft" unicode="[" horiz-adv-x="376" 
d="M356 -200h-297v920h297v-146h-121v-628h121v-146z" />
    <glyph glyph-name="bracketright" unicode="]" horiz-adv-x="376" 
d="M317 -200h-297v146h120v628h-120v146h297v-920z" />
    <glyph glyph-name="bracketleft.cap" unicode="&#xe034;" horiz-adv-x="376" 
d="M356 -100h-297v920h297v-146h-121v-628h121v-146z" />
    <glyph glyph-name="bracketright.cap" unicode="&#xe035;" horiz-adv-x="376" 
d="M317 -100h-297v146h120v628h-120v146h297v-920z" />
    <glyph glyph-name="braceleft" unicode="{" horiz-adv-x="426" 
d="M406 -200c-246 0 -293 64 -293 186v86c0 79 -12 104 -94 116v144c82 12 94 37 94 116v86c0 122 47 186 293 186v-146c-88 0 -116 -29 -116 -92v-99c0 -74 -35 -108 -97 -122v-2c62 -14 97 -48 97 -122v-99c0 -63 28 -92 116 -92v-146z" />
    <glyph glyph-name="braceright" unicode="}" horiz-adv-x="426" 
d="M409 188c-82 -12 -95 -37 -95 -116v-86c0 -122 -46 -186 -293 -186v146c89 0 117 29 117 92v99c0 74 33 108 96 122v2c-63 14 -96 48 -96 122v99c0 63 -28 92 -117 92v146c247 0 293 -64 293 -186v-86c0 -79 13 -104 95 -116v-144z" />
    <glyph glyph-name="braceleft.cap" unicode="&#xe036;" horiz-adv-x="426" 
d="M406 -100c-246 0 -293 64 -293 186v86c0 79 -12 104 -94 116v144c82 12 94 37 94 116v86c0 122 47 186 293 186v-146c-88 0 -116 -29 -116 -92v-99c0 -74 -35 -108 -97 -122v-2c62 -14 97 -48 97 -122v-99c0 -63 28 -92 116 -92v-146z" />
    <glyph glyph-name="braceright.cap" unicode="&#xe037;" horiz-adv-x="426" 
d="M409 288c-82 -12 -95 -37 -95 -116v-86c0 -122 -46 -186 -293 -186v146c89 0 117 29 117 92v99c0 74 33 108 96 122v2c-63 14 -96 48 -96 122v99c0 63 -28 92 -117 92v146c247 0 293 -64 293 -186v-86c0 -79 13 -104 95 -116v-144z" />
    <glyph glyph-name="asterisk" unicode="*" horiz-adv-x="547" 
d="M343 720l-13 -135l124 54l43 -133l-132 -29l89 -100l-112 -83l-68 115l-68 -116l-113 84l88 100l-131 29l44 133l122 -54l-12 135h139z" />
    <glyph glyph-name="dagger" unicode="&#x2020;" horiz-adv-x="508" 
d="M332 0h-155l14 429l-153 -15v159l153 -15l-14 162h155l-14 -162l153 15v-159l-153 15z" />
    <glyph glyph-name="daggerdbl" unicode="&#x2021;" horiz-adv-x="508" 
d="M332 0h-155l14 162l-153 -15v159l153 -15v138l-153 -15v159l153 -15l-14 162h155l-14 -162l153 15v-159l-153 15v-138l153 15v-159l-153 15z" />
    <glyph glyph-name="section" unicode="&#xa7;" horiz-adv-x="602" 
d="M567 31c0 -122 -97 -198 -279 -198c-105 0 -180 28 -246 79l93 117c39 -38 102 -52 177 -52c64 0 87 9 87 27c0 57 -347 17 -347 265c0 63 25 110 64 144c-38 27 -63 67 -63 126c0 123 99 195 251 195c105 0 180 -18 245 -67l-94 -121c-36 30 -87 45 -161 45
c-58 0 -73 -11 -73 -28c0 -55 347 -22 347 -253c0 -64 -25 -116 -67 -151c39 -28 66 -67 66 -128zM400 279c0 41 -60 55 -129 73c-32 -8 -52 -28 -52 -58c0 -44 62 -58 134 -77c30 15 47 36 47 62z" />
    <glyph glyph-name="paragraph" unicode="&#xb6;" horiz-adv-x="884" 
d="M568 0h-183v194h-94c-160 0 -257 112 -257 263c0 157 97 263 257 263h277v-720zM385 357v200h-70c-63 0 -92 -39 -92 -100c0 -51 30 -100 92 -100h70zM804 0h-183v720h183v-720z" />
    <glyph glyph-name="at" unicode="@" horiz-adv-x="859" 
d="M416 187c45 0 68 34 68 76v12c0 43 -23 77 -68 77c-47 0 -71 -35 -71 -82c0 -48 24 -83 71 -83zM438 -138c-240 0 -407 147 -407 404c0 241 162 404 401 404c243 0 396 -156 396 -369c0 -177 -102 -248 -211 -248c-36 0 -61 6 -84 17c-18 9 -32 20 -42 33h-2
c-27 -32 -58 -50 -111 -50c-116 0 -185 95 -185 217c0 121 69 216 185 216c47 0 85 -17 111 -50h2v39h145v-230c0 -46 5 -69 31 -69c27 0 41 37 41 99c0 177 -97 282 -276 282c-169 0 -270 -100 -270 -291c0 -165 93 -293 275 -293c78 0 152 24 203 71l66 -95
c-67 -58 -167 -87 -268 -87z" />
    <glyph glyph-name="at.cap" unicode="&#xe038;" horiz-adv-x="859" 
d="M416 280c45 0 68 34 68 76v12c0 43 -23 77 -68 77c-47 0 -71 -35 -71 -82c0 -48 24 -83 71 -83zM438 -45c-240 0 -407 147 -407 404c0 241 162 404 401 404c243 0 396 -156 396 -369c0 -177 -102 -248 -211 -248c-36 0 -61 6 -84 17c-18 9 -32 20 -42 33h-2
c-27 -32 -58 -50 -111 -50c-116 0 -185 95 -185 217c0 121 69 216 185 216c47 0 85 -17 111 -50h2v39h145v-230c0 -46 5 -69 31 -69c27 0 41 37 41 99c0 177 -97 282 -276 282c-169 0 -270 -100 -270 -291c0 -165 93 -293 275 -293c78 0 152 24 203 71l66 -95
c-67 -58 -167 -87 -268 -87z" />
    <glyph glyph-name="copyright" unicode="&#xa9;" horiz-adv-x="846" 
d="M427 132c-144 0 -227 101 -227 228c0 128 83 230 227 230c76 0 134 -24 179 -79l-99 -91c-21 33 -48 47 -81 47c-57 0 -85 -47 -85 -107c0 -58 28 -105 86 -105c36 0 67 10 88 45l99 -89c-48 -55 -108 -79 -187 -79zM703 360c0 156 -98 280 -280 280s-280 -124 -280 -280
c0 -157 98 -280 280 -280s280 123 280 280zM808 360c0 -211 -140 -374 -385 -374s-384 163 -384 374s139 374 384 374s385 -163 385 -374z" />
    <glyph glyph-name="registered" unicode="&#xae;" horiz-adv-x="846" 
d="M808 360c0 -211 -140 -374 -385 -374s-384 163 -384 374s139 374 384 374s385 -163 385 -374zM703 360c0 156 -98 280 -280 280s-280 -124 -280 -280c0 -157 98 -280 280 -280c77 0 139 22 185 60h-140l-54 113h-36v-113h-139v440h242c101 0 160 -66 160 -164
c0 -65 -30 -120 -83 -146l65 -118c52 51 80 125 80 208zM500 416c0 25 -11 42 -43 42h-79v-83h79c32 0 43 20 43 41z" />
    <glyph glyph-name="published" unicode="&#x2117;" horiz-adv-x="846" 
d="M653 416c0 -93 -58 -163 -160 -163h-96v-113h-139v440h235c102 0 160 -65 160 -164zM512 416c0 25 -11 42 -42 42h-73v-83h73c30 0 42 20 42 41zM703 360c0 156 -98 280 -280 280s-280 -124 -280 -280c0 -157 98 -280 280 -280s280 123 280 280zM808 360
c0 -211 -140 -374 -385 -374s-384 163 -384 374s139 374 384 374s385 -163 385 -374z" />
    <glyph glyph-name="published" unicode="&#xe039;" horiz-adv-x="846" 
d="M653 416c0 -93 -58 -163 -160 -163h-96v-113h-139v440h235c102 0 160 -65 160 -164zM512 416c0 25 -11 42 -42 42h-73v-83h73c30 0 42 20 42 41zM703 360c0 156 -98 280 -280 280s-280 -124 -280 -280c0 -157 98 -280 280 -280s280 123 280 280zM808 360
c0 -211 -140 -374 -385 -374s-384 163 -384 374s139 374 384 374s385 -163 385 -374z" />
    <glyph glyph-name="trademark" unicode="&#x2122;" horiz-adv-x="1024" 
d="M291 279h-140v319h-139v122h420v-122h-141v-319zM971 279h-139l-16 196h-2l-101 -158h-6l-101 158h-2l-16 -196h-134l36 441h133l89 -161h2l90 161h132z" />
    <glyph glyph-name="ordfeminine" unicode="&#xaa;" horiz-adv-x="419" 
d="M383 119h-342v125h342v-125zM208 385c29 0 42 9 42 19v2c0 11 -14 18 -43 18c-30 0 -45 -6 -45 -20c0 -12 16 -19 46 -19zM383 295h-131v15h-2c-14 -12 -39 -24 -94 -24c-76 0 -125 48 -125 117c0 66 44 118 136 118c40 0 65 -7 82 -20h1v3c0 20 -21 44 -84 44
c-28 0 -54 -2 -78 -8l-6 109c35 4 67 5 103 5c123 0 198 -45 198 -150v-209z" />
    <glyph glyph-name="ordmasculine" unicode="&#xba;" horiz-adv-x="430" 
d="M400 119h-370v125h370v-125zM278 470c0 40 -22 69 -63 69s-63 -29 -63 -69s22 -69 63 -69s63 29 63 69zM410 470c0 -105 -74 -184 -195 -184c-123 0 -196 79 -196 184s73 184 196 184c121 0 195 -79 195 -184z" />
    <glyph glyph-name="numero" unicode="&#x2116;" horiz-adv-x="1079" 
d="M603 0h-165l-189 255h-1v-255h-168v550h166l190 -255h1v255h166v-550zM1049 119h-370v125h370v-125zM927 470c0 40 -22 69 -63 69s-63 -29 -63 -69s22 -69 63 -69s63 29 63 69zM1059 470c0 -105 -74 -184 -195 -184c-123 0 -196 79 -196 184s73 184 196 184
c121 0 195 -79 195 -184z" />
    <glyph glyph-name="numbersign" unicode="#" 
d="M104 426v128h58l19 166h126l-18 -166h85l19 166h125l-18 -166h48v-128h-62l-14 -131h52v-129h-66l-18 -166h-127l18 166h-84l-18 -166h-128l18 166h-38v129h53l14 131h-44zM275 426l-14 -131h85l14 131h-85z" />
    <glyph glyph-name="Euro" unicode="&#x20ac;" 
d="M461 201h-142c18 -38 46 -59 86 -59s72 15 98 58l115 -113c-60 -70 -135 -101 -233 -101c-132 0 -225 84 -264 215h-86v136h64v23v18h-64v136h84c39 134 132 220 266 220c96 0 169 -32 224 -101l-115 -115c-21 39 -54 60 -93 60s-67 -23 -85 -64h145v-136h-168v-18v-23
h168v-136z" />
    <glyph glyph-name="dollar" unicode="$" 
d="M383 -127h-125v115c-87 6 -152 33 -209 77l92 126c29 -29 68 -45 117 -51v141c-96 34 -200 84 -200 226c0 126 79 205 200 223v119h125v-118c72 -7 128 -26 178 -63l-92 -129c-23 19 -51 31 -86 38v-138c95 -33 198 -84 198 -223c0 -120 -71 -199 -198 -222v-121z
M225 534c0 -20 12 -35 33 -47v90c-24 -8 -33 -25 -33 -43zM413 186c0 19 -12 33 -30 45v-86c21 9 30 23 30 41z" />
    <glyph glyph-name="cent" unicode="&#xa2;" 
d="M407 -127h-124v120c-141 29 -223 144 -223 290c0 147 82 262 223 291v120h124v-116c74 -9 134 -40 183 -97l-116 -107c-17 25 -40 42 -67 51v-286c31 7 57 23 77 52l115 -105c-53 -58 -115 -88 -192 -97v-116zM238 283c0 -54 14 -98 45 -124v248
c-31 -26 -45 -70 -45 -124z" />
    <glyph glyph-name="sterling" unicode="&#xa3;" 
d="M520 291h-170c1 -5 1 -9 1 -14c0 -43 -15 -80 -32 -117c28 -7 56 -12 86 -12c50 0 65 25 77 71l129 -56c-36 -118 -104 -177 -197 -177c-71 0 -146 41 -203 41c-31 0 -49 -12 -68 -41l-120 77c29 58 64 96 114 112c18 41 29 74 29 116h-112v136h84c-6 27 -11 57 -11 91
c0 119 72 216 232 216c102 0 180 -29 241 -92l-113 -122c-23 29 -51 48 -91 48c-52 0 -78 -34 -78 -83c0 -21 2 -40 5 -58h197v-136z" />
    <glyph glyph-name="florin" unicode="&#x192;" 
d="M329 0h-190v291h-73v136h73v82c0 135 79 225 231 225c103 0 181 -30 240 -92l-113 -122c-22 29 -48 47 -92 47c-47 0 -76 -27 -76 -78v-62h150v-136h-150v-291z" />
    <glyph glyph-name="yen" unicode="&#xa5;" 
d="M409 0h-190v121h-170v136h170v41h-170v136h107l-138 286h212l84 -202h1l85 202h211l-139 -286h109v-136h-172v-41h172v-136h-172v-121z" />
    <glyph glyph-name="zero.slash" unicode="&#xe03a;" 
d="M626 650l-55 -71c30 -59 46 -134 46 -219c0 -228 -113 -374 -303 -374c-65 0 -120 17 -166 48l-37 -48l-106 84l53 69c-30 59 -46 134 -46 221c0 228 112 374 302 374c65 0 122 -18 167 -50l39 50zM207 360v-29l168 216c-17 17 -37 26 -61 26c-68 0 -107 -71 -107 -213z
M422 360c0 9 0 18 -1 26l-166 -215c16 -16 36 -24 59 -24c69 0 108 71 108 213z" />
    <glyph glyph-name="zero" unicode="0" 
d="M422 360c0 143 -39 213 -108 213c-68 0 -107 -71 -107 -213c0 -143 39 -213 107 -213c69 0 108 71 108 213zM617 360c0 -228 -113 -374 -303 -374s-302 146 -302 374s112 374 302 374s303 -146 303 -374z" />
    <glyph glyph-name="one" unicode="1" 
d="M465 0h-190v517h-1l-131 -95l-80 141l225 159h177v-722z" />
    <glyph glyph-name="two" unicode="2" 
d="M592 0h-550v150c71 55 131 101 177 141c97 84 139 134 139 191c0 56 -41 86 -94 86c-48 0 -85 -17 -116 -50l-113 124c61 63 142 92 249 92c160 0 269 -85 269 -242c0 -78 -29 -141 -87 -205c-35 -39 -77 -77 -134 -122v-3h260v-162z" />
    <glyph glyph-name="three" unicode="3" 
d="M584 226c0 -145 -114 -240 -303 -240c-114 0 -193 31 -255 93l114 125c30 -34 69 -52 132 -52c82 0 118 30 118 71c0 51 -40 75 -107 75c-23 0 -50 -4 -78 -13l-62 145l156 126v2h-236v162h493v-162l-149 -117v-1c13 -2 28 -5 37 -8c87 -25 140 -100 140 -206z" />
    <glyph glyph-name="four" unicode="4" 
d="M521 0h-185v157h-318v146l326 419h177v-408h89v-157h-89v-157zM340 314v163h-1l-122 -162v-1h123z" />
    <glyph glyph-name="five" unicode="5" 
d="M601 226c0 -145 -115 -240 -304 -240c-114 0 -193 31 -256 93l114 125c32 -34 69 -52 133 -52c85 0 117 29 117 74c0 54 -46 71 -122 71c-54 0 -117 -13 -174 -32v455h444v-162h-268v-109c23 4 45 6 60 6c154 0 256 -80 256 -229z" />
    <glyph glyph-name="six" unicode="6" 
d="M596 234c0 -157 -115 -248 -277 -248c-172 0 -278 105 -278 274c0 218 148 413 400 474l48 -161c-125 -31 -198 -93 -226 -160l2 -1c25 25 68 46 130 46c104 0 201 -70 201 -224zM401 222c0 60 -38 88 -82 88c-51 0 -83 -32 -83 -82c0 -55 26 -94 86 -94
c49 0 79 32 79 88z" />
    <glyph glyph-name="seven" unicode="7" 
d="M333 0h-210l261 539v2h-338v179h533v-167z" />
    <glyph glyph-name="eight" unicode="8" 
d="M605 187c0 -110 -84 -201 -290 -201c-207 0 -291 91 -291 201c0 102 49 151 126 183v1c-56 37 -97 82 -97 173c0 113 90 190 261 190s262 -77 262 -190c0 -91 -42 -136 -97 -173v-1c77 -32 126 -81 126 -183zM410 204c0 51 -32 83 -94 83c-63 0 -97 -32 -97 -82
c0 -54 31 -86 96 -86c64 0 95 31 95 85zM389 531c0 48 -26 77 -75 77c-48 0 -74 -28 -74 -76c0 -51 26 -81 75 -81c47 0 74 30 74 80z" />
    <glyph glyph-name="nine" unicode="9" 
d="M588 460c0 -218 -148 -413 -400 -474l-48 161c125 31 199 93 225 160l-1 1c-25 -25 -67 -46 -130 -46c-103 0 -201 70 -201 224c0 157 115 248 277 248c172 0 278 -105 278 -274zM393 492c0 55 -26 94 -86 94c-49 0 -78 -32 -78 -88c0 -60 36 -88 82 -88
c51 0 82 32 82 82z" />
    <glyph glyph-name="numbersign.LP" unicode="&#xe332;" horiz-adv-x="621" 
d="M100 426v128h58l19 166h126l-18 -166h85l19 166h125l-18 -166h48v-128h-62l-14 -131h52v-129h-66l-18 -166h-127l18 166h-84l-18 -166h-128l18 166h-38v129h53l14 131h-44zM271 426l-14 -131h85l14 131h-85z" />
    <glyph glyph-name="Euro.LP" unicode="&#xe333;" horiz-adv-x="624" 
d="M460 201h-142c18 -38 46 -59 86 -59s72 15 98 58l115 -113c-60 -70 -135 -101 -233 -101c-132 0 -225 84 -264 215h-86v136h64v23v18h-64v136h84c39 134 132 220 266 220c96 0 169 -32 224 -101l-115 -115c-21 39 -54 60 -93 60s-67 -23 -85 -64h145v-136h-168v-18v-23
h168v-136z" />
    <glyph glyph-name="dollar.LP" unicode="&#xe334;" horiz-adv-x="616" 
d="M378 -127h-125v115c-87 6 -152 33 -209 77l92 126c29 -29 68 -45 117 -51v141c-96 34 -200 84 -200 226c0 126 79 205 200 223v119h125v-118c72 -7 128 -26 178 -63l-92 -129c-23 19 -51 31 -86 38v-138c95 -33 198 -84 198 -223c0 -120 -71 -199 -198 -222v-121z
M220 534c0 -20 12 -35 33 -47v90c-24 -8 -33 -25 -33 -43zM408 186c0 19 -12 33 -30 45v-86c21 9 30 23 30 41z" />
    <glyph glyph-name="cent.LP" unicode="&#xe335;" horiz-adv-x="619" 
d="M403 -127h-124v120c-141 29 -223 144 -223 290c0 147 82 261 223 290v121h124v-116c74 -9 134 -40 183 -97l-116 -107c-17 25 -40 42 -67 51v-286c31 7 57 23 77 52l115 -105c-53 -58 -115 -88 -192 -97v-116zM234 283c0 -54 14 -98 45 -124v248
c-31 -26 -45 -70 -45 -124z" />
    <glyph glyph-name="sterling.LP" unicode="&#xe336;" horiz-adv-x="619" 
d="M516 291h-170c1 -5 1 -9 1 -14c0 -43 -15 -80 -32 -117c28 -7 56 -12 86 -12c50 0 65 25 77 71l129 -56c-36 -118 -104 -177 -197 -177c-71 0 -146 41 -203 41c-31 0 -49 -12 -68 -41l-120 77c29 58 64 96 114 112c18 41 29 74 29 116h-112v136h84c-6 27 -11 57 -11 91
c0 119 72 216 232 216c102 0 180 -29 241 -92l-113 -122c-23 29 -51 48 -91 48c-52 0 -78 -34 -78 -83c0 -21 2 -40 5 -58h197v-136z" />
    <glyph glyph-name="florin.LP" unicode="&#xe337;" horiz-adv-x="619" 
d="M325 0h-190v291h-73v136h73v82c0 135 79 225 231 225c103 0 181 -30 240 -92l-113 -122c-22 29 -48 47 -92 47c-47 0 -76 -27 -76 -78v-62h150v-136h-150v-291z" />
    <glyph glyph-name="yen.LP" unicode="&#xe338;" horiz-adv-x="619" 
d="M405 0h-190v121h-170v136h170v41h-170v136h107l-138 286h212l84 -202h1l85 202h211l-139 -286h109v-136h-172v-41h172v-136h-172v-121z" />
    <glyph glyph-name="zero.slash.LP" unicode="&#xe540;" horiz-adv-x="685" 
d="M654 650l-55 -71c30 -59 46 -134 46 -219c0 -228 -113 -374 -303 -374c-65 0 -120 17 -166 48l-37 -48l-106 84l53 69c-30 59 -46 134 -46 221c0 228 112 374 302 374c65 0 122 -18 167 -50l39 50zM235 360v-29l168 216c-17 17 -37 26 -61 26c-68 0 -107 -71 -107 -213z
M450 360c0 9 0 18 -1 26l-166 -215c16 -16 36 -24 59 -24c69 0 108 71 108 213z" />
    <glyph glyph-name="zero.LP" unicode="&#xe33a;" horiz-adv-x="685" 
d="M450 360c0 143 -39 213 -108 213c-68 0 -107 -71 -107 -213c0 -143 39 -213 107 -213c69 0 108 71 108 213zM645 360c0 -228 -113 -374 -303 -374s-302 146 -302 374s112 374 302 374s303 -146 303 -374z" />
    <glyph glyph-name="one.LP" unicode="&#xe33b;" horiz-adv-x="495" 
d="M415 0h-190v517h-1l-131 -95l-80 141l225 159h177v-722z" />
    <glyph glyph-name="two.LP" unicode="&#xe33c;" horiz-adv-x="611" 
d="M582 0h-550v150c71 55 131 101 177 141c97 84 139 134 139 191c0 56 -41 86 -94 86c-48 0 -85 -17 -116 -50l-113 124c61 63 142 92 249 92c160 0 269 -85 269 -242c0 -78 -29 -141 -87 -205c-35 -39 -77 -77 -134 -122v-3h260v-162z" />
    <glyph glyph-name="three.LP" unicode="&#xe33d;" horiz-adv-x="608" 
d="M569 226c0 -145 -114 -240 -303 -240c-114 0 -193 31 -255 93l114 125c30 -34 69 -52 132 -52c82 0 118 30 118 71c0 51 -40 75 -107 75c-23 0 -50 -4 -78 -13l-62 145l156 126v2h-236v162h493v-162l-149 -117v-1c13 -2 28 -5 37 -8c87 -25 140 -100 140 -206z" />
    <glyph glyph-name="four.LP" unicode="&#xe33e;" horiz-adv-x="640" 
d="M529 0h-185v157h-318v146l326 419h177v-408h89v-157h-89v-157zM348 314v163h-1l-122 -162v-1h123z" />
    <glyph glyph-name="five.LP" unicode="&#xe33f;" horiz-adv-x="619" 
d="M597 226c0 -145 -115 -240 -304 -240c-114 0 -193 31 -256 93l114 125c32 -34 69 -52 133 -52c85 0 117 29 117 74c0 54 -46 71 -122 71c-54 0 -117 -13 -174 -32v455h444v-162h-268v-109c23 4 45 6 60 6c154 0 256 -80 256 -229z" />
    <glyph glyph-name="six.LP" unicode="&#xe340;" horiz-adv-x="626" 
d="M596 234c0 -157 -115 -248 -277 -248c-172 0 -278 105 -278 274c0 218 148 413 400 474l48 -161c-125 -31 -198 -93 -226 -160l2 -1c25 25 68 46 130 46c104 0 201 -70 201 -224zM401 222c0 60 -38 88 -82 88c-51 0 -83 -32 -83 -82c0 -55 26 -94 86 -94
c49 0 79 32 79 88z" />
    <glyph glyph-name="seven.LP" unicode="&#xe341;" horiz-adv-x="591" 
d="M317 0h-210l261 539v2h-338v179h533v-167z" />
    <glyph glyph-name="eight.LP" unicode="&#xe342;" horiz-adv-x="663" 
d="M623 187c0 -110 -84 -201 -290 -201c-207 0 -291 91 -291 201c0 102 49 151 126 183v1c-56 37 -97 82 -97 173c0 113 90 190 261 190s262 -77 262 -190c0 -91 -42 -136 -97 -173v-1c77 -32 126 -81 126 -183zM428 204c0 51 -32 83 -94 83c-63 0 -97 -32 -97 -82
c0 -54 31 -86 96 -86c64 0 95 31 95 85zM407 531c0 48 -26 77 -75 77c-48 0 -74 -28 -74 -76c0 -51 26 -81 75 -81c47 0 74 30 74 80z" />
    <glyph glyph-name="nine.LP" unicode="&#xe343;" horiz-adv-x="626" 
d="M586 460c0 -218 -148 -413 -400 -474l-48 161c125 31 199 93 225 160l-1 1c-25 -25 -67 -46 -130 -46c-103 0 -201 70 -201 224c0 157 115 248 277 248c172 0 278 -105 278 -274zM391 492c0 55 -26 94 -86 94c-49 0 -78 -32 -78 -88c0 -60 36 -88 82 -88
c51 0 82 32 82 82z" />
    <glyph glyph-name="numbersign.OT" unicode="&#xe14f;" 
d="M88 317v128h76l17 122h126l-17 -122h86l17 122h125l-17 -122h64v-128h-82l-9 -66h67v-129h-84l-17 -122h-127l17 122h-84l-17 -122h-128l17 122h-53v129h71l10 66h-58zM272 317l-9 -66h85l10 66h-86z" />
    <glyph glyph-name="Euro.OT" unicode="&#xe04b;" 
d="M462 163h-134c17 -19 41 -29 73 -29c45 0 76 13 102 57l115 -104c-61 -70 -135 -101 -235 -101c-134 0 -226 71 -264 177h-84v108h64v11v13h-64v107h84c38 107 131 179 264 179c97 0 170 -32 226 -101l-115 -105c-24 41 -53 57 -92 57c-32 0 -57 -11 -75 -30h135v-107
h-169v-13v-11h169v-108z" />
    <glyph glyph-name="dollar.OT" unicode="&#xe04c;" 
d="M384 -127h-126v115c-86 6 -151 32 -208 77l90 116c29 -28 69 -43 118 -50v75c-96 21 -199 61 -199 180c0 108 77 177 199 192v117h126v-117c71 -7 127 -26 177 -63l-91 -120c-23 18 -51 31 -86 38v-71c95 -21 197 -61 197 -176c0 -104 -68 -173 -197 -193v-120zM226 411
c0 -11 12 -18 32 -24v50c-25 -5 -32 -15 -32 -26zM414 157c0 10 -12 17 -30 23v-48c21 5 30 13 30 25z" />
    <glyph glyph-name="cent.OT" unicode="&#xe04d;" 
d="M408 -127h-129v121c-145 29 -228 145 -228 289c0 145 84 260 228 290v121h129v-116c78 -9 140 -41 191 -100l-121 -105c-19 26 -42 43 -70 52v-286c32 7 59 24 79 54l122 -104c-55 -60 -120 -91 -201 -100v-116zM234 283c0 -52 14 -96 45 -123v246
c-31 -26 -45 -70 -45 -123z" />
    <glyph glyph-name="sterling.OT" unicode="&#xe04e;" 
d="M414 -14c-71 0 -146 41 -203 41c-31 0 -49 -12 -68 -41l-120 77c33 68 76 108 139 117c2 11 4 22 4 35v1h-112v120h79c-4 15 -6 33 -6 52c0 104 69 193 231 193c103 0 181 -29 242 -92l-114 -113c-21 28 -52 48 -96 48c-43 0 -73 -24 -73 -65c0 -8 0 -16 1 -23h150v-120
h-119c1 -5 1 -10 1 -15c0 -17 -3 -32 -7 -46c20 -4 41 -7 63 -7c50 0 64 25 77 70l129 -56c-36 -117 -104 -176 -198 -176z" />
    <glyph glyph-name="florin.OT" unicode="&#xe04f;" 
d="M328 0h-196v215h-78v121h78v39c0 110 72 206 237 206c108 0 190 -29 255 -94l-121 -113c-23 27 -53 48 -98 48c-49 0 -77 -25 -77 -67v-19h155v-121h-155v-215z" />
    <glyph glyph-name="yen.OT" unicode="&#xe050;" 
d="M409 0h-190v63h-170v119h170v25h-170v119h108l-139 241h213l83 -163h1l84 163h212l-140 -241h110v-119h-172v-25h172v-119h-172v-63z" />
    <glyph glyph-name="zero.slash.OT" unicode="&#xec95;" 
d="M625 482l-46 -43c25 -45 38 -98 38 -155c0 -171 -113 -298 -303 -298c-68 0 -126 16 -172 45l-49 -46l-89 101l45 42c-24 45 -37 98 -37 156c0 169 113 297 302 297c67 0 125 -17 172 -45l49 46zM421 284v7l-147 -137c12 -5 25 -7 40 -7c69 0 107 59 107 137zM208 284v-8
l145 136c-12 5 -25 8 -39 8c-68 0 -106 -57 -106 -136z" />
    <glyph glyph-name="zero.OT" unicode="&#xe051;" 
d="M421 284c0 79 -38 136 -107 136c-68 0 -106 -57 -106 -136s38 -137 106 -137c69 0 107 59 107 137zM617 284c0 -171 -113 -298 -303 -298c-189 0 -302 127 -302 298c0 169 113 297 302 297c190 0 303 -128 303 -297z" />
    <glyph glyph-name="one.OT" unicode="&#xe052;" 
d="M465 0h-190v365h-1l-131 -96l-80 142l225 158h177v-569z" />
    <glyph glyph-name="two.OT" unicode="&#xe053;" 
d="M605 0h-576v152c58 26 135 64 199 98c98 51 135 81 135 118c0 33 -29 54 -90 54c-64 0 -98 -20 -127 -51l-122 116c64 64 148 94 260 94c181 0 281 -75 281 -211c0 -61 -30 -103 -75 -142c-31 -29 -66 -52 -99 -72v-1h214v-155z" />
    <glyph glyph-name="three.OT" unicode="&#xe054;" 
d="M585 57c0 -135 -114 -224 -303 -224c-113 0 -193 32 -255 94l114 124c30 -32 68 -52 132 -52c85 0 117 30 117 74c0 48 -35 68 -108 68h-112v166h87c70 0 95 22 95 60c0 41 -34 62 -95 62c-52 0 -85 -17 -111 -47l-104 115c59 56 126 84 237 84c182 0 268 -85 268 -192
c0 -80 -42 -134 -109 -159v-1c86 -17 147 -78 147 -172z" />
    <glyph glyph-name="four.OT" unicode="&#xe055;" 
d="M521 -153h-185v157h-318v146l326 419h177v-408h89v-157h-89v-157zM340 161v163h-1l-122 -162v-1h123z" />
    <glyph glyph-name="five.OT" unicode="&#xe056;" 
d="M601 73c0 -145 -115 -240 -304 -240c-114 0 -193 32 -256 94l114 124c32 -32 69 -52 133 -52c85 0 117 29 117 74c0 54 -46 71 -122 71c-54 0 -117 -12 -174 -31v454h444v-162h-268v-108c23 4 45 5 60 5c154 0 256 -79 256 -229z" />
    <glyph glyph-name="six.OT" unicode="&#xe057;" 
d="M596 234c0 -157 -115 -248 -277 -248c-172 0 -278 105 -278 274c0 218 148 413 400 474l48 -161c-125 -31 -198 -93 -226 -160l2 -1c25 25 68 46 130 46c104 0 201 -70 201 -224zM401 222c0 60 -38 88 -82 88c-51 0 -83 -32 -83 -82c0 -55 26 -94 86 -94
c49 0 79 32 79 88z" />
    <glyph glyph-name="seven.OT" unicode="&#xe058;" 
d="M333 -153h-210l261 540v2h-338v178h533v-167z" />
    <glyph glyph-name="eight.OT" unicode="&#xe059;" 
d="M605 187c0 -110 -84 -201 -290 -201c-207 0 -291 91 -291 201c0 102 49 151 126 183v1c-56 37 -97 82 -97 173c0 113 90 190 261 190s262 -77 262 -190c0 -91 -42 -136 -97 -173v-1c77 -32 126 -81 126 -183zM410 204c0 51 -32 83 -94 83c-63 0 -97 -32 -97 -82
c0 -54 31 -86 96 -86c64 0 95 31 95 85zM389 531c0 48 -26 77 -75 77c-48 0 -74 -28 -74 -76c0 -51 26 -81 75 -81c47 0 74 30 74 80z" />
    <glyph glyph-name="nine.OT" unicode="&#xe05a;" 
d="M588 307c0 -217 -148 -413 -400 -474l-48 161c125 32 199 94 225 160l-1 1c-25 -25 -67 -46 -130 -46c-103 0 -201 71 -201 224c0 158 115 248 277 248c172 0 278 -105 278 -274zM393 340c0 55 -26 93 -86 93c-49 0 -78 -32 -78 -87c0 -60 36 -88 82 -88
c51 0 82 31 82 82z" />
    <glyph glyph-name="numbersign.OP" unicode="&#xe151;" horiz-adv-x="621" 
d="M84 317v128h76l17 122h126l-17 -122h86l17 122h125l-17 -122h64v-128h-82l-9 -66h67v-129h-84l-17 -122h-127l17 122h-84l-17 -122h-128l17 122h-53v129h71l10 66h-58zM268 317l-9 -66h85l10 66h-86z" />
    <glyph glyph-name="Euro.OP" unicode="&#xe05b;" horiz-adv-x="624" 
d="M461 163h-134c17 -19 41 -29 73 -29c45 0 76 13 102 57l115 -104c-61 -70 -135 -101 -235 -101c-134 0 -226 71 -264 177h-84v108h64v11v13h-64v107h84c38 107 131 179 264 179c97 0 170 -32 226 -101l-115 -105c-24 41 -53 57 -92 57c-32 0 -57 -11 -75 -30h135v-107
h-169v-13v-11h169v-108z" />
    <glyph glyph-name="dollar.OP" unicode="&#xe05c;" horiz-adv-x="616" 
d="M379 -127h-126v115c-86 6 -151 32 -208 77l90 116c29 -28 69 -43 118 -50v75c-96 21 -199 61 -199 180c0 108 77 177 199 192v117h126v-117c71 -7 127 -26 177 -63l-91 -120c-23 18 -51 31 -86 38v-71c95 -21 197 -61 197 -176c0 -104 -68 -173 -197 -193v-120zM221 411
c0 -11 12 -18 32 -24v50c-25 -5 -32 -15 -32 -26zM409 157c0 10 -12 17 -30 23v-48c21 5 30 13 30 25z" />
    <glyph glyph-name="cent.OP" unicode="&#xe05d;" horiz-adv-x="645" 
d="M406 -127h-125v121c-141 28 -222 143 -222 289c0 147 81 261 222 290v121h125v-116c74 -10 135 -40 182 -97l-115 -107c-18 25 -40 42 -67 51v-286c31 7 56 23 77 52l114 -105c-53 -58 -115 -88 -191 -97v-116zM236 283c0 -54 14 -98 45 -124v248
c-31 -26 -45 -70 -45 -124z" />
    <glyph glyph-name="sterling.OP" unicode="&#xe05e;" horiz-adv-x="619" 
d="M410 -14c-71 0 -146 41 -203 41c-31 0 -49 -12 -68 -41l-120 77c33 68 76 108 139 117c2 11 4 22 4 35v1h-112v120h79c-4 15 -6 33 -6 52c0 104 69 193 231 193c103 0 181 -29 242 -92l-114 -113c-21 28 -52 48 -96 48c-43 0 -73 -24 -73 -65c0 -8 0 -16 1 -23h150v-120
h-119c1 -5 1 -10 1 -15c0 -17 -3 -32 -7 -46c20 -4 41 -7 63 -7c50 0 64 25 77 70l129 -56c-36 -117 -104 -176 -198 -176z" />
    <glyph glyph-name="florin.OP" unicode="&#xe05f;" horiz-adv-x="645" 
d="M337 0h-196v215h-78v121h78v39c0 110 72 206 237 206c108 0 190 -29 255 -94l-121 -113c-23 27 -53 48 -98 48c-49 0 -77 -25 -77 -67v-19h155v-121h-155v-215z" />
    <glyph glyph-name="yen.OP" unicode="&#xe060;" horiz-adv-x="619" 
d="M405 0h-190v63h-170v119h170v25h-170v119h108l-139 241h213l83 -163h1l84 163h212l-140 -241h110v-119h-172v-25h172v-119h-172v-63z" />
    <glyph glyph-name="zero.slash.OP" unicode="&#xe4b1;" horiz-adv-x="685" 
d="M653 482l-46 -43c25 -45 38 -98 38 -155c0 -171 -113 -298 -303 -298c-68 0 -126 16 -172 45l-49 -46l-89 101l45 42c-24 45 -37 98 -37 156c0 169 113 297 302 297c67 0 125 -17 172 -45l49 46zM449 284v7l-147 -137c12 -5 25 -7 40 -7c69 0 107 59 107 137zM236 284v-8
l145 136c-12 5 -25 8 -39 8c-68 0 -106 -57 -106 -136z" />
    <glyph glyph-name="zero.OP" unicode="&#xe061;" horiz-adv-x="685" 
d="M449 284c0 79 -38 136 -107 136c-68 0 -106 -57 -106 -136s38 -137 106 -137c69 0 107 59 107 137zM645 284c0 -171 -113 -298 -303 -298c-189 0 -302 127 -302 298c0 169 113 297 302 297c190 0 303 -128 303 -297z" />
    <glyph glyph-name="one.OP" unicode="&#xe062;" horiz-adv-x="495" 
d="M415 0h-190v365h-1l-131 -96l-80 142l225 158h177v-569z" />
    <glyph glyph-name="two.OP" unicode="&#xe063;" horiz-adv-x="644" 
d="M614 0h-576v152c58 26 135 64 199 98c98 51 135 81 135 118c0 33 -29 54 -90 54c-64 0 -98 -20 -127 -51l-122 116c64 64 148 94 260 94c181 0 281 -75 281 -211c0 -61 -30 -103 -75 -142c-31 -29 -66 -52 -99 -72v-1h214v-155z" />
    <glyph glyph-name="three.OP" unicode="&#xe064;" horiz-adv-x="605" 
d="M566 57c0 -135 -114 -224 -303 -224c-113 0 -193 32 -255 94l114 124c30 -32 68 -52 132 -52c85 0 117 30 117 74c0 48 -35 68 -108 68h-112v166h87c70 0 95 22 95 60c0 41 -34 62 -95 62c-52 0 -85 -17 -111 -47l-104 115c59 56 126 84 237 84c182 0 268 -85 268 -192
c0 -80 -42 -134 -109 -159v-1c86 -17 147 -78 147 -172z" />
    <glyph glyph-name="four.OP" unicode="&#xe065;" horiz-adv-x="640" 
d="M529 -153h-185v157h-318v146l326 419h177v-408h89v-157h-89v-157zM348 161v163h-1l-122 -162v-1h123z" />
    <glyph glyph-name="five.OP" unicode="&#xe066;" horiz-adv-x="614" 
d="M592 73c0 -145 -115 -240 -304 -240c-114 0 -193 32 -256 94l114 124c32 -32 69 -52 133 -52c85 0 117 29 117 74c0 54 -46 71 -122 71c-54 0 -117 -12 -174 -31v454h444v-162h-268v-108c23 4 45 5 60 5c154 0 256 -79 256 -229z" />
    <glyph glyph-name="six.OP" unicode="&#xe067;" horiz-adv-x="626" 
d="M595 234c0 -157 -115 -248 -276 -248c-173 0 -278 105 -278 274c0 218 147 413 400 474l47 -161c-125 -31 -198 -93 -225 -160l2 -1c24 25 67 46 130 46c103 0 200 -70 200 -224zM401 222c0 60 -38 88 -83 88c-51 0 -83 -32 -83 -82c0 -55 26 -94 86 -94
c49 0 80 32 80 88z" />
    <glyph glyph-name="seven.OP" unicode="&#xe068;" horiz-adv-x="556" 
d="M300 -153h-210l261 540v2h-338v178h533v-167z" />
    <glyph glyph-name="eight.OP" unicode="&#xe069;" horiz-adv-x="663" 
d="M623 187c0 -110 -84 -201 -290 -201c-207 0 -291 91 -291 201c0 102 49 151 126 183v1c-56 37 -97 82 -97 173c0 113 90 190 261 190s262 -77 262 -190c0 -91 -42 -136 -97 -173v-1c77 -32 126 -81 126 -183zM428 204c0 51 -32 83 -94 83c-63 0 -97 -32 -97 -82
c0 -54 31 -86 96 -86c64 0 95 31 95 85zM407 531c0 48 -26 77 -75 77c-48 0 -74 -28 -74 -76c0 -51 26 -81 75 -81c47 0 74 30 74 80z" />
    <glyph glyph-name="nine.OP" unicode="&#xe06a;" horiz-adv-x="626" 
d="M586 307c0 -217 -148 -413 -400 -474l-48 161c125 32 199 94 225 160l-1 1c-25 -25 -67 -46 -130 -46c-103 0 -201 71 -201 224c0 158 115 248 277 248c172 0 278 -105 278 -274zM391 340c0 55 -26 93 -86 93c-49 0 -78 -32 -78 -87c0 -60 36 -88 82 -88
c51 0 82 31 82 82z" />
    <glyph glyph-name="zerosuperior" unicode="&#x2070;" horiz-adv-x="449" 
d="M286 529c0 88 -23 128 -61 128c-39 0 -61 -41 -61 -128c0 -88 22 -128 61 -128c38 0 61 41 61 128zM424 529c0 -149 -74 -243 -199 -243c-126 0 -199 94 -199 243c0 148 73 243 199 243c125 0 199 -95 199 -243z" />
    <glyph glyph-name="onesuperior" unicode="&#xb9;" horiz-adv-x="330" 
d="M281 295h-136v323h-1l-80 -58l-57 101l146 102h128v-468z" />
    <glyph glyph-name="twosuperior" unicode="&#xb2;" horiz-adv-x="403" 
d="M382 295h-364v106c46 34 85 63 114 89c60 51 86 82 86 115c0 34 -24 49 -54 49c-28 0 -51 -10 -70 -30l-81 89c42 41 95 59 165 59c107 0 180 -55 180 -159c0 -48 -18 -88 -50 -124c-21 -25 -47 -50 -84 -76v-2h158v-116z" />
    <glyph glyph-name="threesuperior" unicode="&#xb3;" horiz-adv-x="401" 
d="M375 443c0 -95 -76 -157 -202 -157c-75 0 -126 20 -168 60l82 88c18 -20 41 -30 80 -30c49 0 69 16 69 39c0 28 -23 38 -62 38c-15 0 -31 -2 -50 -8l-43 103l92 70v1h-143v116h327v-116l-89 -64c8 -1 17 -4 22 -6c53 -19 85 -66 85 -134z" />
    <glyph glyph-name="foursuperior" unicode="&#x2074;" horiz-adv-x="420" 
d="M349 295h-131v98h-202v104l208 266h125v-258h56v-112h-56v-98zM220 505v84h-1l-62 -83v-1h63z" />
    <glyph glyph-name="fivesuperior" unicode="&#x2075;" horiz-adv-x="407" 
d="M394 443c0 -95 -77 -157 -202 -157c-76 0 -128 20 -169 60l81 88c20 -20 41 -30 81 -30c52 0 69 15 69 39c0 31 -27 38 -73 38c-36 0 -77 -9 -113 -21v303h294v-116h-169v-56c13 1 26 2 32 2c102 0 169 -52 169 -150z" />
    <glyph glyph-name="sixsuperior" unicode="&#x2076;" horiz-adv-x="408" 
d="M389 448c0 -103 -75 -162 -181 -162c-112 0 -184 67 -184 179c0 143 96 267 261 307l33 -114c-75 -19 -118 -52 -135 -89l1 -1c16 16 42 26 78 26c64 0 127 -45 127 -146zM252 440c0 33 -21 48 -44 48c-26 0 -45 -18 -45 -46c0 -31 14 -51 47 -51c25 0 42 16 42 49z" />
    <glyph glyph-name="sevensuperior" unicode="&#x2077;" horiz-adv-x="390" 
d="M217 295h-150l163 340v1h-208v127h346v-120z" />
    <glyph glyph-name="eightsuperior" unicode="&#x2078;" horiz-adv-x="433" 
d="M409 416c0 -70 -55 -130 -191 -130c-139 0 -192 60 -192 130c0 66 30 97 78 119v1c-33 24 -59 54 -59 113c0 73 58 123 172 123c113 0 173 -50 173 -124c0 -59 -26 -88 -60 -112v-1c48 -22 79 -53 79 -119zM270 430c0 28 -18 46 -52 46s-54 -18 -54 -46
c0 -32 17 -49 54 -49c36 0 52 17 52 49zM257 640c0 27 -14 43 -40 43s-40 -16 -40 -43c0 -30 14 -47 40 -47c25 0 40 17 40 47z" />
    <glyph glyph-name="ninesuperior" unicode="&#x2079;" horiz-adv-x="408" 
d="M384 593c0 -143 -95 -267 -260 -307l-34 114c76 19 119 52 136 88l-2 2c-16 -16 -41 -26 -78 -26c-63 0 -127 45 -127 145c0 104 76 163 183 163c110 0 182 -67 182 -179zM245 616c0 31 -13 51 -45 51c-26 0 -43 -17 -43 -49c0 -34 21 -48 44 -48c26 0 44 17 44 46z" />
    <glyph glyph-name="plussuperior" unicode="&#x207a;" horiz-adv-x="426" 
d="M266 372h-105v105h-109v103h108v107h105v-107h109v-103h-108v-105z" />
    <glyph glyph-name="minussuperior" unicode="&#x207b;" horiz-adv-x="426" 
d="M374 478h-322v102h322v-102z" />
    <glyph glyph-name="equalsuperior" unicode="&#x207c;" horiz-adv-x="426" 
d="M374 554h-322v103h322v-103zM374 398h-322v101h322v-101z" />
    <glyph glyph-name="parenleftsuperior" unicode="&#x207d;" horiz-adv-x="259" 
d="M262 272l-92 -54c-83 73 -144 176 -144 311s61 237 144 311l92 -54c-65 -70 -105 -150 -105 -257s40 -187 105 -257z" />
    <glyph glyph-name="parenrightsuperior" unicode="&#x207e;" horiz-adv-x="259" 
d="M233 529c0 -135 -58 -236 -137 -311l-87 52c61 72 97 152 97 259s-36 187 -97 258l87 53c79 -75 137 -176 137 -311z" />
    <glyph glyph-name="zeroinferior" unicode="&#x2080;" horiz-adv-x="449" 
d="M286 139c0 88 -23 128 -61 128c-39 0 -61 -41 -61 -128c0 -88 22 -128 61 -128c38 0 61 41 61 128zM424 139c0 -149 -74 -243 -199 -243c-126 0 -199 94 -199 243c0 148 73 243 199 243c125 0 199 -95 199 -243z" />
    <glyph glyph-name="oneinferior" unicode="&#x2081;" horiz-adv-x="330" 
d="M281 -95h-136v323h-1l-80 -58l-57 101l146 102h128v-468z" />
    <glyph glyph-name="twoinferior" unicode="&#x2082;" horiz-adv-x="403" 
d="M382 -95h-364v106c46 34 85 63 114 89c60 51 86 82 86 115c0 34 -24 49 -54 49c-28 0 -51 -10 -70 -30l-81 89c42 41 95 59 165 59c107 0 180 -55 180 -159c0 -48 -18 -88 -50 -124c-21 -25 -47 -50 -84 -76v-2h158v-116z" />
    <glyph glyph-name="threeinferior" unicode="&#x2083;" horiz-adv-x="401" 
d="M375 53c0 -95 -76 -157 -202 -157c-75 0 -126 20 -168 60l82 88c18 -20 41 -30 80 -30c49 0 69 16 69 39c0 28 -23 38 -62 38c-15 0 -31 -2 -50 -8l-43 103l92 70v1h-143v116h327v-116l-89 -64c8 -1 17 -4 22 -6c53 -19 85 -66 85 -134z" />
    <glyph glyph-name="fourinferior" unicode="&#x2084;" horiz-adv-x="420" 
d="M349 -95h-131v98h-202v104l208 266h125v-258h56v-112h-56v-98zM220 115v84h-1l-62 -83v-1h63z" />
    <glyph glyph-name="fiveinferior" unicode="&#x2085;" horiz-adv-x="407" 
d="M394 53c0 -95 -77 -157 -202 -157c-76 0 -128 20 -169 60l81 88c20 -20 41 -30 81 -30c52 0 69 15 69 39c0 31 -27 38 -73 38c-36 0 -77 -9 -113 -21v303h294v-116h-169v-56c13 1 26 2 32 2c102 0 169 -52 169 -150z" />
    <glyph glyph-name="sixinferior" unicode="&#x2086;" horiz-adv-x="408" 
d="M389 58c0 -103 -75 -162 -181 -162c-112 0 -184 67 -184 179c0 143 96 267 261 307l33 -114c-75 -19 -118 -52 -135 -89l1 -1c16 16 42 26 78 26c64 0 127 -45 127 -146zM252 50c0 33 -21 48 -44 48c-26 0 -45 -18 -45 -46c0 -31 14 -51 47 -51c25 0 42 16 42 49z" />
    <glyph glyph-name="seveninferior" unicode="&#x2087;" horiz-adv-x="390" 
d="M217 -95h-150l163 340v1h-208v127h346v-120z" />
    <glyph glyph-name="eightinferior" unicode="&#x2088;" horiz-adv-x="433" 
d="M409 26c0 -70 -55 -130 -191 -130c-139 0 -192 60 -192 130c0 66 30 97 78 119v1c-33 24 -59 54 -59 113c0 73 58 123 172 123c113 0 173 -50 173 -124c0 -59 -26 -88 -60 -112v-1c48 -22 79 -53 79 -119zM270 40c0 28 -18 46 -52 46s-54 -18 -54 -46
c0 -32 17 -49 54 -49c36 0 52 17 52 49zM257 250c0 27 -14 43 -40 43s-40 -16 -40 -43c0 -30 14 -47 40 -47c25 0 40 17 40 47z" />
    <glyph glyph-name="nineinferior" unicode="&#x2089;" horiz-adv-x="408" 
d="M384 203c0 -143 -95 -267 -260 -307l-34 114c76 19 119 52 136 88l-2 2c-16 -16 -41 -26 -78 -26c-63 0 -127 45 -127 145c0 104 76 163 183 163c110 0 182 -67 182 -179zM245 226c0 31 -13 51 -45 51c-26 0 -43 -17 -43 -49c0 -34 21 -48 44 -48c26 0 44 17 44 46z" />
    <glyph glyph-name="plusinferior" unicode="&#xe06b;" horiz-adv-x="426" 
d="M266 -18h-105v105h-109v103h108v107h105v-107h109v-103h-108v-105z" />
    <glyph glyph-name="minusinferior" unicode="&#xe06c;" horiz-adv-x="426" 
d="M374 88h-322v102h322v-102z" />
    <glyph glyph-name="equalinferior" unicode="&#xe06d;" horiz-adv-x="426" 
d="M374 164h-322v103h322v-103zM374 8h-322v101h322v-101z" />
    <glyph glyph-name="parenleftinferior" unicode="&#x208d;" horiz-adv-x="259" 
d="M262 -118l-92 -54c-83 73 -144 176 -144 311s61 237 144 311l92 -54c-65 -70 -105 -150 -105 -257s40 -187 105 -257z" />
    <glyph glyph-name="parenrightinferior" unicode="&#x208e;" horiz-adv-x="259" 
d="M233 139c0 -135 -58 -236 -137 -311l-87 52c61 72 97 152 97 259s-36 187 -97 258l87 53c79 -75 137 -176 137 -311z" />
    <glyph glyph-name="zero.numr" unicode="&#xe06e;" horiz-adv-x="449" 
d="M286 486c0 88 -23 128 -61 128c-39 0 -61 -41 -61 -128c0 -88 22 -128 61 -128c38 0 61 41 61 128zM424 486c0 -149 -74 -243 -199 -243c-126 0 -199 94 -199 243c0 148 73 243 199 243c125 0 199 -95 199 -243z" />
    <glyph glyph-name="one.numr" unicode="&#xe06f;" horiz-adv-x="330" 
d="M281 252h-136v323h-1l-80 -58l-57 101l146 102h128v-468z" />
    <glyph glyph-name="two.numr" unicode="&#xe070;" horiz-adv-x="403" 
d="M382 252h-364v106c46 34 85 63 114 89c60 51 86 82 86 115c0 34 -24 49 -54 49c-28 0 -51 -10 -70 -30l-81 89c42 41 95 59 165 59c107 0 180 -55 180 -159c0 -48 -18 -88 -50 -124c-21 -25 -47 -50 -84 -76v-2h158v-116z" />
    <glyph glyph-name="three.numr" unicode="&#xe071;" horiz-adv-x="401" 
d="M375 400c0 -95 -76 -157 -202 -157c-75 0 -126 20 -168 60l82 88c18 -20 41 -30 80 -30c49 0 69 16 69 39c0 28 -23 38 -62 38c-15 0 -31 -2 -50 -8l-43 103l92 70v1h-143v116h327v-116l-89 -64c8 -1 17 -4 22 -6c53 -19 85 -66 85 -134z" />
    <glyph glyph-name="four.numr" unicode="&#xe072;" horiz-adv-x="420" 
d="M349 252h-131v98h-202v104l208 266h125v-258h56v-112h-56v-98zM220 462v84h-1l-62 -83v-1h63z" />
    <glyph glyph-name="five.numr" unicode="&#xe073;" horiz-adv-x="407" 
d="M394 400c0 -95 -77 -157 -202 -157c-76 0 -128 20 -169 60l81 88c20 -20 41 -30 81 -30c52 0 69 15 69 39c0 31 -27 38 -73 38c-36 0 -77 -9 -113 -21v303h294v-116h-169v-56c13 1 26 2 32 2c102 0 169 -52 169 -150z" />
    <glyph glyph-name="six.numr" unicode="&#xe074;" horiz-adv-x="408" 
d="M389 405c0 -103 -75 -162 -181 -162c-112 0 -184 67 -184 179c0 143 96 267 261 307l33 -114c-75 -19 -118 -52 -135 -89l1 -1c16 16 42 26 78 26c64 0 127 -45 127 -146zM252 397c0 33 -21 48 -44 48c-26 0 -45 -18 -45 -46c0 -31 14 -51 47 -51c25 0 42 16 42 49z" />
    <glyph glyph-name="seven.numr" unicode="&#xe075;" horiz-adv-x="390" 
d="M217 252h-150l163 340v1h-208v127h346v-120z" />
    <glyph glyph-name="eight.numr" unicode="&#xe076;" horiz-adv-x="433" 
d="M409 373c0 -70 -55 -130 -191 -130c-139 0 -192 60 -192 130c0 66 30 97 78 119v1c-33 24 -59 54 -59 113c0 73 58 123 172 123c113 0 173 -50 173 -124c0 -59 -26 -88 -60 -112v-1c48 -22 79 -53 79 -119zM270 387c0 28 -18 46 -52 46s-54 -18 -54 -46
c0 -32 17 -49 54 -49c36 0 52 17 52 49zM257 597c0 27 -14 43 -40 43s-40 -16 -40 -43c0 -30 14 -47 40 -47c25 0 40 17 40 47z" />
    <glyph glyph-name="nine.numr" unicode="&#xe077;" horiz-adv-x="408" 
d="M384 550c0 -143 -95 -267 -260 -307l-34 114c76 19 119 52 136 88l-2 2c-16 -16 -41 -26 -78 -26c-63 0 -127 45 -127 145c0 104 76 163 183 163c110 0 182 -67 182 -179zM245 573c0 31 -13 51 -45 51c-26 0 -43 -17 -43 -49c0 -34 21 -48 44 -48c26 0 44 17 44 46z" />
    <glyph glyph-name="zero.dnom" unicode="&#xe078;" horiz-adv-x="449" 
d="M286 234c0 88 -23 128 -61 128c-39 0 -61 -41 -61 -128c0 -88 22 -128 61 -128c38 0 61 41 61 128zM424 234c0 -149 -74 -243 -199 -243c-126 0 -199 94 -199 243c0 148 73 243 199 243c125 0 199 -95 199 -243z" />
    <glyph glyph-name="one.dnom" unicode="&#xe079;" horiz-adv-x="330" 
d="M281 0h-136v323h-1l-80 -58l-57 101l146 102h128v-468z" />
    <glyph glyph-name="two.dnom" unicode="&#xe07a;" horiz-adv-x="403" 
d="M382 0h-364v106c46 34 85 63 114 89c60 51 86 82 86 115c0 34 -24 49 -54 49c-28 0 -51 -10 -70 -30l-81 89c42 41 95 59 165 59c107 0 180 -55 180 -159c0 -48 -18 -88 -50 -124c-21 -25 -47 -50 -84 -76v-2h158v-116z" />
    <glyph glyph-name="three.dnom" unicode="&#xe07b;" horiz-adv-x="401" 
d="M375 148c0 -95 -76 -157 -202 -157c-75 0 -126 20 -168 60l82 88c18 -20 41 -30 80 -30c49 0 69 16 69 39c0 28 -23 38 -62 38c-15 0 -31 -2 -50 -8l-43 103l92 70v1h-143v116h327v-116l-89 -64c8 -1 17 -4 22 -6c53 -19 85 -66 85 -134z" />
    <glyph glyph-name="four.dnom" unicode="&#xe07c;" horiz-adv-x="420" 
d="M349 0h-131v98h-202v104l208 266h125v-258h56v-112h-56v-98zM220 210v84h-1l-62 -83v-1h63z" />
    <glyph glyph-name="five.dnom" unicode="&#xe07d;" horiz-adv-x="407" 
d="M394 148c0 -95 -77 -157 -202 -157c-76 0 -128 20 -169 60l81 88c20 -20 41 -30 81 -30c52 0 69 15 69 39c0 31 -27 38 -73 38c-36 0 -77 -9 -113 -21v303h294v-116h-169v-56c13 1 26 2 32 2c102 0 169 -52 169 -150z" />
    <glyph glyph-name="six.dnom" unicode="&#xe07e;" horiz-adv-x="408" 
d="M389 153c0 -103 -75 -162 -181 -162c-112 0 -184 67 -184 179c0 143 96 267 261 307l33 -114c-75 -19 -118 -52 -135 -89l1 -1c16 16 42 26 78 26c64 0 127 -45 127 -146zM252 145c0 33 -21 48 -44 48c-26 0 -45 -18 -45 -46c0 -31 14 -51 47 -51c25 0 42 16 42 49z" />
    <glyph glyph-name="seven.dnom" unicode="&#xe07f;" horiz-adv-x="390" 
d="M217 0h-150l163 340v1h-208v127h346v-120z" />
    <glyph glyph-name="eight.dnom" unicode="&#xe080;" horiz-adv-x="433" 
d="M409 121c0 -70 -55 -130 -191 -130c-139 0 -192 60 -192 130c0 66 30 97 78 119v1c-33 24 -59 54 -59 113c0 73 58 123 172 123c113 0 173 -50 173 -124c0 -59 -26 -88 -60 -112v-1c48 -22 79 -53 79 -119zM270 135c0 28 -18 46 -52 46s-54 -18 -54 -46
c0 -32 17 -49 54 -49c36 0 52 17 52 49zM257 345c0 27 -14 43 -40 43s-40 -16 -40 -43c0 -30 14 -47 40 -47c25 0 40 17 40 47z" />
    <glyph glyph-name="nine.dnom" unicode="&#xe081;" horiz-adv-x="408" 
d="M384 298c0 -143 -95 -267 -260 -307l-34 114c76 19 119 52 136 88l-2 2c-16 -16 -41 -26 -78 -26c-63 0 -127 45 -127 145c0 104 76 163 183 163c110 0 182 -67 182 -179zM245 321c0 31 -13 51 -45 51c-26 0 -43 -17 -43 -49c0 -34 21 -48 44 -48c26 0 44 17 44 46z" />
    <glyph glyph-name="fraction" unicode="&#x2044;" horiz-adv-x="251" 
d="M-43 0h-144l482 720h143z" />
    <glyph glyph-name="fraction.osf" unicode="&#xe53f;" horiz-adv-x="159" 
d="M-43 0h-144l390 567h143z" />
    <glyph glyph-name="onehalf" unicode="&#xbd;" horiz-adv-x="984" 
d="M287 0h-144l482 720h143zM281 252h-136v323h-1l-80 -58l-57 101l146 102h128v-468zM963 0h-364v106c46 34 85 63 114 89c60 51 86 82 86 115c0 34 -24 49 -54 49c-28 0 -51 -10 -70 -30l-81 89c42 41 95 59 165 59c107 0 180 -55 180 -159c0 -48 -18 -88 -50 -124
c-21 -25 -47 -50 -84 -76v-2h158v-116z" />
    <glyph glyph-name="onequarter" unicode="&#xbc;" horiz-adv-x="940" 
d="M869 0h-131v98h-202v104l208 266h125v-258h56v-112h-56v-98zM287 0h-144l482 720h143zM281 252h-136v323h-1l-80 -58l-57 101l146 102h128v-468zM740 210v84h-1l-62 -83v-1h63z" />
    <glyph glyph-name="threequarters" unicode="&#xbe;" horiz-adv-x="1011" 
d="M375 400c0 -95 -76 -157 -202 -157c-75 0 -126 20 -168 60l82 88c18 -20 41 -30 80 -30c49 0 69 16 69 39c0 28 -23 38 -62 38c-15 0 -31 -2 -50 -8l-43 103l92 70v1h-143v116h327v-116l-89 -64c8 -1 17 -4 22 -6c53 -19 85 -66 85 -134zM940 0h-131v98h-202v104l208 266
h125v-258h56v-112h-56v-98zM358 0h-144l482 720h143zM811 210v84h-1l-62 -83v-1h63z" />
    <glyph glyph-name="percent" unicode="%" horiz-adv-x="1080" 
d="M371 0h-144l482 720h143zM286 486c0 88 -23 128 -61 128c-39 0 -61 -41 -61 -128c0 -88 22 -128 61 -128c38 0 61 41 61 128zM424 486c0 -149 -74 -243 -199 -243c-126 0 -199 94 -199 243c0 148 73 243 199 243c125 0 199 -95 199 -243zM916 234c0 88 -23 128 -61 128
c-39 0 -61 -41 -61 -128c0 -88 22 -128 61 -128c38 0 61 41 61 128zM1054 234c0 -149 -74 -243 -199 -243c-126 0 -199 94 -199 243c0 148 73 243 199 243c125 0 199 -95 199 -243z" />
    <glyph glyph-name="perthousand" unicode="&#x2030;" horiz-adv-x="1531" 
d="M371 0h-144l482 720h143zM286 486c0 88 -23 128 -61 128c-39 0 -61 -41 -61 -128c0 -88 22 -128 61 -128c38 0 61 41 61 128zM424 486c0 -149 -74 -243 -199 -243c-126 0 -199 94 -199 243c0 148 73 243 199 243c125 0 199 -95 199 -243zM916 234c0 88 -23 128 -61 128
c-39 0 -61 -41 -61 -128c0 -88 22 -128 61 -128c38 0 61 41 61 128zM1054 234c0 -149 -74 -243 -199 -243c-126 0 -199 94 -199 243c0 148 73 243 199 243c125 0 199 -95 199 -243zM1368 234c0 88 -23 128 -61 128c-39 0 -61 -41 -61 -128c0 -88 22 -128 61 -128
c38 0 61 41 61 128zM1506 234c0 -149 -74 -243 -199 -243c-126 0 -199 94 -199 243c0 148 73 243 199 243c125 0 199 -95 199 -243z" />
    <glyph glyph-name="percent.osf" unicode="&#xe330;" horiz-adv-x="1000" 
d="M279 397c0 40 -22 69 -63 69s-63 -29 -63 -69s22 -69 63 -69s63 29 63 69zM411 397c0 -105 -74 -184 -195 -184c-123 0 -196 79 -196 184s73 184 196 184c121 0 195 -79 195 -184zM848 170c0 40 -22 69 -63 69s-63 -29 -63 -69s22 -69 63 -69s63 29 63 69zM980 170
c0 -105 -74 -184 -195 -184c-123 0 -196 79 -196 184s73 184 196 184c121 0 195 -79 195 -184zM377 0h-144l390 567h143z" />
    <glyph glyph-name="perthousand.osf" unicode="&#xe331;" horiz-adv-x="1426" 
d="M279 397c0 40 -22 69 -63 69s-63 -29 -63 -69s22 -69 63 -69s63 29 63 69zM411 397c0 -105 -74 -184 -195 -184c-123 0 -196 79 -196 184s73 184 196 184c121 0 195 -79 195 -184zM848 170c0 40 -22 69 -63 69s-63 -29 -63 -69s22 -69 63 -69s63 29 63 69zM980 170
c0 -105 -74 -184 -195 -184c-123 0 -196 79 -196 184s73 184 196 184c121 0 195 -79 195 -184zM1278 170c0 40 -22 69 -63 69s-63 -29 -63 -69s22 -69 63 -69s63 29 63 69zM1410 170c0 -105 -74 -184 -195 -184c-123 0 -196 79 -196 184s73 184 196 184
c121 0 195 -79 195 -184zM377 0h-144l390 567h143z" />
    <glyph glyph-name="plus" unicode="+" 
d="M389 122h-148v165h-169v145h168v167h147v-167h170v-145h-168v-165z" />
    <glyph glyph-name="minus" unicode="&#x2212;" 
d="M557 288h-485v144h485v-144z" />
    <glyph glyph-name="plusminus" unicode="&#xb1;" 
d="M387 328h-144v113h-171v143h169v114h145v-114h171v-143h-170v-113zM557 152h-485v144h485v-144z" />
    <glyph glyph-name="multiply" unicode="&#xd7;" 
d="M552 224l-103 -105l-135 135l-138 -136l-102 101l137 138l-136 134l104 104l135 -135l138 137l103 -102l-137 -138z" />
    <glyph glyph-name="divide" unicode="&#xf7;" 
d="M557 288h-485v144h485v-144zM403 92h-178v158h178v-158zM403 470h-178v158h178v-158z" />
    <glyph glyph-name="equal" unicode="=" 
d="M557 407h-485v144h485v-144zM557 164h-485v142h485v-142z" />
    <glyph glyph-name="notequal" unicode="&#x2260;" 
d="M283 96h-133l30 68h-108v143h170l45 100h-215v144h278l36 80h133l-36 -80h74v-144h-137l-44 -100h181v-143h-244z" />
    <glyph glyph-name="asciitilde" unicode="~" 
d="M421 251c-103 0 -140 68 -200 68c-35 0 -55 -23 -70 -48l-88 117c35 49 83 82 145 82c103 0 140 -68 199 -68c35 0 56 23 71 47l88 -117c-35 -48 -83 -81 -145 -81z" />
    <glyph glyph-name="approxequal" unicode="&#x2248;" 
d="M426 365c-103 0 -140 68 -200 68c-35 0 -55 -23 -70 -48l-88 117c35 49 83 82 145 82c103 0 140 -68 199 -68c35 0 56 23 71 47l88 -117c-35 -48 -83 -81 -145 -81zM422 128c-103 0 -140 68 -200 68c-35 0 -55 -23 -70 -48l-88 117c35 49 83 82 145 82
c103 0 140 -68 199 -68c35 0 56 23 71 47l88 -117c-35 -48 -83 -81 -145 -81z" />
    <glyph glyph-name="asciicircum" unicode="^" horiz-adv-x="621" 
d="M551 285h-169l-72 235h-2l-72 -235h-167l170 421h141z" />
    <glyph glyph-name="less" unicode="&#x3c;" 
d="M557 125l-485 170v142l485 170v-168l-274 -71v-2l274 -73v-168z" />
    <glyph glyph-name="greater" unicode="&#x3e;" 
d="M548 295l-485 -170v168l274 73v2l-274 71v168l485 -170v-142z" />
    <glyph glyph-name="lessequal" unicode="&#x2264;" 
d="M557 226l-485 118v147l485 117v-147l-288 -42v-2l288 -43v-148zM557 58h-485v144h485v-144z" />
    <glyph glyph-name="greaterequal" unicode="&#x2265;" 
d="M548 344l-485 -118v148l288 43v2l-288 42v147l485 -117v-147zM548 58h-485v144h485v-144z" />
    <glyph glyph-name="logicalnot" unicode="&#xac;" 
d="M557 126h-146v162h-339v145h485v-307z" />
    <glyph glyph-name="currency" unicode="&#xa4;" horiz-adv-x="621" 
d="M490 359c0 -22 -5 -44 -13 -62l73 -73l-103 -103l-74 73c-19 -7 -39 -12 -62 -12c-22 0 -44 6 -63 12l-77 -75l-103 101l79 79c-7 19 -12 39 -12 60c0 22 5 42 12 60l-78 77l105 104l75 -75c19 8 40 13 62 13c23 0 44 -6 64 -13l74 77l104 -104l-76 -74
c8 -21 13 -42 13 -65zM364 359c0 30 -23 60 -54 60c-30 0 -52 -30 -52 -60s22 -58 52 -58c31 0 54 28 54 58z" />
    <glyph glyph-name="infinity" unicode="&#x221e;" horiz-adv-x="838" 
d="M324 359c-19 39 -46 71 -83 71c-38 0 -56 -38 -56 -71c0 -34 15 -72 56 -72c37 0 65 33 83 72zM654 359c0 39 -18 69 -59 69c-36 0 -61 -37 -78 -70c17 -35 45 -71 78 -71c43 0 59 34 59 72zM797 361c0 -139 -81 -223 -178 -223c-68 0 -142 41 -195 125h-2
c-43 -70 -106 -124 -193 -124c-135 0 -188 100 -188 222c0 114 63 219 188 219c86 0 143 -56 186 -124h2c49 70 97 124 187 124c130 0 193 -99 193 -219z" />
    <glyph glyph-name="lozenge" unicode="&#x25ca;" horiz-adv-x="621" 
d="M408 362l-98 118l-98 -118l98 -119l87 106zM576 362l-266 -322l-266 322l266 322z" />
    <glyph glyph-name="Delta" unicode="&#x2206;" horiz-adv-x="796" 
d="M791 0h-785l282 720h221zM515 172l-118 306h-2l-116 -306h236z" />
    <glyph glyph-name="Omega" unicode="&#x2126;" horiz-adv-x="824" 
d="M793 0h-356v149c76 61 134 127 134 253c0 102 -57 174 -159 174c-103 0 -159 -72 -159 -174c0 -126 58 -192 133 -253v-149h-354v162h141v2c-69 63 -117 151 -117 262c0 180 128 308 356 308c229 0 356 -128 356 -308c0 -111 -47 -200 -117 -262v-2h142v-162z" />
    <glyph glyph-name="partialdiff" unicode="&#x2202;" horiz-adv-x="623" 
d="M584 260c0 -169 -106 -274 -278 -274c-161 0 -275 91 -275 248c0 154 97 224 199 224c63 0 105 -21 130 -46l2 1c-27 67 -101 129 -224 165l47 156c251 -60 399 -256 399 -474zM388 228c0 50 -30 82 -81 82c-45 0 -81 -28 -81 -88c0 -56 29 -88 78 -88c59 0 84 39 84 94z
" />
    <glyph glyph-name="integral" unicode="&#x222b;" horiz-adv-x="377" 
d="M58 -232c-33 0 -62 2 -90 5l8 143c12 -3 26 -5 40 -5c42 0 55 32 55 81v527c0 133 70 215 226 215c25 0 55 -2 83 -6l-8 -148c-15 5 -32 8 -54 8c-47 0 -62 -28 -62 -69v-527c0 -160 -75 -224 -198 -224z" />
    <glyph glyph-name="radical" unicode="&#x221a;" horiz-adv-x="620" 
d="M385 0h-143l-119 392h-97v145h215l70 -321h2l115 504h165z" />
    <glyph glyph-name="summation" unicode="&#x2211;" horiz-adv-x="740" 
d="M684 -220h-626v168l291 304l-278 300v168h601v-172h-324l194 -215v-163l-206 -218h348v-172z" />
    <glyph glyph-name="product" unicode="&#x220f;" horiz-adv-x="818" 
d="M744 -218h-195v766h-274v-766h-195v938h664v-938z" />
    <glyph glyph-name="mu" unicode="&#xb5;" horiz-adv-x="699" 
d="M629 0h-182v57h-4c-30 -40 -76 -68 -132 -68c-23 -1 -43 7 -52 17h-1v-188h-186v719h186v-281c0 -59 31 -108 90 -108c60 0 95 51 95 110v279h186v-537z" />
    <glyph glyph-name="degree" unicode="&#xb0;" horiz-adv-x="323" 
d="M309 588c0 -92 -70 -146 -148 -146c-75 0 -147 54 -147 146c0 93 70 146 148 146c75 0 147 -53 147 -146zM204 588c0 28 -21 42 -42 42c-24 0 -44 -14 -44 -42s20 -44 43 -44s43 16 43 44z" />
    <glyph glyph-name="litre" unicode="&#x2113;" horiz-adv-x="645" 
d="M372 -14c-109 0 -186 51 -231 140c-21 -8 -42 -14 -62 -19l-42 154c20 5 40 12 61 18c-4 31 -6 65 -6 100c0 230 99 349 256 349c129 0 225 -90 225 -231c0 -104 -49 -216 -243 -291c17 -26 41 -41 75 -41c43 0 73 24 95 62l104 -132c-58 -78 -139 -109 -232 -109z
M292 421c0 -20 0 -41 1 -60c55 36 91 86 91 154c0 31 -10 63 -41 63c-30 0 -51 -34 -51 -157z" />
    <glyph glyph-name="estimated" unicode="&#x212e;" horiz-adv-x="774" 
d="M394 -14c-217 0 -369 144 -369 359c0 216 152 359 366 359c219 0 354 -148 359 -406h-512v-132c38 -36 91 -54 154 -54c97 0 154 53 187 106h158c-65 -154 -203 -232 -343 -232zM394 578c-64 0 -118 -19 -156 -55v-107h293v113c-35 33 -82 49 -137 49z" />
    <glyph glyph-name="ampersand" unicode="&#x26;" horiz-adv-x="830" 
d="M805 154l-13 -168c-80 1 -140 11 -212 48c-58 -30 -130 -48 -215 -48c-214 0 -317 92 -317 217c0 86 38 139 109 181c-50 55 -70 100 -70 154c0 113 80 196 273 196c182 0 270 -77 270 -181c0 -98 -61 -150 -178 -199l47 -39c25 -24 49 -44 71 -61c16 38 23 84 18 136
l176 8c9 -82 -6 -162 -44 -230c31 -11 59 -15 85 -14zM286 543c0 -21 8 -41 49 -83c64 27 97 53 97 87c0 33 -23 55 -73 55c-51 0 -73 -24 -73 -59zM370 126c23 0 45 3 65 8c-29 24 -61 51 -96 82l-65 55c-17 -17 -23 -35 -23 -58c0 -55 40 -87 119 -87z" />
    <glyph glyph-name="c_t" unicode="&#xe08c;" horiz-adv-x="952" 
d="M546 78c-56 -61 -135 -92 -230 -92c-173 0 -285 116 -285 283c0 130 70 233 189 268c-5 16 -7 33 -7 49c0 110 121 148 316 148c102 0 219 -12 303 -29v-168h101v-154h-101v-383h-185v383h-77v154h77v53c-37 3 -72 5 -105 5c-105 0 -150 -10 -150 -52
c57 -13 105 -41 145 -84l-116 -109c-23 29 -52 51 -93 51c-67 0 -110 -47 -110 -132c0 -86 44 -133 110 -133c45 0 79 22 103 51z" />
    <glyph glyph-name="s_t" unicode="&#xfb06;" horiz-adv-x="944" 
d="M522 734c102 0 219 -12 303 -29v-168h100v-154h-100v-383h-186v383h-76v154h76v54c-36 3 -72 4 -104 4c-107 0 -151 -10 -151 -53v-2c46 -11 85 -30 121 -58l-96 -120c-31 28 -75 46 -125 46c-45 0 -63 -9 -63 -26c0 -52 301 0 301 -215c0 -116 -107 -181 -257 -181
c-98 0 -172 29 -235 78l97 121c38 -34 87 -55 149 -55c48 0 68 8 68 27c0 56 -300 3 -300 217c0 95 68 154 166 171c-4 14 -5 28 -5 41c0 110 122 148 317 148z" />
    <glyph glyph-name="s_p" unicode="&#xe434;" horiz-adv-x="1242" 
d="M501 734c102 0 218 -12 302 -29v-218h4c34 39 91 64 156 64c149 0 246 -117 246 -282s-97 -283 -246 -283c-65 0 -122 26 -155 63h-1v-267h-185v808c-38 4 -74 5 -108 5c-105 0 -147 -10 -148 -52c54 -10 99 -30 139 -61l-96 -120c-31 28 -75 46 -125 46
c-45 0 -63 -9 -63 -26c0 -52 301 0 301 -215c0 -116 -107 -181 -257 -181c-98 0 -172 29 -235 78l97 121c38 -34 87 -55 149 -55c48 0 68 8 68 27c0 56 -300 3 -300 217c0 89 59 147 148 168c-4 14 -5 29 -5 44c0 110 120 148 314 148zM1021 269c0 67 -38 120 -108 120
c-69 0 -106 -52 -106 -109v-22c0 -58 37 -110 106 -110c70 0 108 53 108 121z" />
    <glyph glyph-name="T_h" unicode="&#xe099;" horiz-adv-x="1279" 
d="M1218 0h-186v281c0 60 -29 108 -91 108c-59 0 -95 -52 -95 -109v-280h-185v548h-218v-548h-194v548h-237v172h834v-229h1c29 34 84 60 150 60c145 0 221 -90 221 -221v-330z" />
    <glyph glyph-name="arrowright" unicode="&#x2192;" horiz-adv-x="840" 
d="M438 30l-110 101l144 138h-395v176h395l-144 138l110 102l324 -325v-6z" />
    <glyph glyph-name="arrowleft" unicode="&#x2190;" horiz-adv-x="840" 
d="M511 131l-110 -101l-324 324v6l324 325l111 -102l-145 -138h395v-176h-395z" />
    <glyph glyph-name="arrowup" unicode="&#x2191;" horiz-adv-x="840" 
d="M748 375l-101 -111l-138 145v-395h-177v395l-138 -145l-101 111l325 324h6z" />
    <glyph glyph-name="arrowdown" unicode="&#x2193;" horiz-adv-x="840" 
d="M647 448l101 -110l-324 -324h-6l-325 324l101 110l138 -144v395h177v-395z" />
    <glyph glyph-name="arrowupright" unicode="&#x2197;" horiz-adv-x="840" 
d="M691 158h-145v193l-280 -280l-125 125l280 279h-194v145h459l5 -4v-458z" />
    <glyph glyph-name="arrowupleft" unicode="&#x2196;" horiz-adv-x="840" 
d="M286 158h-145v458l5 4h459v-145h-194l280 -279l-125 -125l-280 280v-193z" />
    <glyph glyph-name="arrowdownright" unicode="&#x2198;" horiz-adv-x="840" 
d="M546 566h145v-458l-5 -5h-459v145h194l-280 279l125 125l280 -280v194z" />
    <glyph glyph-name="arrowdownleft" unicode="&#x2199;" horiz-adv-x="840" 
d="M141 566h145v-194l280 280l125 -125l-280 -279h194v-145h-459l-5 5v458z" />
    <glyph glyph-name="arrowtailright" unicode="&#x21a3;" horiz-adv-x="840" 
d="M427 15h-9v254h-341v176h341v254h9l335 -339v-6z" />
    <glyph glyph-name="arrowtailleft" unicode="&#x21a2;" horiz-adv-x="840" 
d="M421 15h-9l-335 339v6l335 339h9v-254h341v-176h-341v-254z" />
    <glyph glyph-name="arrowtailup" unicode="&#xe223;" horiz-adv-x="840" 
d="M760 362v-9h-254v-341h-176v341h-254v9l339 335h6z" />
    <glyph glyph-name="arrowtaildown" unicode="&#xe224;" horiz-adv-x="840" 
d="M760 356v-9l-339 -335h-6l-339 335v9h254v341h176v-341h254z" />
    <glyph glyph-name="arrowtailupright" unicode="&#xe4ae;" horiz-adv-x="840" 
d="M690 131l-6 -7l-177 180l-241 -241l-125 124l242 241l-180 177l7 6h476l4 -4v-476z" />
    <glyph glyph-name="arrowtailupleft" unicode="&#xe4ad;" horiz-adv-x="840" 
d="M147 124l-6 7v476l4 4h477l7 -6l-180 -177l241 -241l-124 -124l-242 241z" />
    <glyph glyph-name="arrowtaildownright" unicode="&#xe4b0;" horiz-adv-x="840" 
d="M684 585l6 -7v-476l-4 -4h-476l-7 6l180 177l-242 241l125 124l241 -241z" />
    <glyph glyph-name="arrowtaildownleft" unicode="&#xe4af;" horiz-adv-x="840" 
d="M141 578l6 7l177 -180l242 241l124 -124l-241 -241l180 -177l-7 -6h-477l-4 4v476z" />
    <glyph glyph-name="checkmark" unicode="&#x2713;" horiz-adv-x="775" 
d="M435 0h-155l-161 537h167l75 -321h2l119 504h166z" />
    <glyph glyph-name="whitecircle" unicode="&#x25cb;" horiz-adv-x="840" 
d="M821 360c0 -221 -180 -399 -402 -399c-220 0 -399 178 -399 398c0 221 179 399 400 399s401 -178 401 -398zM720 360c0 163 -135 298 -300 298s-300 -135 -300 -299c0 -163 135 -298 299 -298c166 0 301 135 301 299z" />
    <glyph glyph-name="ballotroundbowwithx" unicode="&#xe562;" horiz-adv-x="840" 
d="M295 136l-99 97l127 127l-128 130l95 95l130 -129l127 129l97 -98l-128 -127l130 -131l-96 -97l-130 130zM821 360c0 -221 -180 -399 -402 -399c-220 0 -399 178 -399 398c0 221 179 399 400 399s401 -178 401 -398zM720 360c0 163 -135 298 -300 298
s-300 -135 -300 -299c0 -163 135 -298 299 -298c166 0 301 135 301 299z" />
    <glyph glyph-name="whitesquare" unicode="&#x25a1;" horiz-adv-x="840" 
d="M780 0h-721v720h721v-720zM160 101h519v518h-519v-518z" />
    <glyph glyph-name="ballotboxwithx" unicode="&#x2612;" horiz-adv-x="840" 
d="M780 0h-721v720h721v-720zM679 101v518h-519v-518h519zM295 136l-99 97l127 127l-128 130l95 95l130 -129l127 129l97 -98l-128 -127l130 -131l-96 -97l-130 130z" />
    <glyph glyph-name="blackcircle" unicode="&#x25cf;" horiz-adv-x="840" 
d="M821 360c0 -221 -180 -399 -402 -399c-220 0 -399 178 -399 398c0 221 179 399 400 399s401 -178 401 -398z" />
    <glyph glyph-name="blacksquare" unicode="&#x25a0;" horiz-adv-x="840" 
d="M780 0h-721v720h721v-720z" />
    <glyph glyph-name="dingbatnegcircle1" unicode="&#x2776;" horiz-adv-x="840" 
d="M821 360c0 -221 -180 -399 -402 -399c-220 0 -399 178 -399 398c0 221 179 399 400 399s401 -178 401 -398zM371 125h136v468h-127l-147 -102l57 -101l80 58h1v-323z" />
    <glyph glyph-name="dingbatnegcircle2" unicode="&#x2777;" horiz-adv-x="840" 
d="M821 360c0 -221 -180 -399 -402 -399c-220 0 -399 178 -399 398c0 221 179 399 400 399s401 -178 401 -398zM242 160h364v116h-158v1c37 27 62 52 84 76c32 37 50 76 50 125c0 104 -73 159 -180 159c-70 0 -123 -18 -165 -59l81 -89c19 20 42 30 70 30
c30 0 54 -16 54 -49s-26 -64 -87 -116c-28 -25 -68 -54 -113 -88v-106z" />
    <glyph glyph-name="dingbatnegcircle3" unicode="&#x2778;" horiz-adv-x="840" 
d="M821 360c0 -221 -180 -399 -402 -399c-220 0 -399 178 -399 398c0 221 179 399 400 399s401 -178 401 -398zM607 273c0 68 -31 115 -84 134c-5 2 -15 5 -22 6l88 64v116h-326v-116h142v-1l-92 -70l44 -103c18 6 35 8 49 8c39 0 62 -10 62 -38c0 -23 -19 -39 -68 -39
c-39 0 -63 10 -81 30l-81 -88c41 -40 92 -60 168 -60c126 0 201 62 201 157z" />
    <glyph glyph-name="dingbatnegcircle4" unicode="&#x2779;" horiz-adv-x="840" 
d="M821 360c0 -221 -180 -399 -402 -399c-220 0 -399 178 -399 398c0 221 179 399 400 399s401 -178 401 -398zM408 125h131v98h56v112h-56v258h-125l-208 -266v-104h202v-98zM410 419v-84h-63v1l62 83h1z" />
    <glyph glyph-name="dingbatnegcircle5" unicode="&#x277a;" horiz-adv-x="840" 
d="M821 360c0 -221 -180 -399 -402 -399c-220 0 -399 178 -399 398c0 221 179 399 400 399s401 -178 401 -398zM598 273c0 98 -67 150 -169 150c-6 0 -19 -1 -32 -2v56h169v116h-294v-303c36 12 77 21 113 21c45 0 73 -7 73 -38c0 -24 -17 -39 -69 -39c-40 0 -61 10 -81 30
l-81 -88c41 -40 93 -60 168 -60c126 0 203 62 203 157z" />
    <glyph glyph-name="dingbatnegcircle6" unicode="&#x277b;" horiz-adv-x="840" 
d="M821 360c0 -221 -180 -399 -402 -399c-220 0 -399 178 -399 398c0 221 179 399 400 399s401 -178 401 -398zM592 278c0 101 -64 146 -127 146c-37 0 -63 -10 -79 -26l-1 1c17 37 61 70 136 89l-34 114c-165 -40 -260 -164 -260 -307c0 -112 71 -179 183 -179
c106 0 182 59 182 162zM454 270c0 -33 -17 -49 -42 -49c-32 0 -46 20 -46 51c0 28 18 46 44 46c23 0 44 -15 44 -48z" />
    <glyph glyph-name="dingbatnegcircle7" unicode="&#x277c;" horiz-adv-x="840" 
d="M821 360c0 -221 -180 -399 -402 -399c-220 0 -399 178 -399 398c0 221 179 399 400 399s401 -178 401 -398zM291 125h150l151 348v120h-346v-127h207v-1z" />
    <glyph glyph-name="dingbatnegcircle8" unicode="&#x277d;" horiz-adv-x="840" 
d="M821 360c0 -221 -180 -399 -402 -399c-220 0 -399 178 -399 398c0 221 179 399 400 399s401 -178 401 -398zM612 246c0 66 -32 97 -79 119v1c33 24 59 53 59 112c0 74 -60 124 -172 124c-114 0 -173 -50 -173 -123c0 -59 26 -89 59 -113v-1c-47 -22 -78 -53 -78 -119
c0 -70 54 -130 192 -130c137 0 192 60 192 130zM472 260c0 -32 -15 -49 -52 -49s-53 17 -53 49c0 28 20 46 54 46s51 -18 51 -46zM460 470c0 -30 -15 -47 -40 -47c-26 0 -41 17 -41 47c0 27 15 43 41 43s40 -16 40 -43z" />
    <glyph glyph-name="dingbatnegcircle9" unicode="&#x277e;" horiz-adv-x="840" 
d="M821 360c0 -221 -180 -399 -402 -399c-220 0 -399 178 -399 398c0 221 179 399 400 399s401 -178 401 -398zM605 423c0 112 -71 179 -182 179c-107 0 -183 -59 -183 -163c0 -100 65 -145 128 -145c37 0 62 10 78 26l2 -2c-17 -36 -60 -69 -137 -88l34 -114
c166 40 260 164 260 307zM467 446c0 -29 -18 -46 -45 -46c-23 0 -43 14 -43 48c0 32 17 49 43 49c32 0 45 -20 45 -51z" />
    </font>
</defs>
</svg>
